<?xml version="1.0" encoding="UTF-8"?> <svg xmlns="http://www.w3.org/2000/svg" viewBox="0 0 503.34 503.34"><defs><style>.cls-1{fill:#fff;}.cls-2{fill:#c74f07;}</style></defs><title>Fichier 2</title><g id="Calque_2" data-name="Calque 2"><g id="Calque_5" data-name="Calque 5"><path class="cls-1" d="M495.34,251.46c0-22.84-3.59-44.31-10.11-60.47-6.58-16.31-15.38-25.29-24.8-25.29-.77,0-5.67,1.8-6.41,1.92.55-.41,5.23-2.58,5.73-3.08,6.65-6.65,6.53-19.23-.34-35.41S440,95.36,423.81,79.21C399,54.4,370.94,38.37,352.31,38.37c-5.92,0-10.57,1.65-13.82,4.89-.54.54-2.73,5.28-3.18,5.89.1-.68,1.88-5.52,1.88-6.22,0-9.41-9-18.22-25.28-24.8S274.27,8,251.43,8c-47.28,0-85.74,15.66-85.74,34.91,0,.77,1.8,5.68,1.92,6.42-.42-.55-2.59-5.23-3.08-5.73-3.25-3.24-7.9-4.89-13.82-4.89-18.63,0-46.7,16-71.51,40.83-16.14,16.15-28.79,33.87-35.6,49.91-6.88,16.19-7,28.76-.35,35.42.54.54,5.28,2.73,5.89,3.17-.68-.09-5.52-1.87-6.22-1.87C23.67,166.17,8,204.64,8,251.92s15.67,85.75,34.92,85.75c.72,0,5.57-1.79,6.26-1.89-.5.39-5.14,2.53-5.6,3C30,352.38,46.08,390.66,79.5,424.1,104.31,448.92,132.38,465,151,465c5.92,0,10.56-1.65,13.81-4.89.54-.54,2.74-5.28,3.18-5.89-.1.68-1.88,5.52-1.88,6.22,0,19.26,38.47,34.93,85.75,34.94h0c47.26,0,85.71-15.66,85.71-34.9,0-.76-1.79-5.66-1.91-6.4.41.54,2.58,5.22,3.07,5.72,3.25,3.24,7.9,4.89,13.83,4.89,18.63,0,46.7-16,71.51-40.82,16.14-16.15,28.79-33.87,35.61-49.91s7-28.76.34-35.41c-.54-.54-5.27-2.74-5.88-3.18.68.1,5.52,1.87,6.22,1.87C479.66,337.2,495.33,298.74,495.34,251.46Z"></path><path class="cls-2" d="M492.65,188c-5.59-13.86-13-23.3-21.41-27.62,2.78-9,1.32-20.75-4.46-34.37-7.21-17-20.45-35.59-37.31-52.44-26.63-26.64-56.2-43.19-77.16-43.19a31.72,31.72,0,0,0-9.93,1.49C338,23.54,328.62,16.24,314.9,10.7,297.81,3.8,275.28,0,251.43,0S205.06,3.8,188,10.7c-13.86,5.59-23.29,13-27.61,21.4a32.24,32.24,0,0,0-9.65-1.39c-21,0-50.53,16.54-77.17,43.17-16.85,16.86-30.1,35.48-37.31,52.44C30.38,140.08,29,152,31.86,161c-8.32,4.37-15.62,13.75-21.16,27.48C3.8,205.55,0,228.09,0,251.92s3.8,46.38,10.7,63.47c5.59,13.84,13,23.27,21.38,27.59-2.77,9-1.31,20.74,4.46,34.33,7.21,17,20.45,35.59,37.3,52.45C100.48,456.41,130,473,151,473a32,32,0,0,0,9.92-1.49c4.38,8.32,13.76,15.62,27.47,21.16,17.09,6.9,39.63,10.71,63.47,10.71h0c23.83,0,46.35-3.79,63.44-10.69,13.85-5.59,23.28-13,27.6-21.39a32.3,32.3,0,0,0,9.66,1.39c21,0,50.53-16.54,77.16-43.16,16.86-16.86,30.12-35.48,37.32-52.44,5.85-13.76,7.28-25.64,4.38-34.65,8.32-4.37,15.62-13.75,21.17-27.48,6.9-17.09,10.7-39.63,10.7-63.46S499.55,205.08,492.65,188ZM460.41,337.2a14.71,14.71,0,0,1-2.09-.16,14.49,14.49,0,0,1,1.75,1.47c6.66,6.65,6.53,19.23-.34,35.41s-19.47,33.76-35.61,49.91c-24.81,24.8-52.88,40.82-71.51,40.82-5.93,0-10.58-1.65-13.83-4.89a16.93,16.93,0,0,1-1.35-1.59,15.68,15.68,0,0,1,.19,2.27c0,19.24-38.45,34.9-85.71,34.9h0c-47.28,0-85.75-15.68-85.75-34.94a14.47,14.47,0,0,1,.17-2.08,15.3,15.3,0,0,1-1.47,1.75c-3.25,3.24-7.89,4.89-13.81,4.89-18.63,0-46.7-16-71.51-40.86C46.08,390.66,30,352.38,43.58,338.77a13.66,13.66,0,0,1,1.47-1.27,15.17,15.17,0,0,1-2.13.17C23.67,337.67,8,299.2,8,251.92s15.67-85.75,34.92-85.75a14.61,14.61,0,0,1,2.09.17,14.59,14.59,0,0,1-1.76-1.47c-6.65-6.66-6.53-19.23.35-35.42,6.81-16,19.46-33.76,35.6-49.91,24.81-24.8,52.88-40.83,71.51-40.83,5.92,0,10.57,1.65,13.82,4.89a16,16,0,0,1,1.36,1.6,14.65,14.65,0,0,1-.2-2.29C165.69,23.66,204.15,8,251.43,8c22.84,0,44.32,3.6,60.48,10.13s25.28,15.39,25.28,24.8A14.72,14.72,0,0,1,337,45a14.59,14.59,0,0,1,1.47-1.76c3.25-3.24,7.9-4.89,13.82-4.89,18.63,0,46.7,16,71.5,40.84,16.15,16.15,28.79,33.88,35.6,49.92s7,28.76.34,35.41a14.84,14.84,0,0,1-1.6,1.37,14.43,14.43,0,0,1,2.28-.21c9.42,0,18.22,9,24.8,25.29,6.52,16.16,10.11,37.63,10.11,60.47C495.33,298.74,479.66,337.2,460.41,337.2Z"></path><path class="cls-2" d="M307.51,177.82l-1.82,8.57-.08.13.07,0,0,.07.09-.12,7.41-4.67c-3,3.64-5.48,24,11.59,22.48s8.76-21.58,8.76-21.58a48.21,48.21,0,0,0,11.6,5.78c5.91,1.88,8.64-3.61,9.58-5s3.11-1.74,6.22-2.44,7.26-6.12,6.46-10.08-5.18-5.47-14.88-8.71-20.4.51-27.45,3.06c0,0-3-1.47,1.09-4a2.92,2.92,0,0,0,2-2.84,3.05,3.05,0,0,0-.14-.8c1.91-1.81,3.69-2.62,9.28-4.54a18.14,18.14,0,0,0-9.93,3.44,2.73,2.73,0,0,0-.49-.41,3.3,3.3,0,0,0-.55-.32,18.16,18.16,0,0,0-.22-10.5c.14,5.9,0,7.86-1,10.28a2.75,2.75,0,0,0-.8.14,2.91,2.91,0,0,0-2,2.83c-1,4.67-3.4,2.42-3.4,2.42-.06-7.51-.24-18.84-6.66-26.81s-9.35-11.56-13.34-10.93-7.64,6.4-7.21,9.56.83,5.31-.13,6.67-5.15,5.83-1.34,10.71a48.12,48.12,0,0,0,9.45,8.88s-21.71-.83-17.2,15.7S305.13,181.9,307.51,177.82Z"></path><path class="cls-2" d="M149.5,272.34V285l5.34.67a18.79,18.79,0,0,1-1.82-9.51,14.18,14.18,0,0,1,3-7,19,19,0,0,1,16-27,7.5,7.5,0,0,0-7-5.56,7.5,7.5,0,0,0-14.9-.63A8.34,8.34,0,1,0,134.92,243a8.33,8.33,0,0,0-3.06,15.92,7.54,7.54,0,0,0-.52,2.74,7.43,7.43,0,0,0,10.95,6.53l-.08.16Zm-3.34-11.28a11.25,11.25,0,0,0,2.79,1l.5,6.4s-4.11-.66-4.82-2.32h0a7.37,7.37,0,0,0,1.56-4.53C146.19,261.43,146.17,261.25,146.16,261.06ZM138,264.34a4.33,4.33,0,0,1-4.33-4.34,4.43,4.43,0,0,1,.16-1.1,5.82,5.82,0,1,1,7.26-1.94,4.33,4.33,0,0,1-3.09,7.38Z"></path><path class="cls-2" d="M148.34,288.67s18.3,20.2,29.39,36.34a131.32,131.32,0,0,0,15.7,9.28c-.43-.83-.9-1.69-1.43-2.62C179.34,309.34,148.34,288.67,148.34,288.67Z"></path><path class="cls-2" d="M214.32,283.72s47.48,42,59.22,62.45a129.9,129.9,0,0,0,13.85-3.12c-.6-.89-1.22-1.8-1.9-2.77C264.27,310.24,214.32,283.72,214.32,283.72Z"></path><path class="cls-2" d="M328,316.36c-29.31-27-86.31-42.36-86.31-42.36s67.41,37.2,79.49,53.95A131.4,131.4,0,0,0,332,320.28C330.84,319.06,329.51,317.76,328,316.36Z"></path><path class="cls-2" d="M223,276s61,37.91,74.9,63.56a130,130,0,0,0,14.71-6.66c-1.52-1.8-3.31-3.77-5.42-5.94C278.75,297.61,223,276,223,276Z"></path><path class="cls-2" d="M293.34,279H283c6.34,4,49,26.67,56,32.67a11.2,11.2,0,0,0,1.7,1.18q4-3.77,7.71-7.84a40.5,40.5,0,0,0-3.41-2.67C328,290.34,293.34,279,293.34,279Z"></path><path class="cls-2" d="M316.51,274v4.67S345.69,291,351,295.34a38.13,38.13,0,0,0,3.44,2.49q3.21-4.11,6.09-8.48c-.59-.26-1.39-.56-2.53-1C353,286.34,316.51,274,316.51,274Z"></path><path class="cls-2" d="M352.55,277.3l12.62,4.47c1.19-2.11,2.33-4.25,3.4-6.43l-3.9-1.67Z"></path><path class="cls-2" d="M331,271l9.67,2.67s22.23-6.53,32.4-8.49c.58-1.47,1.12-3,1.65-4.46L372,261S336,268.67,331,271Z"></path><path class="cls-2" d="M316.51,264.34v5s42.17-12.8,59.76-13.32c.24-.8.48-1.59.71-2.39l-.31,0C363.67,255.67,361.18,254.67,316.51,264.34Z"></path><path class="cls-2" d="M374.67,245.84a2,2,0,0,0-4-.07c-1.19,0-1.77-.09-1.77-.09h0a2.91,2.91,0,1,0-5.12-2.49,10.73,10.73,0,0,0-4.06-.08,3.42,3.42,0,1,0-6.61-.06A7.36,7.36,0,0,0,351,243a5.05,5.05,0,0,0-.68-.07,4.49,4.49,0,0,0-2.71.91c-.56.2-1.15.43-1.78.72h0a4.56,4.56,0,0,0-9,.13,4.48,4.48,0,0,0-.94-.37,4.51,4.51,0,0,0,.29-1.57,4.58,4.58,0,0,0-9.07-.92,8.91,8.91,0,0,0-10.59,8.59v6.75s34.34-7.49,55.31-9.53l2-.18c1.67-.14,3.24-.24,4.67-.29C378.5,247.17,378.67,245.84,374.67,245.84Z"></path><path class="cls-2" d="M197.08,288.36l.35-4.64A10.7,10.7,0,0,0,216,276.46a10.51,10.51,0,0,0-.87-4.17,10.75,10.75,0,0,0,6.27-6.47l44.27,6.68h46V228h8.17L291,207.17l-63.11.14c.07-.87.11-1.75.11-2.64a32.67,32.67,0,1,0-46.35,29.66,10.72,10.72,0,0,0-7.24,10.13,10.47,10.47,0,0,0,.43,3,14.74,14.74,0,0,0-1.64-.1,13.83,13.83,0,0,0-3,27.33,12.64,12.64,0,0,0,12.33,9.83c.34,0,.68,0,1,0l8.13,6.88-1.33,10.83.64,1.18A269.41,269.41,0,0,0,168.34,287s33.72,35,45.87,55.52a128.91,128.91,0,0,0,15.27,3.58c-.84-1.59-1.82-3.33-3-5.27-7.42-12.3-19.56-24.19-30.84-33.66L197,289.56c9.55,9.9,37.94,40,48.65,58.3q3,.13,6,.14c2.73,0,5.43-.09,8.11-.25-.72-1.26-1.52-2.6-2.42-4C241.36,318.19,207.68,295.2,197.08,288.36ZM218.27,213h63.1l-15.68,9.49-59.46-1Zm-19.1,24.09V227l19.63.33,46.88.8V267l-5.86-.91-.14-21.48L234,244l-.29,18.12-11.91-1.84a10.72,10.72,0,0,0-8.76-8.5,10.59,10.59,0,0,0,1-4.44,10.7,10.7,0,0,0-10.71-10.71,10.5,10.5,0,0,0-4.12.84ZM172,264.59a7.56,7.56,0,0,0,1.79,4.88,5.68,5.68,0,0,1-.59,0,8.33,8.33,0,1,1,0-16.66,8.43,8.43,0,0,1,1.6.17,5.56,5.56,0,0,1-.1-1,5.67,5.67,0,0,1,5-5.62,5.14,5.14,0,0,1-.31-1.72,5.33,5.33,0,0,1,10.66,0c0,.23,0,.46-.06.68h.26a8.67,8.67,0,0,1,8.67,8.67c0,.24,0,.47,0,.71a5.33,5.33,0,1,1-1.13,3.61,8.66,8.66,0,0,1-15.49-1,5.64,5.64,0,0,1-1.84.31,5.71,5.71,0,0,1-2.34-.5A7.58,7.58,0,0,0,172,264.59Zm10.53,13.91a6.67,6.67,0,1,1,6.67-6.66A6.66,6.66,0,0,1,182.53,278.5Zm10.31,6.17s-3.35.44-4.26-1.7h0a12.74,12.74,0,0,0,4.63-4.33Zm2.3-11.63a11.76,11.76,0,0,0,.06-1.2,12.58,12.58,0,0,0-.78-4.36,10.47,10.47,0,0,0,2.92-.53,11,11,0,0,0,.65,1.68A10.65,10.65,0,0,0,195.14,273Z"></path><path class="cls-2" d="M138.06,306.33l-10.82,5.91,6.25,11.41,10.82-5.91,3.39,6.19-28.2,15.41-3.39-6.2,12.16-6.64L122,315.09l-12.17,6.65-3.39-6.2,28.2-15.41Z"></path><path class="cls-2" d="M159.72,337.71,143.58,368l-4.86-5.5,3.76-6.55-7.95-9-7,2.84-4.71-5.33,32.14-12.14Zm-14.51,13.34,6.16-10.83-.06-.07-11.61,4.66Z"></path><path class="cls-2" d="M168.74,383.68q-4.8.44-10-3.34t-6.34-8.47q-1-4.65,2.79-10l11.7-16.2,5.72,4.14L160.9,366a14.66,14.66,0,0,0-1.32,2.21,5.25,5.25,0,0,0-.54,2.36,5.14,5.14,0,0,0,.7,2.45,8,8,0,0,0,2.43,2.51q3.06,2.22,5.22,1.69c1.43-.34,2.86-1.49,4.26-3.44l11.7-16.19,5.72,4.14L177.37,378Q173.56,383.25,168.74,383.68Z"></path><path class="cls-2" d="M186.49,367l2.39-5.44L213,372.21l-2.4,5.44-8.81-3.89-10.55,24-6.47-2.85,10.56-24Z"></path><path class="cls-2" d="M236.53,377.28l-1.29,5.8-16.56-3.68-1.5,6.72,15.2,3.37-1.2,5.36L216,391.48l-1.71,7.69,16.91,3.75-1.29,5.8-23.81-5.29,7-31.36Z"></path><path class="cls-2" d="M257.25,409.63l-12.34-31.45,7.23-.43,8.52,22.11h.09l5.85-23,7.28-.44-8.68,32.71Z"></path><path class="cls-2" d="M286.53,372.72l19.61,28.15-7.1,1.82-4.13-6.33-11.64,3-.67,7.55-6.89,1.76,3.8-34.13Zm5.28,19L285,381.29l-.09,0-1.12,12.45Z"></path><path class="cls-2" d="M303.53,366.45,314.91,390l14.1-6.82,2.58,5.35-20.46,9.89-14-28.93Z"></path><path class="cls-2" d="M337.11,345l3.56,4.75-13.58,10.18,4.13,5.51,12.46-9.34,3.29,4.4-12.46,9.34,4.71,6.3,13.87-10.39,3.55,4.76-19.51,14.63-19.25-25.73Z"></path><path class="cls-2" d="M376,345.69q0,4.83-4.19,9.7t-9,5.59q-4.72.64-9.7-3.64L338,344.28l4.62-5.34L357.75,352a14.59,14.59,0,0,0,2.09,1.51,5.28,5.28,0,0,0,2.3.74,5.22,5.22,0,0,0,2.5-.49,8.06,8.06,0,0,0,2.71-2.21c1.65-1.9,2.36-3.59,2.14-5.05s-1.25-3-3.06-4.54L351.3,328.89l4.62-5.35L371,336.6Q376,340.86,376,345.69Z"></path><path class="cls-2" d="M365.1,306.49a10.19,10.19,0,0,1,2.43-3.12,8.84,8.84,0,0,1,3.07-1.74,8.21,8.21,0,0,1,3.37-.37,9,9,0,0,1,3.35,1,9.59,9.59,0,0,1,3.79,3.34,7.43,7.43,0,0,1,1,4.91l.08,0a5.43,5.43,0,0,1,2-1.4,6.32,6.32,0,0,1,2.2-.42,8.33,8.33,0,0,1,2.34.34,19.15,19.15,0,0,1,2.31.83l1.64.76c.62.29,1.27.57,1.94.84a14.09,14.09,0,0,0,2,.63,4.68,4.68,0,0,0,1.8.11l-3.29,6.25a12.68,12.68,0,0,1-3.56-1.05c-1.29-.58-2.55-1.09-3.77-1.53a6.36,6.36,0,0,0-4-.36,5.26,5.26,0,0,0-2.82,2.84l-3.29,6.25,11.12,5.84-3.29,6.25L357,321.82Zm11.69,9a5.31,5.31,0,0,0,.74-3.73A4.44,4.44,0,0,0,375,309a4.26,4.26,0,0,0-3.57-.51,5.45,5.45,0,0,0-2.64,2.74l-3.6,6.85,8,4.2Z"></path><path class="cls-2" d="M93.22,307.71l-5.73,1.55-4.43-16.37-6.65,1.8,4.07,15-5.3,1.44-4.07-15-7.6,2.07L68,314.92l-5.73,1.56-6.38-23.55,31-8.42Z"></path><path class="cls-2" d="M97.7,318.17l-13.64,21.4,0,.08,19.44-9.31,2.86,6-29,13.88-3.06-6.37L88,322.47l0-.08-19.4,9.29-2.86-6,29-13.88Z"></path><path class="cls-2" d="M87.44,365.33l19.94-27.24,4.25,5.87L97.52,363l0,.08,22.56-7.37,4.27,5.91L92.11,371.78Z"></path><path class="cls-2" d="M131.47,368.43,108,390.32l-4.81-5.17,23.51-21.89Z"></path><path class="cls-2" d="M148.81,384a10.43,10.43,0,0,1,2.57,3,8.82,8.82,0,0,1,1.08,3.36,8.22,8.22,0,0,1-.32,3.38,8.8,8.8,0,0,1-1.67,3.07,9.58,9.58,0,0,1-4,3,7.4,7.4,0,0,1-5,0l-.06.07a5.51,5.51,0,0,1,1,2.23,6,6,0,0,1,0,2.24,8.36,8.36,0,0,1-.8,2.22,20.27,20.27,0,0,1-1.28,2.1l-1.07,1.45c-.42.55-.82,1.13-1.22,1.73a13.87,13.87,0,0,0-1,1.82,4.7,4.7,0,0,0-.46,1.74L131,410.94a12.71,12.71,0,0,1,1.75-3.28c.83-1.15,1.58-2.28,2.26-3.39a6.43,6.43,0,0,0,1.15-3.82,5.26,5.26,0,0,0-2.22-3.33l-5.46-4.48-7.95,9.72-5.47-4.48L135.41,373Zm-11.16,9.65a5.39,5.39,0,0,0,3.51,1.48,4.49,4.49,0,0,0,3.16-1.95,4.28,4.28,0,0,0,1.21-3.4,5.4,5.4,0,0,0-2.15-3.13l-6-4.9-5.73,7Z"></path><path class="cls-2" d="M155.29,401a16,16,0,0,1,5.27-3.28,14.22,14.22,0,0,1,6.08-.83,17.58,17.58,0,0,1,11.72,6.28,14.26,14.26,0,0,1,2.67,5.51,16.13,16.13,0,0,1,.21,6.21,20.22,20.22,0,0,1-2.2,6.4,19.32,19.32,0,0,1-4,5.27,15.58,15.58,0,0,1-5.22,3.2,14.47,14.47,0,0,1-6,.78A17.84,17.84,0,0,1,152,424.21a14.31,14.31,0,0,1-2.72-5.46,15.71,15.71,0,0,1-.24-6.13,19.47,19.47,0,0,1,2.13-6.28A19.84,19.84,0,0,1,155.29,401Zm.69,12.42a10.63,10.63,0,0,0-.29,3.74,7.59,7.59,0,0,0,1.22,3.44,9.32,9.32,0,0,0,7.14,3.82,7.55,7.55,0,0,0,3.54-.89,10.47,10.47,0,0,0,2.95-2.32,16.17,16.17,0,0,0,2.27-3.25,16.93,16.93,0,0,0,1.51-3.84,10.71,10.71,0,0,0,.34-3.82,7.62,7.62,0,0,0-1.22-3.46A9.27,9.27,0,0,0,166.3,403a7.57,7.57,0,0,0-3.54.91,10.58,10.58,0,0,0-3,2.4,17.6,17.6,0,0,0-2.34,3.39A15.94,15.94,0,0,0,156,413.37Z"></path><path class="cls-2" d="M197,410.24l6.62,24.5.08,0L210,414.13l6.33,1.91L207,446.8l-6.76-2-6.59-24.44-.08,0-6.21,20.59L181,439l9.28-30.77Z"></path><path class="cls-2" d="M228.47,417.75l11.19,22.76h.09l2.15-21.44,6.58.65-3.2,32-7-.7L227.1,428.29H227l-2.15,21.4-6.58-.65,3.2-32Z"></path><path class="cls-2" d="M277.88,417.65l.48,5.92-16.91,1.36.57,6.87,15.51-1.26L278,436l-15.52,1.26.65,7.85,17.27-1.4.48,5.92-24.31,2-2.62-32Z"></path><path class="cls-2" d="M291.57,414.61l13.4,19.1.09,0,.64-23.2,9.54-2.78,9,30.84-6.35,1.85-6.38-21.86-.09,0-1.18,24.06L305,444.15l-13.88-19.44-.08,0,6.31,21.64L291,448.23l-9-30.84Z"></path><path class="cls-2" d="M341.05,394l2.78,5.26-15,7.94,3.22,6.08L345.81,406l2.56,4.85-13.76,7.29,3.68,7L353.6,417l2.78,5.26-21.56,11.41-15-28.41Z"></path><path class="cls-2" d="M350.27,387.3l23.87,8.62.07-.06-13.35-16.93,5.2-4.1L386,400.06l-5.55,4.38-23.8-8.61-.07.06,13.31,16.89-5.19,4.1-19.89-25.23Z"></path><path class="cls-2" d="M372.64,376.71l-4.45-3.95,17.49-19.67,4.44,3.94-6.39,7.2,19.58,17.39-4.69,5.28L379,369.51Z"></path><path class="cls-2" d="M393.94,340.29l33.47,7.53-4,6.14-7.32-1.89-6.59,10.05,4.61,6-3.9,5.94L390,346.34Zm16.71,10.45-12.08-3.07-.05.07,7.57,10Z"></path><path class="cls-2" d="M404,321.6l24,10.48,6.27-14.35,5.44,2.37-9.1,20.83-29.45-12.85Z"></path><path class="cls-2" d="M417.19,280.7l5.76,1.46-4.16,16.44,6.67,1.7,3.82-15.1,5.32,1.35-3.81,15.1,7.63,1.93,4.24-16.8,5.76,1.46-6,23.65L411.3,304Z"></path><path class="cls-2" d="M73.54,251.67a8.34,8.34,0,1,1-8.33-8.33A8.33,8.33,0,0,1,73.54,251.67Z"></path><path class="cls-2" d="M76,222.39a8.33,8.33,0,1,1-6.85-9.59A8.33,8.33,0,0,1,76,222.39Z"></path><path class="cls-2" d="M83.17,193.9A8.33,8.33,0,1,1,78,183.32,8.34,8.34,0,0,1,83.17,193.9Z"></path><path class="cls-2" d="M95,167a8.33,8.33,0,1,1-3.37-11.3A8.34,8.34,0,0,1,95,167Z"></path><path class="cls-2" d="M111,142.38a8.33,8.33,0,1,1-1.46-11.7A8.33,8.33,0,0,1,111,142.38Z"></path><path class="cls-2" d="M130.9,120.74a8.33,8.33,0,1,1,.47-11.78A8.33,8.33,0,0,1,130.9,120.74Z"></path><path class="cls-2" d="M154.06,102.67a8.34,8.34,0,1,1,2.41-11.54A8.33,8.33,0,0,1,154.06,102.67Z"></path><path class="cls-2" d="M179.89,88.65a8.34,8.34,0,1,1,4.27-11A8.35,8.35,0,0,1,179.89,88.65Z"></path><path class="cls-2" d="M207.67,79.06a8.33,8.33,0,1,1,6-10.13A8.33,8.33,0,0,1,207.67,79.06Z"></path><path class="cls-2" d="M236.64,74.18a8.33,8.33,0,1,1,7.6-9A8.34,8.34,0,0,1,236.64,74.18Z"></path><path class="cls-2" d="M266,74.12a8.33,8.33,0,1,1,9-7.63A8.33,8.33,0,0,1,266,74.12Z"></path><path class="cls-2" d="M295,78.9a8.33,8.33,0,1,1,10.11-6.05A8.34,8.34,0,0,1,295,78.9Z"></path><path class="cls-2" d="M322.83,88.38a8.33,8.33,0,1,1,11-4.31A8.33,8.33,0,0,1,322.83,88.38Z"></path><path class="cls-2" d="M348.71,102.3a8.33,8.33,0,1,1,11.53-2.45A8.33,8.33,0,0,1,348.71,102.3Z"></path><path class="cls-2" d="M372,120.29a8.33,8.33,0,1,1,11.77-.52A8.34,8.34,0,0,1,372,120.29Z"></path><path class="cls-2" d="M391.91,141.85a8.33,8.33,0,1,1,11.7,1.42A8.33,8.33,0,0,1,391.91,141.85Z"></path><path class="cls-2" d="M408.06,166.4a8.33,8.33,0,1,1,11.3,3.32A8.33,8.33,0,0,1,408.06,166.4Z"></path><path class="cls-2" d="M420,193.27a8.33,8.33,0,1,1,10.6,5.14A8.34,8.34,0,0,1,420,193.27Z"></path><path class="cls-2" d="M427.26,221.73a8.33,8.33,0,1,1,9.62,6.81A8.33,8.33,0,0,1,427.26,221.73Z"></path><path class="cls-2" d="M429.79,251a8.34,8.34,0,1,1,8.37,8.3A8.35,8.35,0,0,1,429.79,251Z"></path><path class="cls-2" d="M195.34,163.84a41,41,0,0,1,10.75,1.44c-.75-1.19-10.92-17.73-10.92-34.11,0,15.94-9.56,32-10.75,34l.11.13A41,41,0,0,1,195.34,163.84Z"></path><path class="cls-2" d="M184.3,165.36l.12-.2c-3.27-3.88-15.82-19.35-23.68-36.76,8,17.66,11.3,37.62,12,42.27a40.57,40.57,0,0,1,11.59-5.31Z"></path><path class="cls-2" d="M184.32,165.36l.21-.07-.11-.13-.12.2Z"></path><path class="cls-2" d="M171.38,171.61c-1.32-.15-20.64-2.58-33.43-12.86,12.42,10,19,27.53,19.75,29.68h.17A41,41,0,0,1,171.38,171.61Z"></path><path class="cls-2" d="M157.7,188.43c-5.07.11-25,.2-43.49-4.58C133,188.7,150.63,198.62,154.68,201a40.46,40.46,0,0,1,3.1-12.35A1,1,0,0,1,157.7,188.43Z"></path><path class="cls-2" d="M157.87,188.42h-.17a1,1,0,0,0,.08.21Z"></path><path class="cls-2" d="M154.56,202.63c-1,1-15,14.48-31,18,16.6-3.65,35.72,3.27,35.72,3.27h0a40.72,40.72,0,0,1-4.81-19.23Q154.5,203.65,154.56,202.63Z"></path><path class="cls-2" d="M277.71,189.52C258.65,193,238.49,191.4,233.8,191a40.81,40.81,0,0,1,2.35,12.75C240.42,201.6,258.69,193,277.71,189.52Z"></path><path class="cls-2" d="M233.21,189.4c.5-1.33,7.52-19.43,20.55-29.33-12.69,9.65-31.3,11.77-33.57,12,0,.06,0,.13,0,.18A40.92,40.92,0,0,1,233.21,189.4Z"></path><path class="cls-2" d="M220,172.09l.23,0c1.12-4.95,5.84-24.3,14.95-41.09-9.24,17-23.12,31.75-26.4,35.12a41.07,41.07,0,0,1,11.24,6Z"></path><path class="cls-2" d="M220,172.11l.17.14c0-.05,0-.12,0-.18l-.23,0Z"></path><path class="cls-2" d="M184.32,165.36h.26l-.05-.07Z"></path><path class="cls-2" d="M157.78,188.64h0l.18-.22h-.09Z"></path><path class="cls-2" d="M220,172.11l.15.21,0-.07Z"></path></g></g></svg> 