<svg xmlns="http://www.w3.org/2000/svg" width="40" height="40" fill="none"><path fill="#5353B8" d="M38.605 0c-.19 0-.465.087-.465.087-5.99 1.444-11.693 4.356-15.96 8.474-4.353 4.201-7.212 9.678-7.296 16.076v.014c0 2.513.009 4.204.886 6.919 0 0-5.381 7.579-5.465 7.703a.468.468 0 0 0-.072.262c0 .257.208.465.465.465.127 0 .25-.047.334-.13.085-.085 5.552-7.835 5.552-7.835C29.214 29.154 40 19.73 40 6.977c0-2.176-.233-4.38-.916-6.512C39.002.15 38.793 0 38.604 0Zm-1.381 1.323-8.721 12.296-2.63-6.933c3.337-2.425 7.254-4.24 11.35-5.363Zm1.134.014c.512 1.833.712 3.731.712 5.64 0 11.873-9.803 20.773-21.643 23.851l20.93-29.49Zm-13.27 5.945 2.76 7.253-11.365 16.032c-.617-2.165-.669-3.661-.669-5.916.08-6.128 2.796-11.358 7.006-15.421a28.038 28.038 0 0 1 2.267-1.948ZM.464 39.07a.464.464 0 1 0 0 .93h5.582a.464.464 0 1 0 0-.93H.465Z"/></svg>