<svg fill="none" height="71" viewBox="0 0 42 71" width="42" xmlns="http://www.w3.org/2000/svg"><path d="m20.4612 70.3123c-1.5872-2.4832-3.072-4.7136-4.464-6.9984-5.8496-9.6224-11.02403-19.5648-14.10883-30.4576-1.564796-5.5232-2.550397-11.12-1.363197-16.896 2.031997-9.91045 8.687997-15.648044 18.793627-15.9456439 8.2592-.2432021 15.0208 2.4959939 19.0272 10.2016439 2.2336 4.2912 3.0688 8.8768 2.5536 13.7088-.5824 5.4848-2.1024 10.7296-4.0704 15.8496-3.9584 10.304-9.2576 19.9136-15.3312 29.1072-.256.3872-.544.752-1.0368 1.4304zm.0736-36.9248c7.4528-.0256 13.408-6.0288 13.344-13.4528-.064-7.3696-6.0128-13.23204-13.4272-13.23204-7.3056 0-13.28963 6.03204-13.27043 13.38884.016 7.3536 6.00643 13.3216 13.35363 13.296z" fill="#bc6e44"/></svg>