<svg fill="none" height="75" viewBox="0 0 75 75" width="75" xmlns="http://www.w3.org/2000/svg">
    <g fill="#faf9f5">
        <path d="m74.8992 58.0976c-.0096 9.3568-7.4368 16.8-16.7776 16.8032-13.7643.0064-27.5275.0064-41.2896 0-9.408-.0032-16.8288-7.4368-16.832-16.8576v-41.1808c.0032-9.4272 7.4208-16.85440249 16.832-16.8575992 13.7643-.00640107 27.5264-.00640107 41.2864 0 9.3376.00319671 16.7712 7.4559892 16.7808 16.8031992zm-10.5824-20.5568c0-4.1024.0192-8.2016-.0032-12.3008-.0512-8.5216-6.3456-14.784-14.8512-14.7904-7.8784-.0043-15.7579-.0043-23.6384 0-9.0304.0032-15.2192 6.144-15.2384 15.152-.0171 7.9488-.0171 15.8997 0 23.8528.016 8.7872 6.2496 14.9888 15.0656 14.9984 7.9147.0043 15.8304.0043 23.7472 0 8.5888-.0064 14.864-6.24 14.9152-14.8256.0224-4.0288.0032-8.0576.0032-12.0864z"/>
        <path d="m14.7104 37.4127c0-4.0288-.0128-8.0576.0032-12.0864.0256-6.3328 4.4608-10.752 10.7936-10.7616 7.9872-.0107 15.9733-.0107 23.9584 0 6.2432.0096 10.7008 4.4768 10.7104 10.736.0149 8.1301.016 16.2592.0032 24.3872-.0128 6.1664-4.5152 10.6464-10.688 10.6528-8.0213.0107-16.0427.0096-24.064-.0032-6.2368-.0064-10.7072-4.496-10.7168-10.7328-.0021-4.064-.0021-8.128 0-12.192zm8.096-.0512c-.0672 7.9872 6.3808 14.5632 14.352 14.6432 8.1024.08 14.6624-6.3008 14.7488-14.3392.0864-8.0704-6.336-14.6816-14.3488-14.768-8.1152-.0864-14.6848 6.3552-14.752 14.464zm30.3488-12.048c1.3504-.016 2.4416-1.1392 2.4064-2.4736-.032-1.312-1.1008-2.3584-2.4096-2.3648-1.3632-.0032-2.4544 1.072-2.4512 2.4224.0032 1.3632 1.0912 2.4352 2.4544 2.416z"/>
        <ellipse cx="37.3951" cy="37.4511" rx="10.3937" ry="10.4"/>
    </g>
</svg>