<svg fill="none" height="65" viewBox="0 0 72 65" width="72" xmlns="http://www.w3.org/2000/svg"><path d="m.0195934 30.658c0-3.696.0288-7.392-.01919996-11.088-.01280004-1.0272.28479956-1.6416 1.17439656-2.0672 12.11841-5.7824 24.22401-11.60318 36.35521-17.350388.576-.271995 1.472-.15039784 2.08.131203 9.0368 4.188805 18.0512 8.435195 27.072 12.668785 1.0944.512 2.1792 1.0528 3.2896 1.52.9664.4032 1.4272 1.088 1.424 2.224-.0192 7.5712-.032 15.1392-.0128 22.7104 0 .9664-.4768 1.4304-1.1584 1.8528-2.8928 1.7888-5.8336 3.5008-8.6432 5.4336-2.5952 1.7824-5.2256 3.5904-7.5296 5.7728-4.3552 4.1184-9.3984 7.0304-14.3296 10.1504-3.6096 2.2784-2.2816 2.384-6.1632.1632-10.8032-6.176-21.5616-12.4384-32.34881-18.6528-.815997-.4704-1.19999656-1.0848-1.1903966-2.112.0352-3.7856.0128-7.5712.0128-11.3568zm35.7504066 30.2304c0-1.2288-.0736-2.0704.016-2.8928.1344-1.2864-.3328-1.9616-1.4048-2.5728-10.1472-5.7824-20.256-11.6416-30.38081-17.4688-.4-.2304-.8416-.3872-1.472-.672 0 1.248.0288 2.2176-.0096 3.184-.032.8608.2816 1.3568 1.0016 1.7728 8.15361 4.7264 16.27841 9.4976 24.42561 14.2368 2.4896 1.4496 5.0112 2.8288 7.824 4.4128zm-33.17441-39.3632c0 .832.064 1.4016-.0128 1.9456-.2368 1.6928.4128 2.5824 1.8432 3.3696 7.91041 4.3648 15.75681 8.8608 23.62241 13.3216 2.4992 1.4176 4.9856 2.8704 7.7472 4.464 0-.9152-.0736-1.616.016-2.2912.192-1.4464-.3552-2.2016-1.5648-2.8736-7.2416-4.0192-14.4352-8.1376-21.6416-12.2272-3.23521-1.8368-6.46081-3.6832-10.00961-5.7088zm32.95681 30.4992c.5888-3.216.4288-3.568-1.952-4.9216-9.8389-5.5872-19.6757-11.1733-29.51041-16.7584-.4128-.2336-.8512-.4128-1.3056-.6304-.6848 3.1712-.4544 3.7184 1.9904 5.0912l29.36001 16.496c.4256.24.8704.4448 1.4176.7232zm10.2592-20.0192c-2.928-1.936-5.6448-3.7664-8.4064-5.5168-.4032-.256-1.0624-.2784-1.5264-.1312-3.472 1.104-6.9248 2.2688-10.3744 3.44-.4352.1472-.8288.4352-1.3536.7168.2816.256.3872.3904.5216.4672 3.7536 2.1216 7.504 4.2528 11.28 6.3296.336.1856.9216.1728 1.2608-.0192 2.5824-1.4656 5.1392-2.992 7.6928-4.5184.304-.1824.5536-.4672.9056-.768zm-7.4592 27.7728c.2784.0256.368.0608.4352.0352.1984-.0683.3861-.1568.5632-.2656 4.9504-3.1808 9.9872-6.1856 14.2816-10.448 4.0704-4.0384 9.1648-6.432 13.8016-9.5552 1.6384-1.104 2.0992-2.5632 1.28-4.6816-.224.0768-.4672.1248-.6784.2368-4.5952 2.432-9.0272 5.1328-12.8928 8.8256-1.8464 1.7664-3.7376 3.5232-5.7952 4.9792-3.232 2.2848-6.6336 4.2912-9.936 6.464-.4352.288-.9344.8192-1.0112 1.312-.16.9856-.048 2.0256-.048 3.0976zm30.6208-40.8608-2.592 1.4752c-4.2944 2.4448-8.7392 4.64-12.288 8.3488-4.3936 4.5984-9.376 8.2368-14.912 11.0176-.3296.1664-.7488.5696-.7776.896-.0928 1.1648-.0352 2.3392-.0352 3.648.4096-.1376.6144-.1696.7808-.2688 4.4096-2.6144 8.6816-5.4144 12.384-9.1808 2.0288-2.064 4.2304-3.9968 6.5792-5.6 3.1936-2.1824 6.608-3.984 9.9136-5.9776.3648-.2176.8608-.592.9024-.9472.1216-1.0272.0448-2.0832.0448-3.4112zm.016 7.9488c-1.4784.8544-2.6976 1.5488-3.9072 2.2624-3.792 2.2272-7.7504 4.1952-10.8768 7.5136-4.1792 4.4416-9.0208 7.84-14.1408 10.8352-1.9104 1.12-2.1344 1.7952-1.5072 4.3584.2624-.0928.5536-.1344.7776-.288 3.984-2.7424 8.2368-5.1296 11.8688-8.3392 5.2352-4.6304 10.7552-8.6176 16.8992-11.6256.3584-.176.8096-.6208.8448-.9856.1088-1.12.0416-2.2624.0416-3.7312zm-64.52161-7.728.0096.3968c2.2304 1.2192 4.4416 2.4768 6.70401 3.6192.4096.2048 1.0688.0704 1.536-.1216 3.264-1.3408 6.512-2.7328 9.7568-4.1216.272-.1152.5024-.3456.9696-.6784-2.3136-1.3792-4.4448-2.6016-6.5248-3.92-.8288-.5216-1.5136-.592-2.3968-.1312-2.2944 1.1904-4.64001 2.2688-6.96321 3.4016-1.0368.5056-2.0608 1.0368-3.0912 1.5552zm10.50561 5.9264-.0448.3936c1.584.9056 3.1328 1.8944 4.7648 2.6784.6304.3008 1.5072.3616 2.1728.1568 3.4304-1.0592 6.832-2.24 10.2432-3.3856.3744-.1248.7328-.304 1.1744-.4896-.1888-.2688-.256-.4576-.384-.5376-1.8848-1.1744-3.7664-2.3584-5.68-3.4752-.3136-.1856-.832-.2176-1.168-.0768-3.7024 1.552-7.3888 3.152-11.0784 4.736zm41.648-13.6512c-1.6224-.8-3.0624-1.2864-4.2688-2.15039-2.72-1.9456-5.2384-1.85279-7.8976.15041-1.2832.96638-2.8064 1.56798-4.3136 2.38718.2528.336.3424.56.4992.6496 2.2496 1.2896 4.4896 2.5984 6.7808 3.7952.3808.1984 1.0528.0256 1.4784-.208 2.2016-1.2032 4.368-2.4768 6.5376-3.7408.3136-.1824.592-.4384 1.184-.8832zm-1.6128 12.5376c-2.368-1.4592-4.3776-2.7232-6.4224-3.9136-.2336-.1344-.7136.0832-1.024.2528-2.2656 1.2608-4.5216 2.5504-6.7712 3.84-.2624.1504-.4832.3808-.9856.7808 2.7648 1.6864 5.2928 3.2448 7.8496 4.7552.2656.1568.8.1664 1.0144-.0192 2.0352-1.7728 4.0288-3.6032 6.3392-5.696zm12.128-7.6352c-2.304-1.12-4.3296-2.176-6.416-3.0688-.5536-.24-1.392-.208-1.9264.08-2.2816 1.2288-4.4992 2.5952-6.736 3.9264-.3424.2048-.6432.4864-1.136.8608.5248.3328.864.5504 1.2096.7584 1.5072.9088 3.0496 1.7632 4.5184 2.7424.7008.4704 1.2288.432 1.9136.0064 2.4256-1.5104 4.8832-2.9568 7.3248-4.4352.3424-.2048.6592-.4576 1.248-.8704zm-21.5328 2.2464c-.4352-.3936-.5952-.592-.7936-.7072-2.0256-1.1744-4.032-2.4-6.112-3.4592-.5184-.2624-1.3696-.1952-1.9008.0864-2.2112 1.1712-4.3584 2.48-6.5216 3.7472-.224.1312-.416.3296-.7776.6272 2.4096 1.3728 4.6432 2.6624 6.9024 3.9104.256.144.6848.1664.944.0352 2.672-1.3408 5.328-2.7264 8.2592-4.24zm-26.8992-6.3168c2.6816 1.6608 5.0464 3.1552 7.4496 4.5728.2752.1632.8032.0032 1.1424-.1728 2.1088-1.0944 4.2016-2.2272 6.2912-3.3664.2688-.1472.4896-.3936.9344-.7648-1.5712-.8128-3.0208-1.3696-4.2688-2.2528-2.5408-1.80159-4.9472-1.83678-7.504-.0512-1.1424.7968-2.4832 1.2672-4.0448 2.0352zm11.3664-5.46878-.0128.4032c1.872.9728 3.7568 1.91679 5.6064 2.92798.7392.4032 1.3568.352 2.0864-.0448 2.048-1.12319 4.1376-2.15998 6.208-3.23838.3456-.1792.6688-.4032 1.296-.784-2.3744-1.1552-4.448-2.17281-6.5312-3.16481-.1696-.08319-.4288-.08319-.5984-.00319-2.688 1.29279-5.3728 2.59413-8.0544 3.904z" fill="#bc6e44"/></svg>