<svg xmlns="http://www.w3.org/2000/svg" width="117" height="95" fill="none"><g fill="#5353B8" clip-path="url(#a)"><path d="M39.84 41.308c7.061-7.496-3.517-18.065-11.018-11.01-7.06 7.495 3.517 18.065 11.019 11.01Zm-11.069-5.505c.252-7.345 10.88-7.345 11.133 0-.252 7.344-10.88 7.344-11.133 0ZM64.464 82.227c-1.463.025-1.463 2.204 0 2.23 1.462-.026 1.462-2.205 0-2.23Z"/><path d="M96.664 11.627H18.76c-.605 0-1.122.516-1.11 1.109v33.358a1.11 1.11 0 0 0 1.11 1.11c.605 0 1.11-.505 1.11-1.11v-32.25h75.684s.05 29.605.139 29.756a96.203 96.203 0 0 0-4.678.19c-.34-4.977-2.345-9.739-5.383-13.67-.832-.806-1.727-2.973-3.114-2.469-5.094 4.9-7.981 11.98-7.678 18.973-.026 0-.038 0-.064.012-.92-3.338-2.597-6.437-4.803-9.108-.567-.58-.996-1.524-1.891-1.587-.315 0-.58.176-.82.352-4.312 4.636-6.846 10.507-6.606 16.743-2.66 1.789-5.144 3.867-7.174 6.324-8.006-6.047-18.622-8.176-28.418-6.312-1.147.278-2.32.492-3.454.845-.467.138-.795.58-.795 1.07 0 .605.505 1.122 1.11 1.109 3.29-.87 6.67-1.5 10.174-1.461 7.136.025 14.348 2.18 20.021 6.55-4.526 6.287-4.299 14.916.366 21.051H19.87v-31.23c-.013-.453-.53-.995-.996-1.007-.681-.063-1.223.504-1.236 1.159V83.32c0 .592.517 1.121 1.11 1.109H55.55c1.6-.076 1.387-2.42-.227-2.23-8.07-9.386-3.846-20.245 5.572-26.62.807 4.775 3.14 9.386 6.594 12.787v7.458c.025 1.462 2.207 1.462 2.232 0v-8.591c3.82-4.384 6.064-10.18 5.762-15.974 1.134 4.51 3.517 8.654 6.694 12.03v12.548c.025 1.461 2.207 1.461 2.232 0V62.484c4.186-4.8 6.505-10.305 6.67-16.478 1.475-.1 2.975-.163 4.45-.176v36.408h-26.64c-1.45 0-1.475 2.204 0 2.23h27.75c.592 0 1.121-.517 1.109-1.11V12.762c0-.592-.517-1.121-1.11-1.109l.026-.025ZM68.082 65.772c-6.897-8.012-6.922-18.985 0-27.035 6.871 7.887 6.947 19.023 0 27.035Zm16.34-6.853v-7.546c-.026-1.461-2.207-1.461-2.232 0v8.49c-7.2-8.792-6.632-21.126.756-29.503 7.06 7.95 7.994 19.841 1.463 28.56h.012Z"/><path d="M113.167 81.57c-1.412-5.454 2.484-5.946 2.484-11.577s-2.522-5.631-2.522-11.25c0-5.618 2.522-5.63 2.522-11.262 0-5.631-2.522-5.631-2.522-11.25s2.522-5.631 2.522-11.25c0-5.618-2.522-5.618-2.522-11.25 0-5.63 6.443-8.705 2.055-12.232-5.421-4.384-7.791 2.23-14.801 2.242-7.01 0-7.01-2.52-14.02-2.52s-6.997 2.52-14.007 2.52-7.01-2.52-14.007-2.52c-6.998 0-6.998 2.52-14.008 2.52-7.01 0-7.01-2.52-14.007-2.52s-6.997 2.52-14.007 2.52C9.317 3.73 6.947-2.885 1.525 1.5-2.862 5.026 3.58 8.113 3.58 13.744c0 5.631-2.521 5.631-2.521 11.262 0 5.632 2.521 5.632 2.521 11.25 0 5.619-2.521 5.632-2.521 11.263S3.58 53.15 3.58 58.769c0 5.618-2.521 5.63-2.521 11.25 0 5.618 2.521 5.618 2.521 11.25 0 5.63-6.442 8.704-2.055 12.232C2.887 94.597 4.047 95 5.144 95c3.303 0 5.925-3.742 11.195-3.742 7.01 0 7.01 2.52 14.02 2.52s6.997-2.52 14.008-2.52c7.01 0 7.01 2.52 14.007 2.52s6.997-2.52 14.007-2.52 6.997 2.52 14.007 2.52 6.997-2.52 14.007-2.52c5.258 0 7.893 3.742 11.183 3.742 1.085 0 2.257-.416 3.606-1.5 4.388-3.527-.353-5.504-2.004-11.93h-.013Zm.593 10.167c-2.434 1.827-3.014.857-5.359-.264-4.652-3.137-11.17-3.011-15.785-1.084-1.677.605-3.126 1.121-6.228 1.121-3.101 0-4.551-.516-6.228-1.121-1.816-.655-3.87-1.398-7.766-1.398s-5.951.743-7.767 1.398c-1.677.605-3.127 1.121-6.228 1.121-3.102 0-4.552-.516-6.24-1.121-1.816-.655-3.871-1.398-7.78-1.398-3.908 0-5.95.743-7.766 1.398-1.677.605-3.127 1.121-6.241 1.121s-4.564-.516-6.241-1.121c-1.816-.655-3.87-1.398-7.779-1.398-3.518 0-6.014 1.373-8.019 2.481-2.345 1.122-2.912 2.08-5.358.265-.933-.743-1.034-.831.48-3.389 2.924-4.107 3.076-9.561.957-13.63-.592-1.323-1.059-2.369-1.059-4.7 0-2.33.467-3.376 1.06-4.699.68-1.524 1.462-3.25 1.462-6.55 0-3.301-.77-5.027-1.463-6.551-.592-1.323-1.059-2.369-1.059-4.7.089-5.24 2.61-5.379 2.522-11.262.088-5.883-2.433-6.009-2.522-11.25 0-2.33.467-3.376 1.06-4.698.68-1.525 1.462-3.263 1.462-6.551 0-2.96-1.349-5.254-2.42-7.08-1.514-2.558-1.388-2.658-.48-3.39 2.433-1.826 3.013-.856 5.358.265 4.653 3.137 11.171 3.011 15.785 1.084 1.677-.605 3.127-1.121 6.229-1.121 6.707.063 6.757 2.57 14.007 2.52 7.25.05 7.3-2.457 14.007-2.52 6.707.063 6.758 2.57 14.007 2.52 7.25.05 7.3-2.457 14.008-2.52 3.114 0 4.563.516 6.24 1.12 1.816.656 3.87 1.4 7.779 1.4 3.518 0 6.014-1.374 8.019-2.483 2.345-1.12 2.912-2.078 5.358-.264.933.743 1.034.831-.479 3.389-2.925 4.107-3.076 9.561-.958 13.63.592 1.323 1.059 2.369 1.059 4.7-.088 5.24-2.61 5.379-2.522 11.25-.088 5.883 2.434 6.009 2.522 11.25-.088 5.24-2.61 5.378-2.522 11.262-.088 5.883 2.434 6.009 2.522 11.25-.177 5.177-4.047 5.807-2.408 12.144.668 2.595 1.765 4.51 2.647 6.034.959 1.671 1.005 2.855.139 3.553l-.012-.013Z"/></g><defs><clipPath id="a"><path fill="#fff" d="M0 0h117v95H0z"/></clipPath></defs></svg>