<svg xmlns="http://www.w3.org/2000/svg" width="40" height="40" fill="none"><path fill="#5353B8" d="M10.72 0a.469.469 0 0 0-.32.13c-.08.077-3.175 3.176-3.259 3.257a.464.464 0 0 0 .001.67c.084.08 4.044 4.17 4.044 4.17-2.123 2.415-3.256 5.407-3.256 8.517 0 3.365 1.192 7.239 3.954 10a13.432 13.432 0 0 0 9.07 3.94v3.735H13.51a3.723 3.723 0 0 0-3.72 3.72v1.396c0 .243.221.465.465.465H32.58a.483.483 0 0 0 .465-.465V38.14a3.723 3.723 0 0 0-3.72-3.721h-7.442v-3.736c3.299-.103 6.63-1.31 9.171-3.852a.483.483 0 0 0 0-.654l-3.387-3.386 4.317-4.332c.272-.261.028-.82-.349-.8a.47.47 0 0 0-.32.146l-7.441 7.442a.48.48 0 0 0 .014.654.48.48 0 0 0 .654 0L27 23.445l3.023 3.023c-2.424 2.238-5.52 3.3-8.605 3.3a12.507 12.507 0 0 1-8.88-3.678C9.99 23.544 8.86 19.888 8.86 16.744c0-2.86 1.032-5.608 2.98-7.849l9.244 9.564a.484.484 0 0 0 .669 0l3.256-3.255a.483.483 0 0 0 0-.655S11.11.172 10.997.087A.45.45 0 0 0 10.72 0Zm0 1.12 13.3 13.75-2.602 2.6-13.3-13.75 2.603-2.6Zm2.791 34.229h15.814a2.774 2.774 0 0 1 2.791 2.79v.93H10.721v-.93a2.774 2.774 0 0 1 2.79-2.79Z"/></svg>