<svg xmlns="http://www.w3.org/2000/svg" width="53" height="32" fill="none"><path fill="#5353B8" d="M1.15.014a.603.603 0 0 0-.353.208.587.587 0 0 0-.135.384v17.178a.587.587 0 0 0 .116.343.6.6 0 0 0 .297.212c1.52.5 3.084 1.476 4.207 2.48-.328.432-.646.89-.94 1.407a.585.585 0 0 0 .189.778l10.215 7.108c1.275.887 2.293 1.296 3.943 1.296 1.17 0 2.242-.397 3.155-1.055.523.259 1.222.618 1.99.944.869.368 1.783.703 2.667.703 1.518 0 3.335-.461 4.544-1.296l12.018-8.293a.59.59 0 0 0 .02 0c2.568-1.805 5.856-2.75 8.9-4.09a.599.599 0 0 0 .357-.537V.606a.585.585 0 0 0-.286-.518.607.607 0 0 0-.597-.019l-6.403 3.443C40.929 2.305 36.559.612 32.51.606c-2.146 0-4.076.83-5.915 2.647C25.348 1.508 23.149.606 21.093.606c-4.565 0-7.806 1.395-13.145 2.906L1.545.07A.609.609 0 0 0 1.15.014Zm.714 1.592 5.727 3.072c.14.07.302.083.451.037 5.58-1.561 8.659-2.924 13.05-2.924 1.762 0 3.697.837 4.64 2.276l-6.874 6.775a.59.59 0 0 0-.094.685c.547 1.025 1.15 1.972 1.916 2.684.765.712 1.72 1.204 2.817 1.204 3.588 0 7.01-3.117 8.844-4.924a.595.595 0 0 0 .124-.65.595.595 0 0 0-.33-.32.612.612 0 0 0-.658.137c-1.772 1.746-5.142 4.572-7.98 4.572-.751 0-1.38-.302-1.991-.87-.521-.485-.995-1.232-1.446-2.018l6.873-6.775a.583.583 0 0 0 .019-.018c1.84-2.044 3.51-2.758 5.558-2.758 3.773.006 8.178 1.692 12.45 2.924.15.046.311.033.45-.037l5.728-3.072v15.77c-2.695 1.151-5.706 2.105-8.3 3.795l-8.093-8.533a.597.597 0 0 0-.432-.268.608.608 0 0 0-.632.368.584.584 0 0 0 .2.696l7.943 8.385-11.455 7.904c-.883.61-2.622 1.092-3.868 1.092-.56 0-1.393-.27-2.197-.61a27.563 27.563 0 0 1-1.502-.704 8.284 8.284 0 0 0 1.878-3.258.584.584 0 0 0-.245-.666l-12.018-8.293a.607.607 0 0 0-.338-.092c-2.123 0-4.251.831-6.027 2.702-1.138-.999-2.64-1.9-4.188-2.48V1.606Zm10.065 16.789 11.417 7.885c-.778 2.11-2.604 3.943-4.657 3.943-1.48 0-2.077-.264-3.267-1.092l-9.708-6.756c1.76-2.813 3.948-3.935 6.215-3.98Z"/></svg>