<svg xmlns="http://www.w3.org/2000/svg" width="40" height="40" fill="none"><path fill="#5353B8" d="M17.78 0c-.31 0-.466.27-.466.465v5.872a5.579 5.579 0 0 0-2.79 4.826c0 .374.045.736.116 1.09-.27.447-13.067 23.24-13.125 23.43a.424.424 0 0 0-.015.131c0 .046.002.089.015.13.055.188.923 3.712.944 3.765a.468.468 0 0 0 .553.276c.198-.053 3.72-.93 3.72-.93a.47.47 0 0 0 .291-.218l6.308-10.814c2.118.85 4.482 1.28 6.774 1.28 2.291 0 4.656-.43 6.773-1.28l6.308 10.814a.47.47 0 0 0 .29.218s3.524.877 3.722.93a.468.468 0 0 0 .552-.276c.021-.053.89-3.577.945-3.764a.46.46 0 0 0 .014-.131.424.424 0 0 0-.014-.13c-.059-.19-12.855-22.984-13.125-23.431.07-.354.116-.716.116-1.09a5.579 5.579 0 0 0-2.79-4.826V.465c0-.195-.157-.465-.466-.465H17.78Zm.464.93h3.721v4.971a5.53 5.53 0 0 0-1.86-.32 5.53 5.53 0 0 0-1.86.32V.931Zm1.86 5.582a4.644 4.644 0 0 1 4.652 4.65 4.644 4.644 0 0 1-4.651 4.652 4.644 4.644 0 0 1-4.652-4.651 4.644 4.644 0 0 1 4.652-4.651Zm-5.087 6.933a5.616 5.616 0 0 0 3.881 3.168L6.297 38.198l-3.067.77-.77-3.096 12.557-22.427Zm10.175 0L37.75 35.872l-.77 3.096-3.067-.77L21.31 16.613a5.616 5.616 0 0 0 3.88-3.168Zm-5.276 3.285c.063.002.125.014.189.014s.125-.012.189-.014l6.104 10.48c-1.962.767-4.162 1.162-6.293 1.162-2.132 0-4.332-.395-6.294-1.163l6.105-10.48Z"/></svg>