<svg xmlns="http://www.w3.org/2000/svg" width="40" height="40" fill="none"><path fill="#5353B8" d="M14.872 0c-.16 0-.322.09-.465.174C9.344 3.17 6.5 8.714 6.5 13.954c0 2.816.694 5.591 2.195 8.168 2.416 4.149 6.525 6.846 10.828 7.762v4.535h-3.197c-1.271 0-2.426.375-3.285 1.032-.86.656-1.425 1.616-1.425 2.688v1.396c0 .243.222.465.465.465h15.814a.483.483 0 0 0 .465-.465V38.14c0-1.073-.565-2.033-1.424-2.69-.859-.656-2.014-1.031-3.285-1.031h-3.198v-4.36a15.51 15.51 0 0 0 2.326.174c2.803 0 5.581-.702 8.14-2.166a.484.484 0 0 0 .174-.64l-2.282-3.895a11.135 11.135 0 0 0 4.666-9.113c-.011-6.16-5.003-11.152-11.163-11.163a11.116 11.116 0 0 0-4.71 1.032S15.31.284 15.262.21A.465.465 0 0 0 14.872 0Zm-.203 1.12 2.107 3.604c-3.356 1.917-5.618 5.521-5.61 9.665.01 6.16 5.032 11.181 11.192 11.192 2.075.004 4.02-.554 5.683-1.54l1.991 3.43a15.306 15.306 0 0 1-7.253 1.831c-5.051 0-10.426-2.776-13.27-7.66a15.066 15.066 0 0 1-2.079-7.688c0-4.824 2.62-9.987 7.239-12.835Zm7.645 3.066a10.263 10.263 0 0 1 10.247 10.247c.01 5.657-4.547 10.229-10.203 10.218-5.657-.01-10.252-4.605-10.262-10.261-.01-5.657 4.561-10.214 10.218-10.204Zm-5.988 31.163h7.325c1.082 0 2.043.327 2.718.843.675.516 1.061 1.197 1.061 1.947v.93H12.547v-.93c0-.75.385-1.431 1.06-1.947.676-.516 1.636-.843 2.719-.843Z"/></svg>