<svg xmlns="http://www.w3.org/2000/svg" width="108" height="95" fill="none"><g clip-path="url(#a)"><path fill="#5353B8" d="M53.743.025c-.239.05-.453.175-.628.35-.616.612-1.997 1.162-3.767 1.637-1.77.475-3.893.9-5.965 1.637s-4.13 1.812-5.688 3.637c-1.557 1.824-2.511 4.373-2.511 7.735 0 .687.577 1.237 1.268 1.237.251 0 .49-.075.69-.212 1.558-1.037 4.785-2.012 7.962-2.462 3.063-.438 6.115-.362 7.647.075v4.336L25.829 31.392c-.44.212-.716.65-.703 1.137v17.295L.728 61.384c-.44.212-.715.65-.703 1.137v23.744c0 .687.54 1.262 1.243 1.262.703 0 1.268-.537 1.268-1.237V63.283l22.603-10.66v39.878H1.268C.577 92.5 0 93.038 0 93.738 0 94.438.54 95 1.243 95h105.514c.691 0 1.256-.562 1.256-1.25V62.51a1.27 1.27 0 0 0-.704-1.138l-24.41-11.56V32.517a1.27 1.27 0 0 0-.703-1.137L55.275 17.983V1.275A1.248 1.248 0 0 0 54.044 0c-.1 0-.201 0-.301.025Zm-.992 3.524v7.648c-2.223-.5-5.01-.5-8.012-.075-2.46.35-4.784 1-6.793 1.837.29-1.675.829-3.062 1.645-4.024 1.155-1.35 2.775-2.262 4.634-2.924 1.858-.662 3.892-1.062 5.763-1.562.967-.263 1.896-.525 2.75-.9h.013Zm1.255 16.596 26.37 13.121v59.247H67.818V70.17c0-7.048-6.241-12.647-13.813-12.647-7.571 0-13.812 5.599-13.812 12.647v22.344H27.637V33.266l26.37-13.121Zm0 12.371c-5.537 0-10.045 4.487-10.045 9.998 0 5.51 4.508 9.997 10.045 9.997 5.538 0 10.046-4.486 10.046-9.997s-4.508-9.998-10.046-9.998Zm0 2.5c4.182 0 7.534 3.336 7.534 7.498 0 4.161-3.352 7.498-7.534 7.498-4.181 0-7.534-3.337-7.534-7.498 0-4.162 3.353-7.498 7.534-7.498Zm28.88 17.62 22.603 10.66v29.217H82.887V52.636Zm-28.88 7.373c6.341 0 11.301 4.574 11.301 10.147v22.345H42.705V70.156c0-5.586 4.96-10.147 11.301-10.147Z"/></g><defs><clipPath id="a"><path fill="#fff" d="M0 0h108v95H0z"/></clipPath></defs></svg>