<svg fill="none" height="59" viewBox="0 0 74 59" width="74" xmlns="http://www.w3.org/2000/svg"><g fill="#bc6e44"><path d="m34.5534 22.1369c.5824-1.712.9952-3.3216 1.8944-4.816 1.8208-3.0272 4.8352-4.9344 8.112-5.6608 1.136-.2528 2.2432-.416 3.3792-.3616 3.104.1504 5.8496 1.0656 8.1728 3.1296 1.6384 1.4528 2.6944 3.1776 3.6224 5.056.4576.9248.3712 1.9104.6656 2.8512.256.8096.416 1.8848-.2208 2.768-.4608.6368-.1248 1.3984-.3776 2.1344-.3904 1.152-1.2896 1.9808-1.7184 3.088-.2592.672-.3392 1.0688.1952 1.5968.4832.4736 1.0784 1.0016 1.2256 1.5904.368 1.4848 1.616 1.9456 2.8064 2.6048 2.7104 1.5072 4.6816 3.6672 5.7024 6.4736.4672 1.2864.9312 2.6912.832 4.0064-.1056 1.3856-.4192 2.8192-.9536 4.1792-.5216 1.3312-1.3216 2.4416-2.3616 3.456-1.4432 1.408-2.9152 2.7392-4.9536 3.3824-.9216.288-1.8176.5664-2.7936.7296-4.592.768-9.2096.2656-13.8144.3616-4.5856.0928-9.1776.0192-13.7664.0192-4.6624 0-9.3312-.0928-13.9904.0416-2.128.064-4.176-.3424-6.2496-.528-1.9136-.1696-3.6224-1.2288-5.1392-2.3648-1.3056-.9792-2.43839-2.1632-3.27679-3.5072-.646404-1.04-1.270406-2.2272-1.385606-3.392-.2048-2.1312-.352001-4.2976.473599-6.4128 1.196797-3.0688 3.324797-5.3088 6.399997-6.8096 2.064-1.008 2.6208-1.488 3.2-3.6672.3712-1.3824 1.1616-2.5312 1.9744-3.5936 2.0768-2.7104 4.7616-4.8448 8.1504-6.0096 1.5488-.5344 3.0752-1.2064 4.8-1.2288.6784-.0096 1.36-.24 2.0352-.4 1.1872-.2752 2.2272.4352 3.3696.416 1.088-.0224 2.0576.2784 2.9952.768.2304.1216.5664.064.9952.0992zm-22.0384 14.448c-.704.464-1.296 1.152-1.984 1.2512-2.1632.3136-3.45919 1.7056-4.92479 2.9728-1.6128 1.3952-2.29121 3.2352-2.36801 5.0976-.1504 3.504 1.3888 6.4128 4.72 8.2144 1.4976.8064 3.1264 1.3312 4.9792 1.3088 6.4384-.0832 12.8768-.032 19.3152-.032 7.9168 0 15.8368-.048 23.7536.0384 1.5616.0192 2.8992-.5632 4.2592-.9664 1.8816-.5568 4-3.2128 4.6592-5.1616.5504-1.632.7392-3.3568.3232-4.9856-.3136-1.2128-1.0624-2.3904-1.8656-3.4112-.6144-.7872-1.5648-1.3728-2.4544-1.92-.736-.4544-1.616-.6944-2.4032-1.0784-.7936-.3872-1.3856-.88-1.6384-1.808-.2496-.912-.7776-1.7952-1.3504-2.5824-1.1392-1.5616-2.9952-2.2336-4.8096-2.6144-1.7248-.3648-3.5488-.144-5.1584.7936-.816.4736-1.6768.8768-2.6368 1.376-.9088-1.0464-1.8976-1.9584-2.5888-3.04-1.2576-1.9712-3.2-3.1136-5.2384-4.1792-1.2768-.6688-2.6304-1.0432-4.096-1.3088-2.6016-.4768-5.1168-.5152-7.952.336-3.5552 1.0688-6.4864 2.8992-8.4384 5.8912-1.1104 1.7056-2.2688 3.4656-2.1024 5.808zm42.4096-7.8816c2.224-1.376 1.6416-3.9168 2.4512-5.9328-.8352-.9472-.56-2.2208-1.1744-3.2896-1.1456-2-2.6368-3.5968-4.88-4.4224-1.7984-.6592-3.5968-1.1904-5.6704-.5024-1.7344.5792-3.4048 1.1104-4.7296 2.3584-1.424 1.3408-2.6272 2.7776-2.6496 4.7904-.9696 1.1264-.2784 1.968.7168 2.4512 2.0192.9856 3.5936 2.3488 4.7232 4.1472 1.7152.2176 3.2576-.3392 4.8352-.6304.3456-.064.8864-.2624 1.008-.128.5472.5824 1.232.2848 1.8432.3968 1.1488.2144 2.2848.4896 3.5264.7616z"/><path d="m34.3587 16.0057c-1.1936 2.3392-1.3792 2.4032-3.632 1.3184-1.2704-.6144-2.4928-1.3376-3.8144-1.8304-.5152-.192-.8544-.4672-1.1872-.7904-.4768-.4544-.464-1.3152-.048-1.8144.7168-.8576 1.0048-.9536 1.9712-.5184 1.472.6592 2.9568 1.2992 4.3776 2.0416.848.4448 1.584 1.072 2.3328 1.5936z"/><path d="m71.7243 20.3576 1.2896 1.2096c-.1184.4384-.0832 1.1392-.4256 1.4016-.5536.4192-1.3472.7296-2.0608.768-1.9104.1024-3.8272.0512-5.744.0288-.7744-.0128-1.1264-.384-1.1872-1.1104-.1216-1.4528.2048-1.7216 1.7856-1.808 2.1472-.1184 4.2912-.3264 6.3424-.4896z"/><path d="m35.3021 3.79724c2.0544 1.4464 3.0144 3.5936 4.4672 5.3824.7392.90876.0768 2.33596-1.104 2.50236-.2976.0416-.6976-.1248-.9504-.3136-1.0784-.8032-1.8016-1.88796-2.5504-2.94716-.4224-.592-.7232-1.2896-1.2448-1.7824-.48-.4544-.5568-.9088-.5408-1.4688.0352-1.0848.2592-1.2896 1.5872-1.3728.144-.0064.2912 0 .336 0z"/><path d="m47.9137.898376.6528 6.784004-1.2736 1.1936c-.4736-.112-1.184-.0864-1.504-.4064-.4384-.432-.784-1.12-.8128-1.7152-.1024-1.9232-.08-3.856-.0192-5.785603.0288-.8672 1.28-1.264001 2.1728-.720001.3616.2208.656.540801.784.6496z"/><path d="m60.099 3.74955c-.6784 1.328-1.4304 2.4608-1.872 3.7632-.3008.896-.96 1.696-1.5104 2.50875-.3328.4896-1.392.6112-1.9392.2848-.8544-.50875-1.1744-1.14875-.8064-1.84635.9632-1.8336 1.9712-3.6448 2.9664-5.4624.0864-.1568.1728-.3392.3168-.4416.7424-.5344 1.7664-.3264 2.3456.4608.1568.2112.2976.4352.4992.7328z"/><path d="m69.5829 11.6233c-1.1748.9185-2.334 1.629-3.2832 2.6242-.6503.6858-1.5852 1.1336-2.4268 1.6389-.5081.3038-1.52-.0322-1.8787-.5588-.5605-.8214-.5811-1.5366.0466-2.0142 1.646-1.2571 3.3233-2.4751 4.9916-3.70417.1444-.1058.2997-.23482.4734-.26702.8984-.17187 1.7395.44819 1.9331 1.40609.0532.2577.0865.5201.144.875z"/><path d="m63.4203 29.0295 1.2864.5696c1.536.6912 3.0688 1.3856 4.5984 2.0832.2464.112.496.2368.7072.3968.464.352.8928.7552.6848 1.3824-.1984.5952-1.1904 1.1712-1.8656 1.1296-.2112-.0128-.4512.0128-.6304-.0672-1.7792-.8106-3.5499-1.6373-5.312-2.48-.2464-.1184-.3968-.4128-.6336-.5696-.688-.4544-.5408-1.1488-.368-1.6736.1728-.528.7936-.7712 1.5328-.7712z"/><path d="m9.80178 50.7542c-2.336.0768-2.8416-.2848-3.5296-2.1344-1.5712-4.24 1.3856-7.1584 4.63042-8.5504.368-.16.864-.0832 1.296-.064.7744.0352 1.1232.3616 1.184 1.1104.0352.4064.0064.816.0064 1.3344-.7264.352-1.4208.8416-2.1984 1.0304-1.42722.3456-1.47842 1.632-2.12162 2.4896-.5312.7104.3264 1.3088.576 1.952.1408.3584.58562.6784.57602 1.0048-.0224.6208-.27202 1.2384-.41922 1.8272z"/><path d="m19.907 36.0588c-2.1825-.8363-2.508-1.3659-2.4238-3.3375.1984-4.5174 4.0564-6.0587 7.5872-6.0815.4012-.0045.8285.2588 1.2191.4443.7.3331.8947.7693.6599 1.483-.1253.3882-.3109.7544-.5122 1.2322-.8061.0423-1.6361.2238-2.426.0959-1.4494-.2357-1.9961.9299-2.9219 1.4704-.7653.4484-.2074 1.3328-.2271 2.0225-.0094.3849.2762.8526.1406 1.1496-.2617.5634-.7315 1.0356-1.0958 1.5211z"/></g></svg>