<svg xmlns="http://www.w3.org/2000/svg" width="95" height="95" fill="none"><path fill="#5353B8" d="M47.5 0C21.28 0 0 21.28 0 47.5S21.28 95 47.5 95 95 73.72 95 47.5C95 23.59 77.31 3.784 54.3.483a1.116 1.116 0 1 0-.31 2.21C75.929 5.84 92.79 24.678 92.79 47.5c0 25.026-20.264 45.29-45.29 45.29-25.027 0-45.256-20.264-45.256-45.29S22.474 2.21 47.5 2.21a1.105 1.105 0 1 0 0-2.21Zm-.138 12.117a1.105 1.105 0 0 0-.967 1.139v4.418a1.104 1.104 0 1 0 2.21 0v-4.418a1.104 1.104 0 0 0-1.243-1.14Zm24.406 9.942a1.105 1.105 0 0 0-.76.345l-23.68 23.68-21.369-12.806a1.106 1.106 0 0 0-1.706 1.229 1.104 1.104 0 0 0 .602.67l22.093 13.255a1.105 1.105 0 0 0 1.346-.172l24.302-24.303a1.105 1.105 0 0 0-.828-1.898Zm-58.72 24.336a1.109 1.109 0 1 0 .208 2.21h4.418a1.105 1.105 0 1 0 0-2.21h-4.418a1.102 1.102 0 0 0-.207 0Zm64.07 0a1.109 1.109 0 1 0 .208 2.21h4.418a1.105 1.105 0 1 0 0-2.21h-4.418a1.102 1.102 0 0 0-.208 0ZM47.362 76.186a1.105 1.105 0 0 0-.967 1.14v4.418a1.104 1.104 0 1 0 2.21 0v-4.418a1.105 1.105 0 0 0-1.243-1.14Z"/></svg>