<svg xmlns="http://www.w3.org/2000/svg" width="36" height="40" fill="none"><path fill="#5353B8" d="M12.005.002a.465.465 0 0 0-.378.465V14.29L.988 33.256C.394 34.311 0 35.31 0 36.28c0 1.123.488 2.087 1.323 2.733.834.645 1.988.988 3.328.988h23.255a.468.468 0 0 0 .435-.286.465.465 0 0 0-.436-.644H4.651c-1.184 0-2.134-.3-2.762-.785-.627-.486-.959-1.143-.959-2.006 0-.707.317-1.586.872-2.572l3.852-6.846a.463.463 0 0 0 .043-.058c1.79-2.237 3.767-3.081 5.93-3.081 1.817 0 3.439 1.076 5.13 2.238 1.693 1.162 3.452 2.413 5.567 2.413 2.417 0 4.089-.846 6.497-3.082l4.724 8.416c.555.986.872 1.865.872 2.572 0 .863-.332 1.52-.96 2.006-.627.486-1.577.785-2.76.785a.464.464 0 0 0-.437.644.466.466 0 0 0 .436.286c1.34 0 2.494-.343 3.328-.988.835-.646 1.323-1.61 1.323-2.733 0-.97-.395-1.968-.988-3.023L23.719 14.29V.467a.465.465 0 0 0-.464-.465H12.092a.465.465 0 0 0-.087 0Zm.552.93H22.79V14.42a.466.466 0 0 0 .059.218l5.508 9.81c-2.432 2.298-3.759 2.994-6.032 2.994-1.74 0-3.334-1.089-5.028-2.252-1.695-1.164-3.491-2.398-5.669-2.398-1.561 0-3.076.442-4.476 1.395l5.203-9.302h4.39a.464.464 0 1 0 0-.93h-4.187v-3.72h3.256a.466.466 0 1 0 0-.931h-3.256v-3.72h4.186a.465.465 0 1 0 0-.931h-4.185V.933Z"/></svg>