<svg xmlns="http://www.w3.org/2000/svg" version="1.1" xmlns:xlink="http://www.w3.org/1999/xlink" width="100" height="100"><svg width="100" height="100" viewBox="0 0 100 100" fill="none" xmlns="http://www.w3.org/2000/svg">
<path d="M4.92209 56.7963C3.41103 56.7963 1.92219 56.7296 0.444458 56.6407C0.800002 59.2855 1.34442 61.8635 2.08885 64.3638C3.02215 64.3971 3.96657 64.4082 4.91099 64.4082C8.31088 64.4082 11.6441 64.2193 14.8996 63.8526C15.6218 61.0523 16.5995 58.3187 17.8106 55.6406C13.6663 56.3851 9.35529 56.7963 4.91099 56.7963H4.92209Z" fill="#BFBFFD"></path>
<path d="M47.0652 56.0918C42.4209 58.8032 37.3099 61.0812 31.8435 62.837C30.8101 65.6706 30.0991 68.6042 29.7546 71.6157C33.8212 70.6267 37.7433 69.3932 41.4987 67.9486C42.5653 63.737 44.4542 59.7477 47.0652 56.0918Z" fill="#BFBFFD"></path>
<path d="M54.0538 75.8542C54.0538 71.1648 55.4094 66.7088 57.8315 62.6973C53.4094 65.4864 48.6651 67.8978 43.6542 69.9091C43.2542 71.8427 43.0542 73.8318 43.0542 75.8542C43.0542 77.8766 43.2653 79.8546 43.6542 81.7993C48.6651 83.8106 53.4094 86.222 57.8315 89.0111C55.4094 84.9996 54.0538 80.5436 54.0538 75.8542Z" fill="#BFBFFD"></path>
<path d="M20.9883 54.9932C19.6105 57.738 18.4994 60.5716 17.6772 63.483C21.9104 62.8718 25.9992 61.9495 29.8991 60.7605C31.5435 56.6823 33.8212 52.8041 36.6656 49.2148C31.9213 51.7262 26.6436 53.6931 20.9883 54.9932Z" fill="#BFBFFD"></path>
<path d="M29.7546 80.0742C30.0991 83.0856 30.799 86.0193 31.8435 88.864C37.3211 90.6198 42.4209 92.8978 47.0652 95.6092C44.4653 91.9421 42.5653 87.9528 41.4987 83.7413C37.7433 82.2967 33.8212 81.0632 29.7546 80.0742Z" fill="#BFBFFD"></path>
<path d="M4.92206 46.6238C3.29989 46.6238 1.71105 46.5349 0.144428 46.4015C0.0555423 47.5906 0 48.7907 0 50.0019C0 51.3687 0.0666517 52.7133 0.177759 54.0579C1.74438 54.169 3.32211 54.2357 4.92206 54.2357C9.87746 54.2357 14.6662 53.7134 19.2216 52.7689C21.1882 49.0352 23.6437 45.4459 26.5658 42.0566C20.2438 44.9569 12.8329 46.6238 4.92206 46.6238Z" fill="#BFBFFD"></path>
<path d="M33.1323 91.9844C34.1323 94.129 35.3323 96.207 36.6989 98.2073C40.721 99.3185 44.9431 99.9297 49.3096 99.9963C44.4986 96.7738 39.0655 94.0624 33.1434 91.9844H33.1323Z" fill="#BFBFFD"></path>
<path d="M30.7545 14.847C30.7545 11.4245 29.5101 8.2019 27.3546 5.42383C24.3214 6.96844 21.4659 8.81307 18.8215 10.9244C19.4104 12.1468 19.7437 13.4691 19.7437 14.8582C19.7437 17.9918 18.1549 20.9032 15.2661 23.0701C12.744 24.9592 9.4774 26.0704 5.97751 26.2594C4.67755 28.6707 3.57758 31.2043 2.67761 33.8379C3.41092 33.8824 4.15535 33.9157 4.91089 33.9157C19.1549 33.9157 30.7434 25.3704 30.7434 14.8582L30.7545 14.847Z" fill="#BFBFFD"></path>
<path d="M17.7772 88.2324C22.2326 91.9884 27.3325 94.9887 32.9101 97.0111C31.7434 95.0443 30.7324 93.0107 29.899 90.9327C26.0214 89.7548 21.966 88.8436 17.7772 88.2324Z" fill="#BFBFFD"></path>
<path d="M8.04419 77.1836C9.86635 79.9839 11.9441 82.5953 14.2773 84.9733C13.7996 82.5064 13.5329 79.995 13.4551 77.4614C11.6774 77.3169 9.86636 77.2392 8.05531 77.1836H8.04419Z" fill="#BFBFFD"></path>
<path d="M7.58862 23.5209C9.91077 23.1431 12.044 22.2985 13.744 21.0206C15.9772 19.3538 17.1994 17.1536 17.1994 14.8533C17.1994 14.0866 17.055 13.342 16.7994 12.6309C13.2329 15.7979 10.133 19.4649 7.58862 23.532V23.5209Z" fill="#BFBFFD"></path>
<path d="M29.5435 74.3156C29.5213 74.8268 29.4879 75.3269 29.4879 75.838C29.4879 76.3492 29.5213 76.8604 29.5435 77.3604C33.4322 78.2716 37.221 79.394 40.8876 80.7385C40.6431 79.1273 40.4987 77.4937 40.4987 75.838C40.4987 74.1823 40.6431 72.5488 40.8876 70.9375C37.221 72.271 33.4322 73.4044 29.5435 74.3156Z" fill="#BFBFFD"></path>
<path d="M21.6549 75.8515C23.4437 76.1293 25.2215 76.4627 26.977 76.8183C26.977 76.496 26.9436 76.1738 26.9436 75.8515C26.9436 75.5293 26.9659 75.207 26.977 74.8848C25.2215 75.2515 23.4437 75.5737 21.6549 75.8515Z" fill="#BFBFFD"></path>
<path d="M17.0106 66.1438C16.4439 68.7107 16.1106 71.3332 15.9995 73.9891C19.7994 73.6001 23.5104 73.0001 27.1214 72.2222C27.388 69.3219 27.9658 66.4883 28.8435 63.7324C25.0437 64.7992 21.0882 65.5993 17.0106 66.1438Z" fill="#BFBFFD"></path>
<path d="M2.94434 66.9335C3.89986 69.5782 5.0776 72.1229 6.44422 74.5454C8.7997 74.5121 11.1441 74.4232 13.4551 74.2343C13.544 71.6118 13.8218 69.0226 14.3329 66.4668C11.2552 66.7891 8.13306 66.9668 4.94428 66.9668C4.27763 66.9668 3.62209 66.9557 2.95544 66.9446L2.94434 66.9335Z" fill="#BFBFFD"></path>
<path d="M27.1325 79.4739C23.5215 78.696 19.8105 78.096 16.0106 77.707C16.1217 80.374 16.4551 82.9854 17.0217 85.5523C21.0994 86.0968 25.0548 86.908 28.8547 87.9637C27.9769 85.2078 27.3992 82.3742 27.1325 79.4739Z" fill="#BFBFFD"></path>
<path d="M53.8539 34.6157C58.4982 31.9043 63.598 29.6262 69.0756 27.8705C70.1089 25.0369 70.82 22.1032 71.1644 19.0918C67.0979 20.0808 63.1758 21.3143 59.4204 22.7588C58.3537 26.9704 56.4649 30.9597 53.865 34.6157H53.8539Z" fill="#BFBFFD"></path>
<path d="M49.9984 0C47.4096 0 44.8653 0.200021 42.3765 0.577839C45.243 4.86718 46.8652 9.72325 46.8652 14.846C46.8652 19.5354 45.5097 23.9914 43.0876 28.0029C47.5096 25.2138 52.2539 22.8024 57.2649 20.7911C57.6649 18.8464 57.8649 16.8684 57.8649 14.846C57.8649 9.65657 56.4982 4.71161 54.0428 0.177796C52.7095 0.0666737 51.3651 0 49.9984 0Z" fill="#BFBFFD"></path>
<path d="M83.0863 35.0559C87.2306 34.3114 91.5416 33.9002 95.9859 33.9002C96.4415 33.9002 96.8859 33.9225 97.3414 33.9225C96.4415 31.2777 95.3415 28.733 94.0415 26.3105C91.3194 26.3661 88.6306 26.5439 85.9974 26.8439C85.2752 29.6442 84.2974 32.3779 83.0863 35.0559Z" fill="#BFBFFD"></path>
<path d="M81.6863 37.9252C79.7197 41.6589 77.2642 45.2482 74.342 48.6374C80.6641 45.7371 88.075 44.0703 95.9858 44.0703C97.2191 44.0703 98.4413 44.1147 99.6523 44.2036C99.3524 41.57 98.8302 38.992 98.1413 36.4917C97.4302 36.4695 96.7191 36.4473 95.9969 36.4473C91.0415 36.4473 86.2528 36.9695 81.6974 37.9252H81.6863Z" fill="#BFBFFD"></path>
<path d="M71.0089 29.9334C69.3645 34.0117 67.0868 37.8898 64.2424 41.4791C68.9867 38.9677 74.2643 37.0009 79.9308 35.7007C81.3086 32.956 82.4196 30.1224 83.2418 27.2109C79.0086 27.8221 74.9199 28.7444 71.0089 29.9334Z" fill="#BFBFFD"></path>
<path d="M72.0645 26.9695C75.8643 25.9027 79.8198 25.1027 83.8974 24.5582C84.4641 21.9912 84.7974 19.3687 84.9085 16.7129C81.1086 17.1018 77.3976 17.7019 73.7866 18.4797C73.5199 21.38 72.9422 24.2137 72.0645 26.9695Z" fill="#BFBFFD"></path>
<path d="M73.9643 14.8505C73.9643 15.1728 73.9421 15.4951 73.931 15.8173C77.4865 15.0839 81.1308 14.5172 84.8195 14.1505C81.2863 10.7168 77.2531 7.80536 72.8311 5.52734C73.5533 8.54988 73.9532 11.6613 73.9532 14.8505H73.9643Z" fill="#BFBFFD"></path>
<path d="M60.4203 14.8454C60.4203 16.5011 60.2758 18.1346 60.0314 19.7459C63.6979 18.4124 67.4867 17.2789 71.3755 16.3677C71.3977 15.8566 71.431 15.3565 71.431 14.8342C71.431 11.145 70.8644 7.54458 69.8311 4.07755C65.8201 2.34403 61.5425 1.12168 57.0759 0.488281C59.2425 4.96653 60.4203 9.78926 60.4203 14.8231V14.8454Z" fill="#BFBFFD"></path>
<path d="M86.5973 24.2319C88.575 24.0319 90.5749 23.8875 92.586 23.8097C91.0749 21.3539 89.3527 19.0425 87.4417 16.8867C87.3417 19.3648 87.0751 21.8206 86.5862 24.2319H86.5973Z" fill="#BFBFFD"></path>
<path d="M33.1323 59.7188C49.2874 54.0515 61.8981 43.6838 67.7868 30.9824C51.6317 36.6497 39.021 47.0174 33.1323 59.7188Z" fill="#BFBFFD"></path>
<path d="M39.6543 1.08008C36.1878 1.81349 32.8546 2.90249 29.688 4.31375C31.9879 7.4363 33.299 11.0256 33.299 14.8482C33.299 26.7606 20.5661 36.4616 4.911 36.4616C3.88881 36.4616 2.88884 36.4171 1.88887 36.3394C1.2 38.7841 0.688911 41.2954 0.366699 43.8846C1.85554 44.0068 3.3666 44.0846 4.911 44.0846C26.6325 44.0846 44.2986 30.9721 44.2986 14.8593C44.2986 9.88101 42.6098 5.19162 39.6432 1.09119L39.6543 1.08008Z" fill="#BFBFFD"></path>
<path d="M22.6437 51.9619C39.3876 47.5281 52.2539 36.9826 56.4204 23.959C41.5098 30.3152 29.5879 40.1385 22.6437 51.9619Z" fill="#BFBFFD"></path>
<path d="M78.2753 38.7285C61.5313 43.1623 48.6651 53.7079 44.4985 66.7315C59.4092 60.3752 71.3421 50.552 78.2753 38.7285Z" fill="#BFBFFD"></path>
<path d="M44.4985 84.9727C46.254 90.4621 49.5762 95.5071 54.0649 99.8409C57.9203 99.5297 61.6647 98.7852 65.2312 97.6518C59.3314 92.6179 52.3427 88.3063 44.5097 84.9727H44.4985Z" fill="#BFBFFD"></path>
<path d="M95.9859 66.9551C89.2195 66.9551 83.7085 70.9444 83.7085 75.8449C83.7085 78.523 85.3529 80.9121 87.9417 82.5456C91.8527 77.9896 94.9526 72.7446 97.0303 66.9884C96.6859 66.9662 96.3414 66.9551 95.9859 66.9551Z" fill="#BFBFFD"></path>
<path d="M70.1533 75.8564C70.1533 81.7126 73.7532 86.9464 79.3975 90.4468C81.853 88.6577 84.1418 86.6464 86.2306 84.4462C83.1307 82.346 81.1641 79.279 81.1641 75.8564C81.1641 69.5446 87.8194 64.4107 95.997 64.4107C96.6303 64.4107 97.2525 64.4552 97.8636 64.5107C98.5969 62.0772 99.1524 59.5547 99.5079 56.9766C98.3524 56.8655 97.1858 56.7988 95.997 56.7988C81.753 56.7988 70.1644 65.3442 70.1644 75.8564H70.1533Z" fill="#BFBFFD"></path>
<path d="M67.6089 75.8503C67.6089 63.9379 80.3418 54.2369 95.9858 54.2369C97.2746 54.2369 98.5412 54.3036 99.7857 54.4369C99.919 52.9701 99.9968 51.5033 99.9968 50.0031C99.9968 48.9141 99.9523 47.8362 99.8857 46.7695C98.6079 46.6806 97.308 46.625 95.9969 46.625C74.2754 46.625 56.6093 59.7375 56.6093 75.8503C56.6093 83.94 61.0647 91.2741 68.2422 96.5636C71.3755 95.3301 74.3642 93.7966 77.153 91.9853C71.3088 88.0294 67.62 82.2621 67.62 75.8503H67.6089Z" fill="#BFBFFD"></path>
</svg><style>@media (prefers-color-scheme: light) { :root { filter: none; } }
@media (prefers-color-scheme: dark) { :root { filter: none; } }
</style></svg>