<svg width="1209" height="822" viewBox="0 0 1209 822" fill="none" xmlns="http://www.w3.org/2000/svg">
<g clip-path="url(#clip0_264_5844)">
<path d="M722.922 661.605C789.639 661.605 843.725 715.691 843.725 782.408C843.724 849.125 789.639 903.211 722.922 903.211C656.205 903.211 602.12 849.125 602.12 782.408C602.12 715.691 656.205 661.606 722.922 661.605Z" stroke="#093E34" stroke-width="2" stroke-opacity="0.5" />
<path d="M722.923 736.174C748.455 736.174 769.152 756.871 769.152 782.403C769.152 807.935 748.455 828.633 722.923 828.633C697.391 828.633 676.693 807.935 676.693 782.403C676.693 756.871 697.391 736.174 722.923 736.174Z" stroke="#093E34" stroke-width="2" stroke-opacity="0.5"/>
<path d="M722.922 511.215C872.696 511.215 994.112 632.631 994.112 782.406C994.112 932.181 872.696 1053.6 722.922 1053.6C573.148 1053.6 451.731 932.181 451.731 782.406C451.731 632.631 573.148 511.215 722.922 511.215Z" stroke="#093E34" stroke-width="2" stroke-opacity="0.5"/>
<path d="M722.923 333.479C970.856 333.479 1171.84 534.469 1171.84 782.402C1171.84 1030.34 970.856 1231.32 722.923 1231.33C474.99 1231.33 274 1030.34 274 782.402C274 534.469 474.99 333.479 722.923 333.479Z" stroke="#093E34" stroke-width="2" stroke-opacity="0.5"/>
<path d="M1023.08 176.121C1089.79 176.121 1143.88 230.206 1143.88 296.924C1143.88 363.641 1089.79 417.727 1023.08 417.727C956.36 417.726 902.276 363.641 902.275 296.924C902.275 230.207 956.36 176.121 1023.08 176.121Z" stroke="#093E34" stroke-width="2" stroke-opacity="0.5"/>
<path d="M1023.08 253.18C1047.24 253.18 1066.82 272.765 1066.82 296.924C1066.82 321.083 1047.24 340.667 1023.08 340.667C998.919 340.667 979.334 321.083 979.334 296.924C979.334 272.765 998.919 253.18 1023.08 253.18Z" stroke="#093E34" stroke-width="2" stroke-opacity="0.5"/>
<path d="M1011.89 26.7324C1167.84 26.7327 1294.27 153.157 1294.27 309.109C1294.27 465.062 1167.84 591.487 1011.89 591.487C855.94 591.487 729.516 465.062 729.516 309.109C729.516 153.157 855.94 26.7324 1011.89 26.7324Z" stroke="#093E34" stroke-width="2" stroke-opacity="0.5"/>
<path d="M1023.08 -152C1271.01 -152 1472 48.9903 1472 296.924C1472 544.857 1271.01 745.846 1023.08 745.847C775.145 745.847 574.155 544.857 574.155 296.924C574.155 48.9902 775.145 -152 1023.08 -152Z" stroke="#093E34" stroke-width="2" stroke-opacity="0.5"/>
</g>
<defs>
<clipPath id="clip0_264_5844">
<rect width="1209" height="822" fill="#FFFFFF"/>
</clipPath>
</defs>
</svg>
