<svg width="22" height="22" viewBox="0 0 22 22" fill="none" xmlns="http://www.w3.org/2000/svg">
    <path d="M5.00061 7.33789H0.285156V21.5117H5.00061V7.33789Z" fill="currentColor"/>
    <path d="M16.5796 6.9906C14.0717 6.9906 12.9604 8.35693 12.3297 9.33288V9.37793H12.2997C12.2997 9.37793 12.3297 9.3479 12.3297 9.33288V7.32092H7.61426C7.67433 8.65722 7.61426 21.4947 7.61426 21.4947H12.3297V13.582C12.3297 13.1616 12.3598 12.7412 12.4799 12.4259C12.8253 11.5851 13.5912 10.6992 14.8977 10.6992C16.6097 10.6992 17.2855 12.0055 17.2855 13.9123V21.4947H22.0009V13.3568C22.0009 9.00256 19.6732 6.97559 16.5646 6.97559L16.5796 6.9906Z" fill="currentColor"/>
    <path d="M2.67309 0.488281C1.06623 0.488281 0 1.55432 0 2.93567C0 4.31701 1.02118 5.38305 2.59801 5.38305H2.62804C4.27995 5.38305 5.30114 4.28698 5.30114 2.93567C5.2711 1.53931 4.27995 0.488281 2.65808 0.488281H2.67309Z" fill="currentColor"/>
    <path d="M12.3279 9.37805V9.33301C12.3279 9.33301 12.3129 9.36304 12.2979 9.37805H12.3279Z" fill="currentColor"/>
    <path d="M12.3279 9.37805V9.33301C12.3279 9.33301 12.3129 9.36304 12.2979 9.37805H12.3279Z" fill="currentColor"/>
</svg>
