<svg width="22" height="22" viewBox="0 0 22 22" fill="none" xmlns="http://www.w3.org/2000/svg">
    <path d="M21.4225 3.795C21.1475 3.06625 20.7625 2.46125 20.1575 1.8425C19.5525 1.2375 18.9337 0.8525 18.205 0.5775C17.5037 0.3025 16.7062 0.12375 15.5375 0.0687503C14.3687 0.0137503 13.9838 0 11 0C8.01625 0 7.63125 2.61236e-07 6.4625 0.0687503C5.29375 0.12375 4.49624 0.3025 3.79499 0.5775C3.06624 0.8525 2.46125 1.2375 1.84249 1.8425C1.23749 2.4475 0.852497 3.06625 0.577497 3.795C0.302497 4.49625 0.123744 5.29375 0.0687437 6.4625C0.0137437 7.63125 0 8.01625 0 11C0 13.9838 -6.29527e-06 14.3688 0.0687437 15.5375C0.123744 16.7063 0.302497 17.5038 0.577497 18.205C0.852497 18.9338 1.23749 19.5388 1.84249 20.1575C2.44749 20.7625 3.06624 21.1475 3.79499 21.4225C4.49624 21.6975 5.29375 21.8762 6.4625 21.9312C7.63125 21.9862 8.01625 22 11 22C13.9838 22 14.3687 22 15.5375 21.9312C16.7062 21.8762 17.5037 21.6975 18.205 21.4225C18.9337 21.1475 19.5387 20.7625 20.1575 20.1575C20.7625 19.5525 21.1475 18.9338 21.4225 18.205C21.6975 17.5038 21.8762 16.7063 21.9312 15.5375C21.9862 14.3688 22 13.9838 22 11C22 8.01625 22 7.63125 21.9312 6.4625C21.8762 5.29375 21.6975 4.49625 21.4225 3.795ZM19.9512 15.4413C19.8962 16.5138 19.7175 17.0912 19.5662 17.49C19.36 17.9988 19.1262 18.37 18.7412 18.755C18.3562 19.14 17.985 19.3738 17.4762 19.58C17.0912 19.7313 16.5 19.91 15.4275 19.965C14.2725 20.02 13.915 20.0338 10.9862 20.0338C8.0575 20.0338 7.69999 20.0337 6.54499 19.965C5.47249 19.91 4.895 19.7313 4.49625 19.58C3.9875 19.3738 3.61625 19.14 3.23125 18.755C2.84625 18.37 2.6125 17.9988 2.40625 17.49C2.255 17.105 2.07625 16.5138 2.02125 15.4413C1.96625 14.2863 1.9525 13.9288 1.9525 11C1.9525 8.07125 1.9525 7.71375 2.02125 6.55875C2.07625 5.48625 2.255 4.90875 2.40625 4.51C2.6125 4.00125 2.84625 3.63 3.23125 3.245C3.61625 2.86 3.9875 2.62625 4.49625 2.42C4.88125 2.26875 5.47249 2.09 6.54499 2.035C7.69999 1.98 8.0575 1.96625 10.9862 1.96625C13.915 1.96625 14.2725 1.96625 15.4275 2.035C16.5 2.09 17.0775 2.26875 17.4762 2.42C17.985 2.62625 18.3562 2.86 18.7412 3.245C19.1262 3.63 19.36 4.00125 19.5662 4.51C19.7175 4.895 19.8962 5.48625 19.9512 6.55875C20.0062 7.71375 20.02 8.07125 20.02 11C20.02 13.9288 20.02 14.2863 19.9512 15.4413Z" fill="currentColor"/>
    <path d="M10.9979 5.35059C7.87668 5.35059 5.34668 7.88059 5.34668 11.0018C5.34668 14.1231 7.87668 16.6531 10.9979 16.6531C14.1192 16.6531 16.6492 14.1231 16.6492 11.0018C16.6492 7.88059 14.1192 5.35059 10.9979 5.35059ZM10.9979 14.6593C8.97668 14.6593 7.32667 13.0231 7.32667 10.9881C7.32667 8.95309 8.96293 7.31684 10.9979 7.31684C13.0329 7.31684 14.6692 8.95309 14.6692 10.9881C14.6692 13.0231 13.0329 14.6593 10.9979 14.6593Z" fill="currentColor"/>
    <path d="M16.8698 3.80957C16.1411 3.80957 15.5498 4.40082 15.5498 5.12957C15.5498 5.85832 16.1411 6.44957 16.8698 6.44957C17.5986 6.44957 18.1898 5.85832 18.1898 5.12957C18.1898 4.40082 17.5986 3.80957 16.8698 3.80957Z" fill="currentColor"/>
</svg>
