<?xml version="1.0" encoding="UTF-8"?>
<svg id="Calque_2" data-name="Calque 2" xmlns="http://www.w3.org/2000/svg" viewBox="0 0 200 200">
  <defs>
    <style>
      .cls-1 {
        fill: #bfbffd;
      }
    </style>
  </defs>
  <g id="Calque_1-2" data-name="Calque 1">
    <g>
      <path class="cls-1" d="M4.82,130.77c1.72,5.29,3.86,10.43,6.42,15.34,6.04-.5,11.94-1.31,17.71-2.37,1.1-5.93,2.71-11.77,4.83-17.47-9.18,2.36-19.06,3.91-28.96,4.49Z"/>
      <path class="cls-1" d="M43.24,117.88c34.07-11.71,59.21-35.5,65.92-63.15-30,15.41-53.27,37.59-65.92,63.15Z"/>
      <path class="cls-1" d="M156.88,82.12c-34.19,11.72-59.4,35.58-66.07,63.32,27.35-13.81,53.32-36.83,66.07-63.32Z"/>
      <path class="cls-1" d="M156.78,182.34c5.61-3.89,10.79-8.32,15.48-13.23-11.18-15.29,2.42-33.24,22.09-35.98,1.85-5.24,3.27-10.67,4.23-16.23-39.82.82-70.96,37.9-41.8,65.45Z"/>
      <path class="cls-1" d="M199.91,95.68c-59.96.21-109.28,55.62-67,98.82,6.81-2.37,13.26-5.47,19.29-9.16-31.61-31.35,3.03-73.63,47.14-73.82.6-5.17.79-10.48.57-15.84Z"/>
      <path class="cls-1" d="M67.03,5.5c-6.74,2.34-13.19,5.4-19.25,9.13,31.73,31.5-3.03,73.65-47.14,73.9-.58,5.22-.78,10.51-.53,15.86,1.69-.03,3.4-.11,5.14-.24,59.32-3.4,102.15-57.4,61.79-98.65Z"/>
      <path class="cls-1" d="M66.17,132.43c32.7-14.18,57.35-37.59,67.68-64.83-32.7,14.16-57.35,37.58-67.68,64.83Z"/>
      <path class="cls-1" d="M195.18,69.28c-1.7-5.3-3.84-10.43-6.4-15.36-6.01.52-11.91,1.31-17.66,2.37-1.08,5.89-2.65,11.73-4.78,17.43,9.16-2.33,18.98-3.9,28.85-4.44Z"/>
      <path class="cls-1" d="M94.44,122.96c-9.21,6.3-19.45,11.75-30.51,16.2-1.73,6.05-2.76,12.26-3,18.57,8.23-2.62,16.18-5.73,23.79-9.3,1.57-8.9,4.89-17.46,9.72-25.46Z"/>
      <path class="cls-1" d="M115.27,51.72c-1.58,8.86-4.89,17.4-9.71,25.37,9.21-6.31,19.47-11.77,30.52-16.21,1.72-6.03,2.75-12.21,3.01-18.5-8.3,2.65-16.24,5.81-23.81,9.34,0,0,0,0,0,0Z"/>
      <path class="cls-1" d="M43.16,17.64c-5.53,3.83-10.71,8.25-15.46,13.23,11.28,15.33-2.38,33.34-22.12,36.03-1.85,5.27-3.24,10.7-4.17,16.23.76-.03,1.54-.06,2.32-.13,39.51-2.24,67.74-38.6,39.43-65.37Z"/>
      <path class="cls-1" d="M24.02,34.96c-6.77,7.91-12.19,16.69-16.16,26.03,13.74-3.27,23.16-14.93,16.16-26.03Z"/>
      <path class="cls-1" d="M150.28,103.17c13.85-7.65,31.65-12.47,49.25-12.88-.53-5.34-1.47-10.59-2.8-15.71-11.27.49-22.61,2.43-32.91,5.37-3.5,8.03-8.04,15.79-13.53,23.22Z"/>
      <path class="cls-1" d="M83.92,154.69c-7.4,3.31-15.1,6.23-23.03,8.68.33,11,3.02,21.72,7.76,31.67,8.99,2.98,18.43,4.67,28.05,4.96-9.35-13.13-14.22-29.2-12.79-45.31Z"/>
      <path class="cls-1" d="M32.7,164.66c7.79-1.35,15.4-3.12,22.81-5.28.1-6.07.89-12.05,2.31-17.9-7.72,2.76-15.8,5.05-24.17,6.77-.78,5.39-1.12,10.88-.94,16.41Z"/>
      <path class="cls-1" d="M116.09,45.47c7.35-3.33,15.05-6.22,23.03-8.74-.31-11.11-3.11-21.96-7.88-31.8C122.28,1.96,112.88.29,103.29,0c9.39,13.19,14.25,29.3,12.8,45.47Z"/>
      <path class="cls-1" d="M167.29,35.4c-7.82,1.37-15.43,3.15-22.79,5.3-.1,6.06-.88,12.02-2.28,17.85,7.71-2.77,15.78-5.05,24.16-6.77.78-5.41,1.1-10.88.91-16.37Z"/>
      <path class="cls-1" d="M170.8,29.35c-9.31-9.4-20.52-16.82-32.49-21.81,3.53,8.69,5.73,18.05,6.13,27.62,8.48-2.45,17.44-4.37,26.37-5.81Z"/>
      <path class="cls-1" d="M185.94,48.81c-3.79-6.37-8.3-12.32-13.48-17.77.47,6.56.33,13.16-.5,19.65,4.57-.81,9.24-1.44,13.99-1.88Z"/>
      <path class="cls-1" d="M14.09,151.22c3.78,6.36,8.28,12.29,13.45,17.72-.08-1.13-.15-2.28-.18-3.41-.21-5.46.05-10.86.71-16.2-4.59.79-9.24,1.44-13.99,1.88Z"/>
      <path class="cls-1" d="M29.24,170.68c9.3,9.38,20.45,16.79,32.4,21.75-3.52-8.76-5.64-18.01-6.04-27.47-8.54,2.41-17.45,4.34-26.35,5.73Z"/>
      <path class="cls-1" d="M82.07,65.21h.02c8.65-6.37,18.13-12.11,28.34-17.08,2.36-17.17-2.98-34.51-13.78-48.13-8.11.26-16.23,1.54-23.92,3.71,15.97,16.33,20.17,41.44,9.34,61.49Z"/>
      <path class="cls-1" d="M117.79,135.1s-.03.02-.03.03c0,0-.02,0-.02.02-8.72,6.37-18.14,12.05-28.18,16.93-2.32,17.1,3,34.33,13.74,47.92,8.13-.25,16.34-1.54,23.95-3.71-15.88-16.23-20.12-41.15-9.46-61.18Z"/>
      <path class="cls-1" d="M128.25,89.74s-.02.03-.03.04c9.46-5.89,20.11-10.73,31.64-14.26,2.44-5.91,4.29-11.95,5.53-18.07-8.68,1.91-17.03,4.41-24.95,7.45-2.76,8.67-6.9,16.99-12.19,24.83Z"/>
      <path class="cls-1" d="M175.94,165.02c6.63-7.74,12.07-16.48,16.11-25.95-13.7,3.27-23.03,14.88-16.11,25.95Z"/>
      <path class="cls-1" d="M50.03,96.72c-14.81,8.16-32.22,12.58-49.56,13.04.52,5.34,1.46,10.59,2.8,15.7,11.32-.49,22.71-2.45,33.06-5.42,3.58-8.12,8.2-15.91,13.69-23.32Z"/>
      <path class="cls-1" d="M71.78,110.29s.03-.03.04-.05c-9.44,5.88-20.06,10.72-31.56,14.24-2.47,5.88-4.33,11.92-5.6,18.08,8.66-1.91,17-4.4,24.92-7.44,2.77-8.67,6.9-16.99,12.21-24.83Z"/>
    </g>
  </g>
</svg>