<svg viewBox="0 0 314 74" fill="none" xmlns="http://www.w3.org/2000/svg">
<path d="M14.8544 34.6272C13.1744 34.6272 11.1872 35.104 9.2704 35.5616C7.5904 35.9648 6.0032 36.3456 4.8544 36.3456C4.5216 36.3456 4.192 36.2912 3.9776 36.2048C3.1744 35.8848 3.0432 35.5136 3.0432 34.7584C3.0432 30.5216 11.3408 20.336 16.3008 14.2496C17.6736 12.5632 18.8608 11.1072 19.5968 10.1184C20.864 8.48003 21.4272 6.91522 21.4272 5.04642C21.4272 2.20482 19.792 2.37984e-05 18.384 2.37984e-05C17.9296 2.37984e-05 17.5328 0.192023 17.2448 0.534423C16.368 1.52642 16.1248 1.89762 16.1248 2.26242L16.2208 2.87042H16.768C16.944 2.87042 17.1296 2.82562 17.3248 2.77762C17.4432 2.74882 17.5712 2.71682 17.68 2.70402C17.6288 2.85442 17.5328 3.09122 17.36 3.44002C17.0528 4.06082 15.8528 5.64482 14.336 7.65442C9.3216 14.2784 0 26.6048 0 34.1696C0 34.7328 0.0512008 35.2384 0.156801 35.7504C0.803201 39.1008 2.9888 40.8704 6.4704 40.8704C9.104 40.8704 12.1088 39.888 14.304 39.168C15.5616 38.7552 16.6496 38.3968 17.2448 38.3968C17.392 38.688 17.6832 38.8608 18.0384 38.8608C18.5184 38.8608 19.0272 38.4608 19.0272 37.7184C19.0272 37.4016 18.9248 37.0592 18.6752 36.528C18.0448 35.2672 16.7616 34.6272 14.8544 34.6272Z" fill="#BC6E44"/>
<path d="M37.5264 29.9616C37.7397 29.7034 37.8464 29.409 37.8464 29.0784C37.8464 28.5952 37.5104 28.2336 37.0592 28.2336C36.6688 28.2336 36.3872 28.448 36.1632 28.656C33.5776 31.5936 26.2592 37.3472 23.5328 37.3472C23.264 37.3472 23.0752 37.2853 22.9664 37.1616C22.8 36.9632 22.7552 36.5408 22.8416 35.968C23.7696 30.016 27.9712 25.2416 31.2928 22.9536C31.9424 22.4992 32.3072 22.4608 32.4032 22.4608C32.4896 22.4608 32.5952 22.4608 32.5952 22.8032C32.5952 23.2128 32.3424 23.9776 31.6352 24.8928C30.9536 25.7696 28.7744 27.7248 26.8992 29.1584C26.4576 29.4624 26.1728 29.9648 26.1728 30.4384C26.1728 30.7424 26.3008 31.008 26.5216 31.168C26.6496 31.2608 26.9248 31.392 27.312 31.2608C30.4768 30.3232 34.24 27.6864 34.9984 24.6112C35.0528 24.288 35.104 23.9616 35.104 23.5712C35.104 21.2544 33.536 17.8144 31.376 17.8144C28.56 17.8144 19.312 28.2176 19.312 34.9376C19.312 35.4464 19.3632 35.8976 19.472 36.3616C20.2336 39.648 22.1536 40.3392 23.6288 40.3392C28.1792 40.3392 34.512 34.2496 37.5264 29.9616Z" fill="#BC6E44"/>
<path d="M48.8222 27.2293C48.371 27.2293 48.0638 27.6005 47.9582 27.7285C46.499 29.5493 45.0878 31.1333 43.971 32.2117V32.1573C43.971 30.3717 42.8734 29.0661 41.603 27.5493L41.1518 27.0117C40.7966 26.5829 40.6398 26.1829 40.6398 25.7061C40.6398 24.6949 41.6702 23.6261 43.4686 22.7653C45.219 21.9205 45.9326 21.2645 45.9326 20.4965C45.9326 20.1157 45.7918 19.8405 45.6702 19.5973L45.5454 19.3285C45.2382 18.6277 44.7134 17.6997 43.6766 17.6997C43.459 17.6997 43.1582 17.6997 42.8446 17.8533C38.1406 19.6709 37.1518 22.2565 37.1518 24.1061C37.1518 25.6645 37.9454 27.3477 39.4558 28.9797C40.2388 29.8202 40.6313 30.6426 40.6334 31.4469C40.6334 33.0501 38.8766 34.8933 35.2702 37.0693C34.1278 37.7253 33.5742 38.4037 33.5742 39.1429C33.5742 39.5589 33.7854 39.9781 34.2334 40.4261C34.5918 40.7685 35.2926 40.9925 36.0286 40.9925C38.2718 40.9925 41.2894 39.1557 42.755 36.9029C42.8606 36.7429 42.9822 36.5157 43.1006 36.2949C43.187 36.1285 43.2734 35.9653 43.3566 35.8341C45.1134 34.2981 47.0782 32.0773 49.3822 29.0117C49.5294 28.7749 49.7086 28.4837 49.7086 28.1317C49.7086 27.6421 49.3022 27.2293 48.8222 27.2293Z" fill="#BC6E44"/>
<path d="M85.3182 33.3345C88.9694 30.7265 92.0222 28.2113 94.387 25.8657C99.8334 20.6881 102.262 16.5249 102.262 12.3649C102.262 8.56329 100.013 5.89769 97.555 3.56489C96.163 2.32009 93.9358 1.71529 90.7486 1.71529C86.2942 1.71529 80.7262 2.89609 76.2558 3.84969C73.9102 4.34889 71.8302 4.79049 70.5278 4.92489C70.5406 4.85663 70.547 4.78303 70.547 4.70409C70.547 4.05129 70.019 3.39209 68.8446 3.39209C66.979 3.39209 65.0878 4.52809 65.0878 6.69769C65.0878 7.45609 65.3918 8.38089 65.9934 9.44649C66.6718 10.6529 68.019 11.2641 69.987 11.2641C72.6974 11.2641 76.419 10.1441 80.355 8.95369C84.291 7.76969 88.355 6.54089 91.203 6.54089C92.6014 6.54089 93.5166 6.80649 94.0638 7.35369C94.8414 8.18249 95.2094 8.97609 95.2094 9.84649C95.2094 12.5537 92.0382 15.8913 88.9374 18.8001C87.3502 20.2913 85.5998 21.8177 83.8398 23.3473C79.3406 27.2641 75.011 31.0305 72.7166 34.6625C77.7374 24.6625 81.8782 15.8913 81.8782 12.1569C81.8782 11.1073 81.5486 10.3009 80.9502 9.88489L80.6718 9.68649H80.3326C79.4366 9.68649 79.1166 10.5089 78.9662 10.9089C72.819 20.1057 52.771 51.1937 52.771 65.0465C52.771 68.9921 54.355 70.7169 55.6862 71.4689L55.891 71.5713C56.099 71.6737 56.3806 71.8177 56.755 71.8177C57.8046 71.8177 58.4542 70.8673 58.4542 69.9809C58.4542 69.3857 58.1886 68.8481 57.8526 68.6465C57.8334 68.6081 57.7694 68.4257 57.7694 68.0929C57.7694 64.1601 64.1118 51.6545 69.7054 40.6241L71.5166 37.0497C71.1966 37.9265 71.0238 38.7937 71.0238 39.6513C71.0238 41.5873 71.0238 43.5873 72.4926 43.5873C73.1294 43.5873 73.4782 43.1041 73.5262 43.0241C76.5662 39.7089 83.3566 38.2337 85.4238 38.2337C90.3806 38.2337 93.0014 40.4673 93.0014 44.6881C93.0014 52.7329 82.2878 64.3649 62.915 64.3649H60.707C59.571 64.3649 58.7774 65.1617 58.7774 66.3073C58.7774 67.6193 59.7918 68.9089 61.235 69.4369C63.7086 70.3809 67.6446 71.5009 72.3422 71.5009C74.5918 71.5009 76.851 71.2449 79.0398 70.7457C92.147 67.8945 99.9774 56.4321 99.9774 46.9985C99.9774 40.6337 96.0958 33.8497 85.3182 33.3345Z" fill="#BC6E44"/>
<path d="M228.989 43.1104C228.138 41.056 226.835 39.216 225.331 37.9232C225.699 37.3088 225.955 36.7296 225.955 35.9776C225.955 34.896 225.315 33.904 224.074 32.0768C223.702 31.5648 223.101 30.8896 222.122 30.8896C221.229 30.8896 220.56 31.4496 219.994 32.0416C216.352 35.6192 211.926 41.2544 208.589 47.2288C208.045 47.3888 207.709 47.8176 207.622 47.9456C206.317 49.4336 200.701 54.9824 197.062 58.4096C201.142 49.728 202.842 44.4064 202.842 40.4928C202.842 38.3872 202.25 36.576 201.066 35.0592C200.227 34.0448 199.149 33.5104 197.946 33.5104C193.875 33.5104 188.63 39.344 184.291 45.3952C185.03 43.7568 185.904 41.9296 186.838 39.9744C188.214 37.0944 189.635 34.1152 190.957 31.0784C194.397 23.4336 195.997 18.0896 195.997 14.2528C195.997 11.9424 195.322 10.1024 194.042 8.92483C193.679 8.59203 193.281 8.4267 192.848 8.42884C191.907 8.42884 191.226 9.28963 191.226 10.4768C191.226 11.0464 191.408 11.712 191.68 12.1536C191.68 14.176 188.186 21.2608 185.098 27.5168L184.518 28.7168C180.563 36.896 175.946 46.448 173.443 54.4416C173.187 54.0416 172.787 53.7632 172.32 53.7632C171.389 53.7632 170.544 54.5984 170.125 55.0944C161.405 65.3056 158.646 66.6016 158.003 66.7552C157.986 66.6806 157.978 66.5664 157.978 66.4128C157.978 66.0032 158.122 65.2928 158.326 64.3552C159.974 57.2896 163.558 49.5968 166.442 43.4112C167.21 41.76 167.936 40.1952 168.576 38.7584L168.723 38.7552L171.296 38.64C172.8 38.5728 174.304 38.5088 175.366 38.4416C177.306 38.3008 178.662 37.328 178.662 36.08C178.662 35.4688 178.333 34.0352 175.286 34.0352H170.525C173.466 27.4752 174.63 23.7088 174.63 20.864C174.63 18.1184 173.194 17.1712 172 16.864C171.53 16.736 171.069 16.8192 170.698 17.0976C170.31 17.3984 170.086 17.8912 170.086 18.4512C170.086 18.7872 170.17 19.12 170.314 19.4112C169.677 21.3376 165.885 29.1552 163.174 34.1152L163.139 34.112C162.566 34.0832 161.747 34.0352 160.531 34.0352C159.613 34.0352 158.576 34.0352 157.53 34.1472C156.848 34.2208 155.258 34.3872 155.258 36.3968C155.258 38.656 158.154 38.656 159.542 38.656C159.901 38.6518 160.287 38.6358 160.701 38.608L160.806 38.6016L159.936 40.4928C158.493 43.6256 157.155 46.5408 155.962 49.2832C155.712 48.5504 155.11 48.2016 154.538 48.2016C154.128 48.2016 153.334 48.3808 152.65 49.5168C148.41 55.7056 145.146 60.0096 142.694 62.6496C142.763 62.415 142.847 62.144 142.947 61.8368C143.363 60.6176 143.843 59.3184 144.339 57.9776C146.102 53.1904 148.102 47.7632 148.102 43.6384C148.102 42.6304 147.949 41.584 147.667 40.6624C146.733 37.8592 145.216 36.5536 142.902 36.5536C141.978 36.5536 141.034 36.7616 140.086 37.0528C140.72 35.728 141.03 34.5088 141.03 33.3536C141.03 31.4432 140.272 29.776 138.742 28.2816C138.224 27.744 137.475 27.424 136.742 27.424C135.923 27.424 135.267 27.7504 134.806 28.3808C132.944 30.8384 132 33.3568 132 35.872C132 37.4496 132.339 38.9472 133.037 40.4416C132.333 41.9232 129.357 47.1424 126.851 51.04C126.691 50.9792 126.522 50.9312 126.336 50.9312C125.603 50.9312 125.104 51.3632 124.71 51.776C120.829 56.8192 109.411 67.0944 105.347 67.0944C104.902 67.0944 104.774 66.944 104.73 66.8928C104.605 66.7456 104.33 66.2464 104.525 64.7776C105.965 54.2432 112.454 45.8048 117.584 41.7696C118.378 41.1328 118.918 40.9632 119.069 40.9216C119.069 40.9216 119.158 41.0528 119.158 41.4336C119.158 42.16 118.768 43.504 117.677 45.1136C116.634 46.6464 113.27 50.1088 110.378 52.6336C109.504 53.3184 109.197 54.3232 109.197 54.9728C109.197 55.5808 109.446 56.1024 109.882 56.4032C110.128 56.5696 110.643 56.8096 111.322 56.5408C116.291 54.8576 122.202 50.1408 123.392 44.6144C123.472 44.048 123.549 43.4784 123.549 42.7968C123.549 38.6848 121.142 32.4608 117.514 32.4608C112.538 32.4608 98.5439 51.7056 98.5439 62.9472C98.5439 63.8528 98.6272 64.656 98.8 65.4752C99.9968 71.4112 103.101 72.6592 105.498 72.6592C111.693 72.6592 119.923 64.5664 125.085 57.4368C125.254 57.4976 125.437 57.5456 125.638 57.5456C126.435 57.5456 127.315 56.9344 128.102 55.8528C130.582 52.592 133.35 48.0576 135.181 45.0592C135.744 44.1376 136.227 43.3472 136.502 42.8704C136.576 42.832 136.819 42.8096 136.96 42.7968C137.165 42.7798 137.354 42.7531 137.526 42.7168C138.333 42.5248 139.117 42.1856 139.872 41.8624C140.826 41.456 141.728 41.0688 142.445 41.0688C142.672 41.0688 142.87 41.0688 142.87 41.856C142.87 44.5376 140.32 50.176 138.269 54.704C137.491 56.4224 136.774 58.0096 136.259 59.2832C135.44 61.3408 135.04 63.1584 135.04 64.8384C135.04 67.7728 136.358 69.4784 137.677 70.7968C138.333 71.3952 139.034 71.712 139.706 71.712C141.21 71.712 142.138 70.6048 143.834 68.5696C146.554 65.1264 149.853 60.4512 153.862 54.3616C152.192 58.7136 151.152 62.4608 151.152 65.5712C151.152 68.2496 151.898 70.352 153.398 71.9648C154.043 72.7051 154.925 73.0763 156.045 73.0784C161.187 73.0784 168.979 63.0112 172.413 58.1888C171.904 60.3584 171.603 62.3584 171.603 64.1024C171.603 66.1536 171.978 67.7792 172.8 69.1584C173.261 69.7952 173.786 69.9296 174.141 69.9296C174.986 69.9296 175.606 69.2544 175.898 68.6496C185.354 47.5712 194.768 38.4512 197.677 38.4512C197.677 38.4512 197.766 38.5824 197.766 39.0208C197.766 40.1536 196.883 42.8896 194.947 46.2336C190.554 53.856 185.827 63.4208 185.827 66.4128C185.827 70.208 187.213 72.7616 189.277 72.7616C190.218 72.7616 191.555 72.2016 192.586 69.5168C193.101 68.0928 195.802 65.4528 198.928 62.3904C200.605 60.752 202.509 58.8736 204.474 56.816C203.933 58.7712 203.613 60.6624 203.613 62.4224C203.613 65.7056 204.653 68.3392 206.691 70.2528C207.61 71.136 208.842 71.6064 210.259 71.6064C217.725 71.6064 229.907 58.2112 229.907 47.6256C229.907 46.0704 229.597 44.5472 228.989 43.1104ZM213.821 65.1424C211.997 66.2016 211.091 66.3584 210.714 66.3584C210.368 66.3584 209.654 66.3584 209.44 64.6976C208.762 59.4592 216.79 46.912 222.278 41.6032C223.734 42.0448 224.374 42.8192 224.797 44.5568C224.97 45.216 225.056 46.0128 225.056 46.9952C225.056 53.3824 220.115 61.36 213.821 65.1424Z" fill="#BC6E44"/>
<path d="M312.205 49.1492C311.344 49.1492 310.813 49.8884 310.63 50.1412C308.544 53.1108 306.528 55.7188 304.918 57.5492C304.761 54.6084 303.123 52.3812 301.238 49.8212L300.537 48.8644C300 48.1252 299.76 47.418 299.76 46.5764C299.76 44.8164 301.325 42.954 304.061 41.4564C306.803 39.946 307.974 38.7108 307.974 37.3444C307.974 36.6692 307.753 36.17 307.561 35.7316C307.501 35.5908 307.433 35.4468 307.369 35.2676C306.87 33.9716 306.009 32.2532 304.217 32.2532C303.869 32.2532 303.337 32.2532 302.793 32.554C300.086 33.7476 298.169 35.1236 296.816 36.5508C296.861 36.4014 296.884 36.2457 296.886 36.0836C296.886 35.4692 296.557 34.0388 293.51 34.0388H288.752C291.689 27.4724 292.854 23.706 292.854 20.8644C292.854 18.1188 291.417 17.1716 290.224 16.8644C289.75 16.7364 289.289 16.8196 288.925 17.1012C288.534 17.3988 288.31 17.8916 288.31 18.4516C288.31 18.7876 288.393 19.1204 288.537 19.4148C287.901 21.338 284.105 29.1556 281.398 34.1156L281.366 34.1124C280.793 34.0836 279.971 34.0388 278.758 34.0388C277.84 34.0388 276.8 34.0388 275.757 34.1508C275.075 34.2212 273.481 34.3908 273.481 36.4004C273.481 38.6564 276.377 38.6564 277.769 38.6564C278.126 38.6521 278.511 38.6372 278.925 38.6116L279.03 38.602L278.166 40.4868C276.329 44.4644 274.64 48.1252 273.241 51.4724C272.976 51.1428 272.598 50.9348 272.147 50.9348C271.417 50.9348 270.915 51.3636 270.525 51.7796C266.64 56.8228 255.222 67.0948 251.158 67.0948C250.713 67.0948 250.586 66.9444 250.544 66.8964C250.416 66.7492 250.144 66.25 250.339 64.778C251.776 54.2468 258.265 45.8052 263.398 41.7732C264.189 41.1332 264.729 40.9668 264.88 40.9252C264.88 40.9252 264.969 41.0532 264.969 41.434C264.969 42.1604 264.582 43.5044 263.488 45.1172C262.441 46.6532 259.082 50.1156 256.189 52.634C255.315 53.322 255.008 54.3236 255.008 54.9764C255.008 55.5844 255.257 56.106 255.693 56.4036C255.939 56.5732 256.457 56.81 257.136 56.5444C262.102 54.8612 268.013 50.1412 269.2 44.6404C269.283 44.0644 269.36 43.4916 269.36 42.8004C269.36 38.6852 266.953 32.4644 263.325 32.4644C259.737 32.4644 251.482 42.4676 247.146 52.266C241.642 60.5316 236.678 66.3684 234.931 67.2868L234.928 67.146C234.928 66.906 234.963 66.4164 235.133 65.4788C236.957 56.4772 242.08 45.2516 246.595 35.3476C250.905 25.9076 254.624 17.7572 254.624 13.4148C254.624 9.63237 252.883 7.59077 251.248 7.59077C250.899 7.59077 250.365 7.69637 249.83 8.18917C249.648 8.35877 249.091 8.86757 249.091 9.63877C249.091 10.3268 249.664 10.922 250.077 11.2228C249.945 13.1716 246.774 19.4948 243.421 26.1764C236.969 39.0404 228.938 55.0564 228.938 64.5252C228.938 65.6996 229.085 66.8548 229.37 67.9012C230.47 71.3988 232.32 72.1348 233.68 72.1348C237.059 72.1348 241.123 67.7092 244.371 63.2292C244.387 64.0228 244.458 64.7524 244.611 65.4788C245.808 71.4148 248.915 72.6596 251.309 72.6596C257.571 72.6596 265.917 64.3972 271.065 57.2132C270.013 60.3652 269.376 63.1652 269.376 65.5716C269.376 68.2532 270.121 70.3556 271.622 71.9652C272.267 72.7054 273.149 73.0766 274.269 73.0788C279.577 73.0788 287.725 62.3332 290.973 57.7252C291.606 56.8484 291.945 56.0068 291.945 55.29C291.945 54.4644 291.305 53.7636 290.547 53.7636C289.865 53.7636 289.059 54.2532 288.352 55.0948C279.629 65.3092 276.873 66.602 276.227 66.7588C276.212 66.6841 276.204 66.5689 276.201 66.4132C276.201 66.0068 276.349 65.2964 276.55 64.3556C278.198 57.2964 281.782 49.6068 284.659 43.4244C285.43 41.7668 286.16 40.1988 286.803 38.762L286.95 38.7588L289.517 38.6404C291.024 38.5764 292.528 38.5092 293.59 38.442C294.483 38.3812 295.238 38.1316 295.808 37.7732C294.294 39.866 293.849 41.994 293.849 43.7444C293.849 46.5092 295.088 49.5108 297.443 52.4228C298.64 53.8884 299.248 55.3476 299.248 56.7588C299.248 59.5812 296.544 62.8196 290.998 66.6436C289.181 67.8404 288.294 69.0692 288.294 70.4004C288.294 71.1492 288.633 71.9044 289.341 72.7204C289.945 73.386 291.129 73.8148 292.355 73.8148C295.936 73.8148 300.729 70.5028 303.033 66.4452C303.2 66.1604 303.389 65.7604 303.574 65.3604C303.705 65.0788 303.833 64.7972 303.955 64.5732C306.688 61.8436 309.737 57.9044 313.315 52.4612C313.597 51.9396 313.833 51.4596 313.833 50.8836C313.833 49.9268 313.101 49.1492 312.205 49.1492Z" fill="#BC6E44"/>
</svg>
