<?xml version="1.0" encoding="UTF-8"?>
<svg id="Calque_1" data-name="Calque 1" xmlns="http://www.w3.org/2000/svg" viewBox="0 0 580 305">
  <path fill="currentColor" d="M164.82,172.07c.68-.67,1.49-1.2,2.41-1.58.92-.38,1.92-.57,2.99-.57.95,0,1.86.14,2.71.42.83.28,1.61.76,2.32,1.44l.26.25.72-.84-.22-.22c-.73-.73-1.61-1.28-2.62-1.64-1-.35-2.06-.53-3.17-.53-1.23,0-2.4.22-3.45.64-1.06.43-1.99,1.04-2.77,1.81s-1.4,1.69-1.84,2.72c-.44,1.03-.66,2.18-.66,3.4s.22,2.36.66,3.4c.44,1.03,1.05,1.95,1.84,2.72.78.77,1.71,1.38,2.77,1.81,1.06.43,2.22.64,3.45.64,1.1,0,2.17-.18,3.17-.54,1.01-.37,1.89-.92,2.62-1.65l.22-.22-.72-.84-.26.25c-.71.68-1.49,1.16-2.32,1.45-.85.29-1.76.44-2.71.44-1.07,0-2.08-.19-2.99-.57-.92-.38-1.73-.91-2.41-1.58-.68-.67-1.22-1.47-1.59-2.36-.38-.89-.57-1.88-.57-2.93s.19-2.04.57-2.93c.38-.89.91-1.69,1.59-2.36Z"/>
  <path fill="currentColor" d="M196.64,171.25c-.78-.77-1.71-1.38-2.77-1.81-1.06-.43-2.22-.64-3.45-.64s-2.4.22-3.45.64c-1.06.43-1.99,1.04-2.77,1.81-.78.77-1.4,1.69-1.84,2.72-.44,1.03-.66,2.18-.66,3.4s.22,2.36.66,3.4c.44,1.03,1.06,1.95,1.84,2.72.78.77,1.71,1.38,2.77,1.81,1.06.43,2.22.64,3.45.64s2.4-.22,3.45-.64c1.06-.43,1.99-1.04,2.77-1.81.78-.78,1.4-1.69,1.84-2.72.44-1.03.66-2.17.66-3.4s-.22-2.37-.66-3.4c-.43-1.03-1.05-1.95-1.84-2.72ZM197.98,177.37c0,1.07-.19,2.06-.57,2.96-.38.9-.91,1.69-1.59,2.36-.68.67-1.49,1.2-2.4,1.57-.92.37-1.93.56-3,.56s-2.08-.19-3-.56c-.92-.37-1.73-.9-2.41-1.57-.68-.67-1.22-1.47-1.59-2.36-.38-.89-.57-1.89-.57-2.96s.19-2.06.57-2.96c.38-.89.91-1.69,1.59-2.36.68-.67,1.49-1.2,2.41-1.57.92-.37,1.93-.56,3-.56s2.08.19,3,.56c.92.37,1.73.9,2.41,1.57.68.67,1.22,1.47,1.59,2.36.38.9.57,1.89.57,2.96Z"/>
  <polygon fill="currentColor" points="219.95 183.66 208.6 169 208.5 168.86 207.59 168.86 207.59 185.87 208.74 185.87 208.74 171.07 220.09 185.74 220.19 185.87 221.1 185.87 221.1 168.86 219.95 168.86 219.95 183.66"/>
  <path fill="currentColor" d="M239.28,177.96c-.64-.31-1.34-.57-2.09-.77-.72-.19-1.47-.38-2.21-.56-.72-.17-1.38-.39-1.98-.66-.57-.25-1.02-.59-1.36-1.02-.32-.41-.49-.98-.49-1.69,0-.61.16-1.18.48-1.67.32-.49.83-.9,1.51-1.2.7-.31,1.6-.47,2.68-.47.69,0,1.43.11,2.19.34.75.22,1.44.56,2.06,1.02l.28.21.64-.93-.26-.2c-.62-.47-1.38-.85-2.26-1.14-.88-.28-1.78-.42-2.68-.42-1.32,0-2.42.21-3.26.62-.86.42-1.5.97-1.91,1.64-.41.67-.62,1.41-.62,2.19,0,.92.21,1.69.62,2.27.4.57.95,1.03,1.62,1.36.64.31,1.35.57,2.11.76.74.19,1.48.37,2.21.55.71.17,1.37.39,1.97.66.57.25,1.03.59,1.36,1.02.32.41.49.97.49,1.67,0,.6-.17,1.15-.49,1.64-.33.49-.84.89-1.53,1.19-.71.31-1.64.46-2.77.46s-2.1-.2-3.02-.6c-.92-.4-1.63-.88-2.1-1.45l-.23-.27-.82.77.2.25c.58.71,1.43,1.3,2.52,1.75,1.09.45,2.26.68,3.48.68,1.33,0,2.45-.2,3.32-.6.88-.41,1.54-.96,1.97-1.63.42-.67.63-1.41.63-2.19,0-.91-.21-1.66-.62-2.23-.4-.56-.95-1-1.62-1.33Z"/>
  <polygon fill="currentColor" points="251.11 177.8 260.12 177.8 260.12 176.67 251.11 176.67 251.11 169.99 261.16 169.99 261.16 168.86 249.96 168.86 249.96 185.87 261.51 185.87 261.51 184.74 251.11 184.74 251.11 177.8"/>
  <path fill="currentColor" d="M279.65,179.6c1.01-.45,1.8-1.12,2.35-1.97.55-.85.82-1.88.82-3.07,0-1.79-.61-3.21-1.83-4.22-1.19-.99-2.85-1.49-4.93-1.49h-5.87v17.01h1.15v-5.6h4.72c.62,0,1.21-.05,1.76-.14l4.13,5.73h1.43l-4.34-6.03c.21-.07.42-.15.61-.24ZM281.68,174.57c0,1.44-.47,2.57-1.4,3.36-.94.81-2.34,1.21-4.16,1.21h-4.76v-9.16h4.76c1.82,0,3.22.4,4.16,1.2.93.78,1.4,1.92,1.4,3.38Z"/>
  <polygon fill="currentColor" points="296.62 184.06 289.8 168.86 288.51 168.86 296.16 185.87 297.07 185.87 304.73 168.86 303.44 168.86 296.62 184.06"/>
  <path fill="currentColor" d="M316.75,168.86h-.9l-7.9,17.01h1.29l2.28-4.92h9.55l2.28,4.92h1.29l-7.81-16.81-.09-.2ZM320.55,179.82h-8.51l4.25-9.18,4.25,9.18Z"/>
  <polygon fill="currentColor" points="327.92 169.99 333.98 169.99 333.98 185.87 335.14 185.87 335.14 169.99 341.2 169.99 341.2 168.86 327.92 168.86 327.92 169.99"/>
  <rect fill="currentColor" x="348.37" y="168.86" width="1.15" height="17.01"/>
  <path fill="currentColor" d="M372.92,171.25c-.78-.77-1.71-1.38-2.77-1.81-1.06-.43-2.22-.64-3.45-.64s-2.4.22-3.45.64c-1.06.43-1.99,1.04-2.77,1.81-.78.77-1.4,1.69-1.84,2.72-.44,1.03-.66,2.18-.66,3.4s.22,2.36.66,3.4c.44,1.03,1.06,1.95,1.84,2.72.78.77,1.71,1.38,2.77,1.81,1.06.43,2.22.64,3.45.64s2.4-.22,3.45-.64c1.06-.43,1.99-1.04,2.77-1.81.78-.78,1.4-1.69,1.84-2.72.44-1.03.66-2.17.66-3.4s-.22-2.37-.66-3.4c-.44-1.03-1.05-1.95-1.84-2.72ZM374.26,177.37c0,1.07-.19,2.06-.57,2.96-.38.9-.91,1.69-1.59,2.36-.68.67-1.49,1.2-2.4,1.57-.92.37-1.93.56-3,.56s-2.08-.19-3-.56-1.73-.9-2.41-1.57c-.68-.67-1.22-1.47-1.59-2.36-.38-.89-.57-1.89-.57-2.96s.19-2.06.57-2.96c.38-.89.91-1.69,1.59-2.36.68-.67,1.49-1.2,2.41-1.57.92-.37,1.93-.56,3-.56s2.08.19,3,.56c.92.37,1.73.9,2.41,1.57.68.67,1.22,1.47,1.59,2.36.38.9.57,1.89.57,2.96Z"/>
  <polygon fill="currentColor" points="396.23 183.66 384.88 169 384.77 168.86 383.87 168.86 383.87 185.87 385.02 185.87 385.02 171.07 396.37 185.74 396.47 185.87 397.38 185.87 397.38 168.86 396.23 168.86 396.23 183.66"/>
  <path fill="currentColor" d="M209.55,150.94l-1.81-2.09v-4.76l11.16-22.52,1.79-2.07c.08-.09.01-.24-.11-.24h-5.02c-.12,0-.19.14-.11.24l1.81,2.09-9.59,19.57c-.26.53-1.02.53-1.28,0l-10.15-20.78.75-.97c.07-.08.01-.14-.05-.14h-5.25c-.12,0-.19.15-.11.24l2.51,2.73,10.79,21.84h-.01v4.78l-1.81,2.09c-.08.09-.01.24.11.24h6.26c.12,0,.19-.14.11-.24Z"/>
  <path fill="currentColor" d="M184.32,149.78l-1,1.16c-.08.09-.01.24.11.24h4.42c.12,0,.19-.14.11-.24l-1.8-2.08-5.94-8.24c-.28-.39-.1-.93.35-1.09.64-.22,1.24-.49,1.82-.82,3.33-1.85,4.94-4.96,4.94-8.88-.01-7.3-5.48-10.61-12.68-10.58h-10.93c-.08,0-.14.06-.14.14v29.45l-1.81,2.09c-.08.09-.01.24.11.24h6.26c.12,0,.19-.14.11-.24l-1.81-2.09v-2.88c0-.37.13-.72.39-.99,2.87-2.94,7.14-4.8,11.3-4.82l6.26,8.73c.19.27.18.63-.04.88ZM185.12,149.97l.02.02-.02.02v-.04ZM177.43,138.76c-3.56.16-7.07,1.48-9.87,3.64-.47.36-1.16.04-1.16-.55v-21.16h8.32c3.59,0,6.33.8,8.23,2.39,4.26,3.35,3.71,12.02-1.3,14.45-1.15.57-2.84,1.19-4.23,1.23Z"/>
  <path fill="currentColor" d="M384.03,122.02c0,.11.12.18.21.12l2.53-1.47h7.56c.39,0,.71.32.71.71v27.46l-1.81,2.09c-.08.09-.01.24.11.24h6.26c.12,0,.19-.14.11-.24l-1.81-2.09v-27.46c0-.39.32-.71.71-.71h7.56l2.53,1.47c.09.05.21-.01.21-.12l.03-2.76h-24.94l.03,2.76Z"/>
  <path fill="currentColor" d="M261.02,148.85v-28.23l.97-1.12c.08-.09.01-.24-.11-.24h-3.51l-13.19,26.96c-.26.53-1.02.53-1.28,0l-13.18-26.96h0s-4.48,0-4.48,0c-.12,0-.19.14-.11.24l1.66,1.91v27.62l-1.66,1.91c-.08.09-.01.24.11.24h4.58c.12,0,.19-.14.11-.24l-1.63-1.89v-25.79c0-.15.2-.2.27-.06l13.77,27.97h.82l13.73-28.06c.07-.14.27-.09.27.06.02,5.52.01,19.98.01,25.68l-1.81,2.09c-.08.09-.01.24.11.24h6.26c.12,0,.19-.14.11-.24l-1.81-2.09Z"/>
  <path fill="currentColor" d="M272.7,150.94l-1.81-2.09,3.23-7.02h19.09l3.23,7.02-1.81,2.09c-.08.09-.01.24.11.24h6.54c.12,0,.19-.14.11-.24l-1.81-2.09-13.7-29.59h-4.9c-.11,0-.18.12-.12.22l1.13,1.79-12.77,27.6-1.8,2.07c-.08.09-.01.24.11.24h5.07c.12,0,.19-.14.11-.24ZM283.02,122.46c.25-.55,1.04-.55,1.29,0l8.29,18.04h-17.87l8.29-18.04Z"/>
  <path fill="currentColor" d="M344.71,148.85v-28.25l.96-1.1c.08-.1,0-.24-.11-.24h-4.58c-.13,0-.19.14-.11.24l.99,1.14v10.79c-7.82-.58-15.78,2.63-21.13,8.34-.2.22-.55.1-.6-.18v-19l.96-1.1c.08-.1.02-.24-.11-.24h-4.58c-.12,0-.19.14-.11.24l.99,1.14v28.21l-1.81,2.09c-.08.1-.02.23.1.23h6.26c.13,0,.19-.14.11-.23l-1.82-2.09v-1.46c.1-3.74,1.86-7.27,4.86-9.53,4.79-3.59,10.88-5.47,16.87-5.01v15.99l-1.82,2.09c-.08.1,0,.23.11.23h6.26c.12,0,.19-.14.11-.23l-1.82-2.09Z"/>
  <path fill="currentColor" d="M384.52,150.94l-1.81-2.09-13.7-29.59h-4.9c-.11,0-.18.12-.12.22l1.13,1.79-12.77,27.6-1.8,2.07c-.08.09-.01.24.11.24h5.07c.12,0,.19-.14.11-.24l-1.81-2.09,3.23-7.02h19.09l3.23,7.02-1.81,2.09c-.08.09-.01.24.11.24h6.54c.12,0,.19-.14.11-.24ZM357.87,140.51l8.29-18.04c.25-.55,1.04-.55,1.29,0l8.29,18.04h-17.87Z"/>
  <path fill="currentColor" d="M441.32,148.85l-13.7-29.59h-4.9c-.11,0-.18.12-.12.22l1.13,1.79-12.77,27.6-1.8,2.07c-.08.09-.01.24.11.24h5.07c.12,0,.19-.14.11-.24l-1.81-2.09,3.23-7.02h19.09l3.23,7.02-1.81,2.09c-.08.09-.01.24.11.24h6.54c.12,0,.19-.14.11-.24l-1.81-2.09ZM416.48,140.51l8.29-18.04c.25-.55,1.04-.55,1.29,0l8.29,18.04h-17.87Z"/>
  <path fill="currentColor" d="M515.15,119.26v1.41l.03,1.35c0,.11.12.18.21.12l2.53-1.47h7.56c.39,0,.71.32.71.71v27.46l-2.02,2.33h6.88l-2.02-2.33v-27.46c0-.39.32-.71.71-.71h7.56l2.53,1.47c.09.05.21-.01.21-.12l.03-2.76h-24.94Z"/>
  <path fill="currentColor" d="M477.1,148.85v-28.25l.96-1.1c.08-.1,0-.24-.11-.24h-4.58c-.13,0-.19.14-.11.24l.99,1.14v10.79c-7.82-.58-15.78,2.63-21.13,8.34-.2.22-.55.1-.6-.18v-19l.96-1.1c.08-.1.02-.24-.11-.24h-4.58c-.12,0-.19.14-.11.24l.99,1.14v28.21l-1.81,2.09c-.08.1-.02.23.1.23h6.26c.13,0,.19-.14.11-.23l-1.82-2.09v-1.46c.1-3.74,1.86-7.27,4.86-9.53,4.79-3.59,10.88-5.47,16.87-5.01v15.99l-1.82,2.09c-.08.1,0,.23.11.23h6.26c.12,0,.19-.14.11-.23l-1.82-2.09Z"/>
  <path fill="currentColor" d="M502.13,119.26h-15.86c-.12,0-.19.14-.11.24l2.27,2.62v26.2l-2.27,2.62c-.08.09-.01.24.11.24h21.79v-1.41h-.01v-1.35c-.01-.11-.13-.18-.23-.12l-2.53,1.47h-3.16s-10.14,0-10.14,0c-.39,0-.71-.32-.71-.71v-13.38h12.01v-1.41h-12.01v-12.87c0-.39.32-.71.71-.71h13.3l2.52,1.46c.09.05.21-.01.21-.12v-1.34h.03v-1.41h0s-5.93,0-5.93,0h0Z"/>
  <path fill="currentColor" d="M42.32,167.89c.86,2.64,1.93,5.21,3.21,7.67,3.02-.25,5.97-.66,8.86-1.18.55-2.97,1.35-5.88,2.41-8.73-4.59,1.18-9.53,1.95-14.48,2.25Z"/>
  <path fill="currentColor" d="M61.53,161.44c17.03-5.86,29.6-17.75,32.96-31.57-15,7.7-26.64,18.79-32.96,31.57Z"/>
  <path fill="currentColor" d="M118.35,143.56c-17.09,5.86-29.7,17.79-33.04,31.66,13.67-6.9,26.66-18.42,33.04-31.66Z"/>
  <path fill="currentColor" d="M118.3,193.67c2.8-1.95,5.4-4.16,7.74-6.62-5.59-7.64,1.21-16.62,11.04-17.99.92-2.62,1.64-5.34,2.12-8.12-19.91.41-35.48,18.95-20.9,32.73Z"/>
  <path fill="currentColor" d="M106.36,199.75c3.4-1.18,6.63-2.73,9.64-4.58-15.8-15.67,1.52-36.82,23.57-36.91.3-2.59.4-5.24.28-7.92-29.98.1-54.64,27.81-33.5,49.41Z"/>
  <path fill="currentColor" d="M73.42,105.25c-3.37,1.17-6.6,2.7-9.63,4.57,15.86,15.75-1.52,36.83-23.57,36.95-.29,2.61-.39,5.25-.27,7.93.84-.02,1.7-.06,2.57-.12,29.66-1.7,51.07-28.7,30.9-49.32Z"/>
  <path fill="currentColor" d="M72.99,168.71c16.35-7.09,28.68-18.8,33.84-32.41-16.35,7.08-28.68,18.79-33.84,32.41Z"/>
  <path fill="currentColor" d="M137.49,137.14c-.85-2.65-1.92-5.21-3.2-7.68-3.01.26-5.96.66-8.83,1.18-.54,2.94-1.32,5.87-2.39,8.72,4.58-1.17,9.49-1.95,14.42-2.22Z"/>
  <path fill="currentColor" d="M87.13,163.98c-4.61,3.15-9.73,5.88-15.26,8.1-.87,3.02-1.38,6.13-1.5,9.28,4.11-1.31,8.09-2.86,11.9-4.65.78-4.45,2.44-8.73,4.86-12.73Z"/>
  <path fill="currentColor" d="M97.54,128.36c-.79,4.43-2.45,8.7-4.85,12.68,4.61-3.16,9.73-5.88,15.26-8.11.86-3.01,1.37-6.11,1.5-9.25-4.15,1.33-8.12,2.9-11.91,4.67,0,0,0,0,0,0Z"/>
  <path fill="currentColor" d="M61.49,111.32c-2.76,1.91-5.36,4.13-7.73,6.62,5.64,7.66-1.19,16.67-11.06,18.02-.92,2.64-1.62,5.35-2.08,8.12.38-.02.77-.03,1.16-.06,19.76-1.12,33.87-19.3,19.71-32.68Z"/>
  <path fill="currentColor" d="M51.92,119.98c-3.39,3.96-6.09,8.34-8.08,13.01,6.87-1.64,11.58-7.47,8.08-13.01Z"/>
  <path fill="currentColor" d="M115.05,154.08c6.93-3.82,15.83-6.23,24.63-6.44-.27-2.67-.74-5.29-1.4-7.86-5.64.24-11.31,1.22-16.46,2.68-1.75,4.01-4.02,7.9-6.77,11.61Z"/>
  <path fill="currentColor" d="M81.87,179.85c-3.7,1.65-7.55,3.12-11.51,4.34.16,5.5,1.51,10.86,3.88,15.84,4.5,1.49,9.21,2.34,14.03,2.48-4.68-6.56-7.11-14.6-6.39-22.65Z"/>
  <path fill="currentColor" d="M56.25,184.83c3.89-.68,7.7-1.56,11.4-2.64.05-3.04.45-6.02,1.15-8.95-3.86,1.38-7.9,2.52-12.09,3.39-.39,2.7-.56,5.44-.47,8.2Z"/>
  <path fill="currentColor" d="M97.95,125.24c3.68-1.67,7.53-3.11,11.51-4.37-.16-5.56-1.56-10.98-3.94-15.9-4.48-1.48-9.18-2.32-13.98-2.46,4.69,6.59,7.12,14.65,6.4,22.74Z"/>
  <path fill="currentColor" d="M123.55,120.2c-3.91.68-7.71,1.58-11.4,2.65-.05,3.03-.44,6.01-1.14,8.92,3.86-1.39,7.89-2.52,12.08-3.39.39-2.7.55-5.44.46-8.19Z"/>
  <path fill="currentColor" d="M125.31,117.18c-4.66-4.7-10.26-8.41-16.25-10.91,1.77,4.35,2.86,9.02,3.06,13.81,4.24-1.22,8.72-2.19,13.18-2.9Z"/>
  <path fill="currentColor" d="M132.88,126.91c-1.9-3.19-4.15-6.16-6.74-8.89.24,3.28.17,6.58-.25,9.83,2.28-.41,4.62-.72,6.99-.94Z"/>
  <path fill="currentColor" d="M46.95,178.11c1.89,3.18,4.14,6.15,6.73,8.86-.04-.56-.07-1.14-.09-1.7-.11-2.73.02-5.43.36-8.1-2.29.4-4.62.72-6.99.94Z"/>
  <path fill="currentColor" d="M54.53,187.84c4.65,4.69,10.23,8.39,16.2,10.87-1.76-4.38-2.82-9-3.02-13.74-4.27,1.21-8.72,2.17-13.18,2.86Z"/>
  <path fill="currentColor" d="M80.94,135.1h0c4.33-3.19,9.07-6.06,14.17-8.54,1.18-8.58-1.49-17.25-6.89-24.07-4.06.13-8.11.77-11.96,1.86,7.98,8.17,10.08,20.72,4.67,30.75Z"/>
  <path fill="currentColor" d="M98.8,170.05s-.02,0-.02.02c0,0,0,0,0,0-4.36,3.18-9.07,6.03-14.09,8.47-1.16,8.55,1.5,17.16,6.87,23.96,4.06-.13,8.17-.77,11.98-1.86-7.94-8.11-10.06-20.58-4.73-30.59Z"/>
  <path fill="currentColor" d="M104.03,147.37s-.01.01-.02.02c4.73-2.94,10.05-5.37,15.82-7.13,1.22-2.96,2.15-5.98,2.77-9.03-4.34.95-8.52,2.2-12.47,3.72-1.38,4.33-3.45,8.5-6.1,12.42Z"/>
  <path fill="currentColor" d="M127.88,185.01c3.31-3.87,6.04-8.24,8.05-12.97-6.85,1.63-11.51,7.44-8.05,12.97Z"/>
  <path fill="currentColor" d="M64.92,150.86c-7.41,4.08-16.11,6.29-24.78,6.52.26,2.67.73,5.3,1.4,7.85,5.66-.25,11.36-1.23,16.53-2.71,1.79-4.06,4.1-7.95,6.85-11.66Z"/>
  <path fill="currentColor" d="M75.8,157.64s.01-.02.02-.03c-4.72,2.94-10.03,5.36-15.78,7.12-1.23,2.94-2.17,5.96-2.8,9.04,4.33-.95,8.5-2.2,12.46-3.72,1.38-4.33,3.45-8.5,6.1-12.42Z"/>
</svg>