<svg width="280" height="56" viewBox="0 0 280 56" fill="none" xmlns="http://www.w3.org/2000/svg">
<g clip-path="url(#clip0_161_4498)">
<path d="M72.9525 37.2246C73.5632 37.2246 74.1434 37.3199 74.6967 37.5166C75.2521 37.7141 75.7257 38.0131 76.1302 38.4131L76.1967 38.4785L76.1361 38.5498L75.9799 38.7334L75.9105 38.8135L75.8344 38.7402C75.4271 38.3504 74.9829 38.0729 74.5023 37.917L74.5013 37.916C74.0154 37.754 73.5023 37.6748 72.9525 37.6748C72.3379 37.6748 71.7679 37.7837 71.2386 37.998L71.2396 37.999C70.7092 38.2183 70.2496 38.5206 69.8607 38.9053C69.5202 39.2421 69.2439 39.6292 69.0365 40.0664L68.9515 40.2568C68.7334 40.7718 68.6273 41.3283 68.6273 41.9346C68.6274 42.5403 68.7376 43.1004 68.9515 43.6113C69.1658 44.1274 69.4716 44.5779 69.8607 44.9629C70.2011 45.2996 70.5956 45.5732 71.0443 45.7832L71.2396 45.8691C71.7634 46.0875 72.3371 46.1934 72.9525 46.1934C73.4973 46.1933 74.0145 46.1097 74.5004 45.9434C74.9821 45.7784 75.4272 45.5001 75.8344 45.1104L75.9105 45.0371L75.9799 45.1172L76.1361 45.3008L76.1967 45.3711L76.1312 45.4365C75.731 45.8369 75.2527 46.1408 74.6976 46.3428C74.1445 46.544 73.5638 46.6445 72.9525 46.6445H72.8519V46.6328C72.2069 46.6217 71.6089 46.5053 71.056 46.2832C70.4752 46.0498 69.967 45.7151 69.5365 45.2891C69.1062 44.8632 68.7676 44.3636 68.5297 43.7959C68.2914 43.2274 68.1683 42.6051 68.1683 41.9297C68.1683 41.2547 68.2864 40.6318 68.5297 40.0625C68.7718 39.4957 69.1059 38.9965 69.5365 38.5703C69.967 38.1443 70.4752 37.8095 71.056 37.5762C71.6375 37.3426 72.2735 37.2246 72.9525 37.2246Z" fill="#BFBFFD" stroke="#BFBFFD" stroke-width="0.2"/>
<path d="M72.952 37.1348C73.5675 37.1348 74.166 37.2351 74.7235 37.4316C75.2134 37.6044 75.6546 37.8649 76.0311 38.1982L76.1893 38.3457V38.3467L76.3085 38.4658L76.2479 38.5361L75.9882 38.8408L75.9208 38.9199L75.8446 38.8486L75.7821 38.79L75.7811 38.7891C75.3828 38.4081 74.9424 38.1349 74.4794 37.9834C74.0021 37.8257 73.4933 37.7461 72.9569 37.7461C72.4308 37.7461 71.9325 37.8305 71.4706 37.9922L71.2753 38.0664C70.7582 38.2813 70.3035 38.5786 69.9237 38.9541C69.5911 39.2831 69.3188 39.6659 69.1122 40.0938L69.0272 40.2793C68.8177 40.7815 68.7079 41.3328 68.7079 41.9248C68.7079 42.5171 68.8179 43.0728 69.0272 43.5703V43.5713C69.2371 44.0742 69.5394 44.5198 69.9237 44.8955L70.0692 45.0332C70.4181 45.3458 70.8234 45.5993 71.2753 45.7832C71.7911 45.9931 72.3558 46.1035 72.9569 46.1035C73.4929 46.1035 74.0058 46.0194 74.4784 45.8574C74.9469 45.6968 75.3869 45.4228 75.785 45.042L75.786 45.041L75.8485 44.9834L75.9257 44.9121L75.993 44.9912L76.2528 45.2959L76.3124 45.3662L76.2479 45.4316L76.1942 45.4854C75.7852 45.8945 75.2931 46.2071 74.7333 46.4092C74.1759 46.6103 73.5768 46.7158 72.9608 46.7158H72.952C72.2644 46.7158 71.6153 46.5974 71.0243 46.3545V46.3535C70.4349 46.1157 69.9132 45.7731 69.4784 45.3428C69.0436 44.9124 68.6954 44.3997 68.453 43.8232C68.21 43.2454 68.0878 42.6044 68.0878 41.9248C68.0878 41.2454 68.2102 40.605 68.453 40.0273C68.6954 39.4508 69.0436 38.9372 69.4784 38.5068C69.9134 38.0763 70.4356 37.7329 71.0253 37.4951C71.6154 37.2572 72.264 37.1348 72.952 37.1348Z" fill="#BFBFFD" stroke="#BFBFFD" stroke-width="0.2"/>
<path d="M84.2559 37.2246C84.9348 37.2246 85.57 37.3426 86.1514 37.5762H86.1523C86.7323 37.8137 87.2401 38.144 87.6709 38.5703C88.1012 38.9962 88.4407 39.4958 88.6787 40.0635C88.9169 40.6319 89.04 41.2544 89.04 41.9297C89.04 42.6041 88.9206 43.226 88.6777 43.7949L88.6787 43.7959C88.4407 44.3636 88.1012 44.8632 87.6709 45.2891C87.2404 45.7151 86.7322 46.0499 86.1514 46.2832L86.1504 46.2822C85.5685 46.5203 84.9338 46.6347 84.2559 46.6348C83.5723 46.6348 82.9408 46.5168 82.3594 46.2832V46.2822C81.7793 46.0446 81.2707 45.7155 80.8398 45.2891C80.4096 44.8632 80.071 44.3636 79.833 43.7959C79.5947 43.2274 79.4717 42.6051 79.4717 41.9297C79.4717 41.2547 79.5898 40.6318 79.833 40.0625C80.0752 39.4957 80.4093 38.9965 80.8398 38.5703C81.2703 38.1443 81.7786 37.8095 82.3594 37.5762C82.9409 37.3426 83.5768 37.2246 84.2559 37.2246ZM84.2559 37.6621C83.6406 37.6621 83.0709 37.7672 82.542 37.9814C82.0119 38.1962 81.5533 38.4935 81.165 38.8818L81.1641 38.8828C80.7749 39.2678 80.4691 39.7182 80.2549 40.2344V40.2354C80.0369 40.75 79.9307 41.3096 79.9307 41.9248C79.9307 42.4631 80.0153 42.9631 80.1797 43.4219L80.2549 43.6162L80.3398 43.8066C80.5473 44.2438 80.8235 44.6309 81.1641 44.9678C81.553 45.3525 82.0121 45.6545 82.542 45.8691C83.0662 46.0833 83.6404 46.1885 84.2559 46.1885C84.8709 46.1885 85.44 46.0833 85.9688 45.8691C86.4946 45.6543 86.9535 45.3566 87.3467 44.9678C87.7357 44.583 88.0419 44.1326 88.2607 43.6162L88.3359 43.4209C88.5004 42.9597 88.585 42.463 88.585 41.9248C88.5849 41.3098 88.4746 40.7452 88.2607 40.2344V40.2334C88.0418 39.7169 87.7404 39.267 87.3477 38.8828H87.3467C86.9578 38.4982 86.4987 38.1961 85.9688 37.9814C85.44 37.7673 84.8709 37.6621 84.2559 37.6621Z" fill="#BFBFFD" stroke="#BFBFFD" stroke-width="0.2"/>
<path d="M84.2554 37.1348C84.9426 37.1348 85.5914 37.2526 86.1821 37.4951C86.7719 37.7329 87.2949 38.0762 87.73 38.5068C88.1693 38.9417 88.512 39.4509 88.7544 40.0273C88.9973 40.6051 89.1206 41.2453 89.1206 41.9248C89.1206 42.6044 88.9974 43.2454 88.7544 43.8232C88.5122 44.3991 88.1685 44.9111 87.729 45.3418C87.294 45.7724 86.7729 46.1167 86.1831 46.3545C85.5928 46.5925 84.9436 46.7158 84.2554 46.7158C83.5677 46.7158 82.9186 46.5974 82.3276 46.3545V46.3535C81.7383 46.1157 81.2165 45.7731 80.7817 45.3428C80.347 44.9124 79.9988 44.3997 79.7563 43.8232C79.5134 43.2454 79.3911 42.6044 79.3911 41.9248C79.3911 41.2454 79.5135 40.605 79.7563 40.0273C79.9988 39.4508 80.3469 38.9372 80.7817 38.5068C81.2168 38.0763 81.7389 37.7329 82.3286 37.4951C82.9188 37.2572 83.5674 37.1348 84.2554 37.1348ZM84.2554 37.7422C83.6537 37.7422 83.0891 37.8479 82.5737 38.0576H82.5728C82.0567 38.2633 81.6028 38.5607 81.2231 38.9404H81.2222C80.8423 39.3161 80.5401 39.7616 80.3257 40.2646C80.1162 40.7668 80.0073 41.3234 80.0073 41.9248C80.0073 42.4512 80.0912 42.9459 80.2524 43.3945L80.3267 43.584L80.4097 43.7705C80.5841 44.1367 80.8091 44.47 81.0815 44.7646L81.2222 44.9092C81.6018 45.2846 82.0564 45.5817 82.5728 45.792C83.089 45.9977 83.6543 46.1074 84.2554 46.1074C84.8571 46.1074 85.4225 46.0027 85.938 45.793C86.4551 45.5825 86.9092 45.2887 87.2886 44.9092C87.6687 44.5333 87.9706 44.0874 88.1851 43.584L88.2593 43.3936C88.4206 42.9417 88.5044 42.4472 88.5044 41.9248C88.5044 41.3279 88.3945 40.7677 88.1851 40.2656C87.9753 39.7628 87.6738 39.3171 87.2896 38.9414L87.2886 38.9404C86.9563 38.6119 86.5666 38.3435 86.1284 38.1406L85.938 38.0576C85.4217 37.852 84.8565 37.7422 84.2554 37.7422Z" fill="#BFBFFD" stroke="#BFBFFD" stroke-width="0.2"/>
<path d="M94.3274 37.2598L94.3577 37.2979L100.878 45.7197V37.2598H101.337V46.5986H100.965L100.935 46.5596L94.4182 38.1367V46.5986H93.9592V37.2598H94.3274Z" fill="#BFBFFD" stroke="#BFBFFD" stroke-width="0.2"/>
<path d="M94.3743 37.1748L94.4045 37.2158L94.4241 37.2441L100.802 45.4844V37.1748H101.423V46.6748H100.926L100.897 46.6328L100.876 46.6045L94.5032 38.3633V46.6748H93.8831V37.1748H94.3743Z" fill="#BFBFFD" stroke="#BFBFFD" stroke-width="0.2"/>
<path d="M109.648 37.2109C110.146 37.2109 110.636 37.288 111.12 37.4434C111.604 37.5985 112.018 37.8055 112.36 38.0693L112.435 38.127L112.382 38.2041L112.238 38.415L112.18 38.501L112.097 38.4395C111.739 38.1774 111.346 37.9811 110.914 37.8545C110.478 37.7268 110.062 37.6611 109.661 37.6611C109.035 37.6611 108.525 37.7539 108.121 37.9346C107.718 38.1168 107.426 38.3523 107.237 38.6416C107.047 38.9335 106.953 39.2599 106.953 39.627C106.953 40.0548 107.053 40.3846 107.245 40.6309C107.444 40.8848 107.708 41.0819 108.044 41.2285C108.387 41.3783 108.763 41.5016 109.171 41.6035H109.17C109.583 41.7023 109.996 41.8105 110.403 41.918C110.816 42.0269 111.203 42.1676 111.559 42.3408C111.921 42.5174 112.212 42.7565 112.429 43.0576L112.508 43.1777C112.68 43.4687 112.762 43.831 112.762 44.2549C112.762 44.6725 112.649 45.0675 112.42 45.4326C112.188 45.8018 111.835 46.0903 111.36 46.3115C110.881 46.5349 110.274 46.6396 109.545 46.6396L109.543 46.6338C108.956 46.6326 108.399 46.5389 107.869 46.3477L107.644 46.2598C107.046 46.0135 106.583 45.6956 106.265 45.3027L106.206 45.2305L106.275 45.167L106.458 44.9961L106.535 44.9248L106.603 45.0059C106.876 45.331 107.279 45.6091 107.811 45.8379C108.339 46.0652 108.917 46.1836 109.54 46.1836C110.169 46.1836 110.722 46.0951 111.126 45.9189C111.534 45.7411 111.83 45.5056 112.024 45.2158C112.218 44.9233 112.316 44.6017 112.316 44.2451C112.315 43.8788 112.239 43.5839 112.091 43.3506L112.024 43.2549C111.824 43.0046 111.56 42.8036 111.225 42.6572C110.881 42.5074 110.51 42.3841 110.103 42.2822V42.2812C109.695 42.1827 109.283 42.0804 108.867 41.9775H108.866C108.448 41.8729 108.061 41.731 107.705 41.5576C107.342 41.3805 107.051 41.1371 106.83 40.8271C106.604 40.5096 106.498 40.097 106.498 39.6084C106.498 39.191 106.611 38.7969 106.83 38.4326L106.831 38.4316C107.058 38.0633 107.401 37.7696 107.862 37.5479C108.328 37.3243 108.926 37.211 109.648 37.2109Z" fill="#BFBFFD" stroke="#BFBFFD" stroke-width="0.2"/>
<path d="M109.662 37.1299C110.164 37.1299 110.667 37.2073 111.161 37.3672L111.515 37.4951C111.857 37.6335 112.163 37.8036 112.422 38.001L112.481 38.0459L112.556 38.1035L112.502 38.1816L112.27 38.5225L112.211 38.6074L112.128 38.5469L112.061 38.4971C111.799 38.3041 111.515 38.1478 111.213 38.0303L110.905 37.9258C110.479 37.7984 110.062 37.7373 109.674 37.7373C109.061 37.7374 108.557 37.8302 108.17 38.002C107.781 38.1751 107.498 38.4054 107.323 38.6807V38.6816C107.141 38.96 107.052 39.2728 107.052 39.6221C107.052 40.0328 107.148 40.3491 107.327 40.5771H107.326C107.516 40.8181 107.771 41.0102 108.094 41.1523C108.433 41.3018 108.808 41.4251 109.206 41.5225L109.83 41.6768C110.037 41.7295 110.242 41.7831 110.444 41.8369H110.445C110.861 41.9501 111.257 42.0912 111.614 42.2695H111.613C111.985 42.4509 112.289 42.703 112.514 43.0127C112.75 43.3349 112.861 43.7562 112.861 44.2539C112.861 44.6848 112.743 45.0975 112.509 45.4717C112.273 45.8497 111.903 46.1569 111.415 46.3828L111.414 46.3838C110.926 46.6065 110.302 46.7197 109.563 46.7197H109.54L109.528 46.7139C108.857 46.7106 108.213 46.5842 107.613 46.3359C107.006 46.0849 106.529 45.7539 106.203 45.3574L106.204 45.3564L106.155 45.2998L106.093 45.2266L106.163 45.1621L106.463 44.8838L106.54 44.8135L106.607 44.8926L106.661 44.9551C106.925 45.267 107.324 45.5414 107.843 45.7705H107.842C108.362 45.9933 108.931 46.1074 109.541 46.1074C110.155 46.1074 110.7 46.0184 111.095 45.8467C111.485 45.6778 111.773 45.4518 111.957 45.1758C112.142 44.8968 112.235 44.5887 112.235 44.25C112.235 43.8487 112.14 43.536 111.96 43.3076C111.771 43.0671 111.516 42.8754 111.194 42.7334C110.859 42.5878 110.483 42.4595 110.085 42.3623C109.678 42.2637 109.265 42.1606 108.849 42.0576H108.848C108.426 41.9487 108.03 41.8073 107.674 41.6338C107.302 41.4523 106.997 41.1994 106.771 40.875V40.874C106.537 40.5434 106.426 40.1187 106.426 39.6084C106.426 39.1775 106.544 38.7654 106.773 38.3916C107.004 38.0138 107.365 37.7061 107.839 37.4756L108.024 37.3936C108.47 37.2158 109.023 37.1299 109.662 37.1299Z" fill="#BFBFFD" stroke="#BFBFFD" stroke-width="0.2"/>
<path d="M123.77 37.2598V37.7061H118.145V41.6318H123.183V42.0781H118.145V46.1523H123.967V46.5986H117.681V37.2598H123.77Z" fill="#BFBFFD" stroke="#BFBFFD" stroke-width="0.2"/>
<path d="M123.846 37.1748V37.7822H118.221V41.5469H123.26V42.1543H118.221V46.0625H124.043V46.6748H117.6V37.1748H123.846Z" fill="#BFBFFD" stroke="#BFBFFD" stroke-width="0.2"/>
<path d="M132.206 37.2598C133.344 37.2598 134.248 37.527 134.907 38.0703V38.0713C135.569 38.6218 135.897 39.3866 135.897 40.3613C135.897 41.0038 135.75 41.5607 135.452 42.0273C135.154 42.4934 134.725 42.8511 134.176 43.0957C134.03 43.1603 133.876 43.2151 133.715 43.2627L136.003 46.4404L136.118 46.5986H135.595V46.502L135.519 46.5566L133.225 43.3779C132.91 43.4337 132.571 43.4629 132.209 43.4629H129.475V46.5986H129.011V43.0342L128.991 43.0166H129.011V37.7061H128.991L129.011 37.6875V37.2598H132.206ZM129.47 43.0098L129.475 43.0049V43.0166H132.232C133.289 43.0166 134.082 42.7771 134.622 42.3145C135.16 41.8527 135.437 41.206 135.437 40.3613C135.437 39.5153 135.163 38.856 134.622 38.3994V38.3984C134.082 37.9403 133.289 37.7061 132.232 37.7061H129.47V43.0098Z" fill="#BFBFFD" stroke="#BFBFFD" stroke-width="0.2"/>
<path d="M132.201 37.1748C133.281 37.1748 134.167 37.4177 134.824 37.9033L134.952 38.0039C135.627 38.5677 135.969 39.3638 135.969 40.3564C135.969 41.0128 135.817 41.5881 135.509 42.0684C135.202 42.5478 134.76 42.9136 134.199 43.167V43.168C134.083 43.2189 133.964 43.2617 133.839 43.3027L136.156 46.5166L136.079 46.5713V46.6748H135.504L135.474 46.6338L133.19 43.4619C132.882 43.5137 132.548 43.5391 132.201 43.5391H129.546V46.6748H128.926V37.1748H132.201ZM129.551 42.9355H132.232C133.266 42.9355 134.046 42.7009 134.568 42.252L134.75 42.0762C135.149 41.6468 135.352 41.073 135.352 40.3564C135.352 39.5375 135.083 38.8958 134.568 38.457C134.046 38.0166 133.262 37.7822 132.232 37.7822H129.551V42.9355Z" fill="#BFBFFD" stroke="#BFBFFD" stroke-width="0.2"/>
<path d="M139.83 37.2598L139.856 37.3184L143.708 45.9033L147.56 37.3184L147.587 37.2598H148.105L148.043 37.4004L143.932 46.54L143.905 46.5986H143.512L143.484 46.54L139.374 37.4004L139.311 37.2598H139.83Z" fill="#BFBFFD" stroke="#BFBFFD" stroke-width="0.2"/>
<path d="M139.883 37.1699L139.91 37.2285L143.71 45.6982L147.511 37.2285L147.537 37.1699H148.232L148.168 37.3105L143.985 46.6113L143.978 46.6279L143.931 46.6748H143.462L143.436 46.6162L143.413 46.5664L139.253 37.3105L139.19 37.1699H139.883Z" fill="#BFBFFD" stroke="#BFBFFD" stroke-width="0.2"/>
<path d="M154.917 37.2598L154.943 37.3174L159.184 46.4561L159.251 46.5986H158.729L158.703 46.541L157.454 43.8438H151.987L150.738 46.541L150.712 46.5986H150.347V46.4961L150.261 46.4561L154.502 37.3174L154.529 37.2598H154.917ZM152.194 43.3975H157.247L154.72 37.9424L152.194 43.3975Z" fill="#BFBFFD" stroke="#BFBFFD" stroke-width="0.2"/>
<path d="M154.973 37.1748L155.023 37.2744L155.024 37.2773L159.319 46.5332L159.384 46.6748H158.685L158.658 46.6172L157.409 43.9199H152.045L150.796 46.6172L150.77 46.6748H150.075L150.14 46.5332L154.457 37.2324L154.484 37.1748H154.973ZM152.322 43.3125H157.123L154.722 38.1299L152.322 43.3125Z" fill="#BFBFFD" stroke="#BFBFFD" stroke-width="0.2"/>
<path d="M168.571 37.2598V37.7061H165.176V46.5986H164.717V37.7061H161.323V37.2598H168.571Z" fill="#BFBFFD" stroke="#BFBFFD" stroke-width="0.2"/>
<path d="M168.652 37.1748V37.7822H165.258V46.6748H164.636V37.7822H161.242V37.1748H168.652Z" fill="#BFBFFD" stroke="#BFBFFD" stroke-width="0.2"/>
<path d="M173.228 37.2598V46.5986H172.769V37.2598H173.228Z" fill="#BFBFFD" stroke="#BFBFFD" stroke-width="0.2"/>
<path d="M173.309 37.1748V46.6748H172.689V37.1748H173.309Z" fill="#BFBFFD" stroke="#BFBFFD" stroke-width="0.2"/>
<path d="M182.932 37.2246C183.611 37.2246 184.246 37.3426 184.827 37.5762H184.828C185.408 37.8137 185.916 38.144 186.347 38.5703C186.777 38.9962 187.117 39.4958 187.355 40.0635C187.593 40.6319 187.716 41.2544 187.716 41.9297C187.716 42.6041 187.597 43.226 187.354 43.7949L187.355 43.7959C187.117 44.3636 186.777 44.8632 186.347 45.2891C185.916 45.7151 185.408 46.0499 184.827 46.2832C184.246 46.5167 183.611 46.6347 182.932 46.6348C182.248 46.6348 181.617 46.5168 181.035 46.2832V46.2822C180.455 46.0446 179.947 45.7155 179.516 45.2891C179.086 44.8632 178.747 44.3636 178.509 43.7959C178.271 43.2274 178.148 42.6051 178.148 41.9297C178.148 41.2547 178.266 40.6318 178.509 40.0625C178.751 39.4957 179.085 38.9965 179.516 38.5703C179.946 38.1443 180.455 37.8095 181.035 37.5762C181.617 37.3426 182.253 37.2246 182.932 37.2246ZM182.932 37.6621C182.317 37.6621 181.747 37.7672 181.218 37.9814C180.688 38.1962 180.229 38.4935 179.841 38.8818L179.84 38.8828C179.451 39.2678 179.145 39.7182 178.931 40.2344V40.2354C178.713 40.75 178.607 41.3096 178.607 41.9248C178.607 42.4631 178.691 42.9631 178.856 43.4219L178.931 43.6162L179.016 43.8066C179.223 44.2438 179.5 44.6309 179.84 44.9678C180.229 45.3525 180.688 45.6545 181.218 45.8691C181.742 46.0833 182.316 46.1885 182.932 46.1885C183.547 46.1885 184.116 46.0833 184.645 45.8691C185.171 45.6543 185.63 45.3566 186.023 44.9678C186.412 44.583 186.718 44.1326 186.937 43.6162L187.012 43.4209C187.176 42.9597 187.261 42.463 187.261 41.9248C187.261 41.3098 187.151 40.7452 186.937 40.2344V40.2334C186.718 39.7169 186.416 39.267 186.024 38.8828H186.023C185.634 38.4982 185.175 38.1961 184.645 37.9814C184.116 37.7673 183.547 37.6621 182.932 37.6621Z" fill="#BFBFFD" stroke="#BFBFFD" stroke-width="0.2"/>
<path d="M182.931 37.1348C183.619 37.1348 184.267 37.2526 184.858 37.4951C185.448 37.7329 185.971 38.0762 186.406 38.5068C186.845 38.9417 187.188 39.4509 187.43 40.0273C187.673 40.6051 187.797 41.2453 187.797 41.9248C187.797 42.6044 187.673 43.2454 187.43 43.8232C187.188 44.3991 186.845 44.9111 186.405 45.3418C185.97 45.7724 185.449 46.1167 184.859 46.3545C184.269 46.5925 183.62 46.7158 182.931 46.7158C182.244 46.7158 181.595 46.5974 181.004 46.3545V46.3535C180.414 46.1157 179.893 45.7731 179.458 45.3428C179.023 44.9124 178.675 44.3997 178.432 43.8232C178.189 43.2454 178.067 42.6044 178.067 41.9248C178.067 41.2454 178.19 40.605 178.432 40.0273C178.675 39.4508 179.023 38.9372 179.458 38.5068C179.893 38.0763 180.415 37.7329 181.005 37.4951C181.595 37.2572 182.243 37.1348 182.931 37.1348ZM182.931 37.7422C182.33 37.7422 181.765 37.8479 181.25 38.0576H181.249C180.733 38.2633 180.279 38.5607 179.899 38.9404H179.898C179.518 39.3164 179.216 39.7626 179.007 40.2656C178.797 40.7677 178.687 41.3235 178.687 41.9248C178.687 42.5263 178.797 43.0866 179.007 43.584C179.216 44.0869 179.518 44.5333 179.898 44.9092C180.278 45.2846 180.732 45.5817 181.249 45.792C181.765 45.9977 182.33 46.1074 182.931 46.1074C183.533 46.1074 184.099 46.0027 184.614 45.793C185.131 45.5825 185.585 45.2887 185.965 44.9092C186.345 44.5333 186.647 44.0874 186.861 43.584L186.935 43.3936C187.097 42.9417 187.18 42.4472 187.18 41.9248C187.18 41.3279 187.071 40.7677 186.861 40.2656C186.651 39.7628 186.35 39.3171 185.966 38.9414L185.965 38.9404C185.632 38.6119 185.243 38.3435 184.804 38.1406L184.614 38.0576C184.098 37.852 183.533 37.7422 182.931 37.7422Z" fill="#BFBFFD" stroke="#BFBFFD" stroke-width="0.2"/>
<path d="M193.008 37.2598L193.038 37.2979L199.559 45.7197V37.2598H200.018V46.5986H199.646L199.615 46.5596L193.099 38.1367V46.5986H192.64V37.2598H193.008Z" fill="#BFBFFD" stroke="#BFBFFD" stroke-width="0.2"/>
<path d="M193.055 37.1748L193.085 37.2168L193.105 37.2441L199.483 45.4844V37.1748H200.104V46.6748H199.607L199.577 46.6328L199.557 46.6045L193.184 38.3633V46.6748H192.564V37.1748H193.055Z" fill="#BFBFFD" stroke="#BFBFFD" stroke-width="0.2"/>
<path d="M101.144 9.38632H98.3311C98.264 9.38632 98.2281 9.46696 98.2729 9.51624L99.285 10.6855L93.9155 21.6436C93.7677 21.9438 93.3467 21.9393 93.1989 21.6436L87.5204 10.009L87.9414 9.46248C87.9817 9.4132 87.9458 9.38184 87.9145 9.38184H84.9767C84.9095 9.38184 84.8692 9.46248 84.9185 9.51624L86.3202 11.0484L92.3615 23.2788H92.3525V25.9534L91.3359 27.1226C91.2912 27.1764 91.327 27.2526 91.3942 27.2526H94.8962C94.9634 27.2526 94.9992 27.1719 94.9545 27.1226L93.9379 25.9534V23.2878L100.19 10.6766L101.193 9.52072C101.238 9.46696 101.202 9.3908 101.135 9.3908L101.144 9.38632Z" fill="#BFBFFD"/>
<path d="M81.8643 25.9623L78.5413 21.3479C78.3846 21.1284 78.4831 20.8238 78.7384 20.7387C79.0967 20.6177 79.4281 20.4654 79.755 20.2817C81.618 19.2468 82.5181 17.5041 82.5181 15.3134C82.5092 11.2231 79.4504 9.36843 75.4199 9.39083H69.298C69.2532 9.39083 69.2174 9.42667 69.2174 9.47147V25.9623L68.2053 27.1316C68.1605 27.1854 68.1963 27.2615 68.2635 27.2615H71.7656C71.8328 27.2615 71.8686 27.1809 71.8238 27.1316L70.8072 25.9623V24.3495C70.8072 24.1435 70.8834 23.9463 71.0267 23.7985C72.6344 22.1499 75.0258 21.115 77.3546 21.0971L80.8567 25.9892C80.9641 26.1371 80.9552 26.3431 80.8343 26.482L80.2745 27.1316C80.2297 27.1854 80.2655 27.2615 80.3327 27.2615H82.8047C82.8719 27.2615 82.9077 27.1809 82.863 27.1316L81.8553 25.9668L81.8643 25.9623ZM76.9829 20.3041C74.9945 20.3937 73.024 21.1329 71.4611 22.3425C71.1968 22.5486 70.8117 22.3649 70.8117 22.0334V10.1838H75.4692C77.48 10.1838 79.016 10.6318 80.0729 11.5233C82.4554 13.3959 82.1509 18.2567 79.3474 19.6187C78.7026 19.9412 77.7576 20.2862 76.9829 20.3086V20.3041ZM81.2911 26.6075V26.5851L81.3 26.5985L81.2911 26.6075Z" fill="#BFBFFD"/>
<path d="M192.636 10.9313C192.636 10.9941 192.704 11.0299 192.757 10.9985L194.172 10.1787H198.404C198.624 10.1787 198.803 10.3579 198.803 10.5774V25.9573L197.786 27.1265C197.742 27.1803 197.778 27.2565 197.845 27.2565H201.347C201.414 27.2565 201.45 27.1758 201.405 27.1265L200.388 25.9573V10.5774C200.388 10.3579 200.568 10.1787 200.787 10.1787H205.019L206.434 10.9985C206.488 11.0299 206.555 10.9896 206.555 10.9313L206.569 9.38574H192.609L192.623 10.9313H192.636Z" fill="#BFBFFD"/>
<path d="M123.782 25.9532V10.1477L124.328 9.52055C124.373 9.46679 124.337 9.39062 124.27 9.39062H122.304L114.919 24.4882C114.771 24.7884 114.35 24.7884 114.203 24.4882L106.822 9.39062H104.314C104.247 9.39062 104.211 9.47127 104.256 9.52055L105.183 10.5913V26.0562L104.256 27.1269C104.211 27.1807 104.247 27.2569 104.314 27.2569H106.88C106.948 27.2569 106.983 27.1762 106.939 27.1269L106.025 26.0697V11.6261C106.025 11.541 106.137 11.5141 106.177 11.5903L113.885 27.2569H114.346L122.031 11.541C122.066 11.4649 122.183 11.4873 122.183 11.5724C122.192 14.6636 122.192 22.7634 122.192 25.9532L121.175 27.1225C121.131 27.1762 121.166 27.2524 121.234 27.2524H124.736C124.803 27.2524 124.839 27.1717 124.794 27.1225L123.777 25.9532H123.782Z" fill="#BFBFFD"/>
<path d="M145.358 25.9573L137.691 9.38574H134.951C134.888 9.38574 134.848 9.45294 134.883 9.5067L135.515 10.5057L128.363 25.9617L127.355 27.1221C127.311 27.1758 127.346 27.252 127.414 27.252H130.253C130.32 27.252 130.356 27.1713 130.311 27.1221L129.299 25.9528L131.104 22.0193H141.789L143.594 25.9528L142.582 27.1221C142.537 27.1758 142.573 27.252 142.64 27.252H146.303C146.37 27.252 146.406 27.1713 146.361 27.1221L145.349 25.9528L145.358 25.9573ZM131.453 21.2846L136.093 11.1822C136.236 10.8731 136.675 10.8731 136.818 11.1822L141.458 21.2846H131.453Z" fill="#BFBFFD"/>
<path d="M170.625 25.9573V10.1384L171.163 9.52014C171.207 9.46638 171.167 9.38574 171.1 9.38574H168.538C168.467 9.38574 168.431 9.46638 168.476 9.52014L169.031 10.1608V16.2043C164.651 15.8817 160.195 17.6782 157.204 20.8769C157.092 21.0024 156.895 20.9307 156.868 20.7784V10.1384L157.405 9.52014C157.45 9.46638 157.414 9.38574 157.342 9.38574H154.781C154.714 9.38574 154.673 9.46638 154.718 9.52014L155.273 10.1608V25.9573L154.261 27.1265C154.217 27.1803 154.252 27.2565 154.32 27.2565H157.822C157.893 27.2565 157.929 27.1803 157.884 27.1265L156.868 25.9573V25.1419C156.921 23.0453 157.907 21.0696 159.586 19.8062C162.269 17.7947 165.677 16.7419 169.031 17.0017V25.9573L168.014 27.1265C167.97 27.1803 168.01 27.2565 168.077 27.2565H171.579C171.646 27.2565 171.687 27.1803 171.642 27.1265L170.625 25.9573Z" fill="#BFBFFD"/>
<path d="M191.897 25.9573L184.23 9.38574H181.49C181.427 9.38574 181.387 9.45294 181.422 9.5067L182.054 10.5057L174.902 25.9617L173.894 27.1221C173.85 27.1758 173.885 27.252 173.953 27.252H176.792C176.859 27.252 176.895 27.1713 176.85 27.1221L175.838 25.9528L177.643 22.0193H188.328L190.133 25.9528L189.121 27.1221C189.076 27.1758 189.112 27.252 189.179 27.252H192.842C192.909 27.252 192.945 27.1713 192.901 27.1221L191.888 25.9528L191.897 25.9573ZM177.992 21.2846L182.632 11.1822C182.775 10.8731 183.214 10.8731 183.357 11.1822L187.997 21.2846H177.992Z" fill="#BFBFFD"/>
<path d="M224.71 25.9573L217.043 9.38574H214.303C214.24 9.38574 214.2 9.45294 214.235 9.5067L214.867 10.5057L207.715 25.9617L206.707 27.1221C206.662 27.1758 206.698 27.252 206.765 27.252H209.605C209.672 27.252 209.708 27.1713 209.663 27.1221L208.651 25.9528L210.456 22.0193H221.141L222.946 25.9528L221.934 27.1221C221.889 27.1758 221.925 27.252 221.992 27.252H225.655C225.722 27.252 225.758 27.1713 225.713 27.1221L224.701 25.9528L224.71 25.9573ZM210.8 21.2846L215.44 11.1822C215.583 10.8731 216.022 10.8731 216.166 11.1822L220.805 21.2846H210.8Z" fill="#BFBFFD"/>
<path d="M266.041 9.38574V10.1787L266.054 10.9313C266.054 10.9941 266.122 11.0299 266.175 10.9985L267.591 10.1787H271.823C272.042 10.1787 272.221 10.3579 272.221 10.5774V25.9573L271.093 27.2609H274.944L273.815 25.9573V10.5774C273.815 10.3579 273.995 10.1787 274.214 10.1787H278.446L279.861 10.9985C279.915 11.0299 279.982 10.9896 279.982 10.9313L279.996 9.38574H266.036H266.041Z" fill="#BFBFFD"/>
<path d="M244.742 25.9573V10.1384L245.279 9.52014C245.324 9.46638 245.284 9.38574 245.217 9.38574H242.655C242.583 9.38574 242.548 9.46638 242.592 9.52014L243.148 10.1608V16.2043C238.768 15.8817 234.312 17.6782 231.32 20.8769C231.208 21.0024 231.011 20.9307 230.984 20.7784V10.1384L231.522 9.52014C231.567 9.46638 231.531 9.38574 231.459 9.38574H228.898C228.83 9.38574 228.79 9.46638 228.835 9.52014L229.39 10.1608V25.9573L228.378 27.1265C228.333 27.1803 228.369 27.2565 228.436 27.2565H231.938C232.01 27.2565 232.046 27.1803 232.001 27.1265L230.984 25.9573V25.1419C231.038 23.0453 232.023 21.0696 233.703 19.8062C236.385 17.7947 239.793 16.7419 243.148 17.0017V25.9573L242.131 27.1265C242.086 27.1803 242.127 27.2565 242.194 27.2565H245.696C245.763 27.2565 245.803 27.1803 245.759 27.1265L244.742 25.9573Z" fill="#BFBFFD"/>
<path d="M258.75 9.38591H252.678H249.87C249.803 9.38591 249.767 9.46655 249.812 9.51583L251.083 10.9853V25.6573L249.812 27.1267C249.767 27.1805 249.803 27.2566 249.87 27.2566H262.069V26.4637H262.06L262.051 25.7066C262.051 25.6438 261.984 25.608 261.93 25.6394L260.515 26.4592H258.746H253.072C252.852 26.4592 252.673 26.28 252.673 26.0605V18.5699H259.395V17.777H252.673V10.5686C252.673 10.3491 252.852 10.1699 253.072 10.1699H260.519L261.93 10.9898C261.984 11.0211 262.051 10.9808 262.051 10.9226L262.06 10.1699H262.069V9.37695H258.75V9.38591Z" fill="#BFBFFD"/>
<path d="M2.75861 31.8039C1.9122 31.8039 1.07923 31.7681 0.250732 31.7188C0.44778 33.2017 0.756786 34.6442 1.17327 36.042C1.69724 36.0599 2.22569 36.0689 2.75413 36.0689C4.65295 36.0689 6.5249 35.9613 8.34759 35.7553C8.75065 34.1873 9.297 32.6551 9.97771 31.1543C7.65793 31.5754 5.2441 31.8039 2.75413 31.8039H2.75861Z" fill="#BFBFFD"/>
<path d="M26.3507 31.4092C23.7487 32.9279 20.8916 34.2047 17.8239 35.1903C17.2417 36.7807 16.8476 38.4204 16.655 40.1093C18.9345 39.5538 21.1289 38.8639 23.2337 38.053C23.8294 35.6965 24.8907 33.461 26.3462 31.4092H26.3507Z" fill="#BFBFFD"/>
<path d="M30.2648 42.4794C30.2648 39.8541 31.0261 37.3587 32.3785 35.1143C29.902 36.6733 27.2463 38.0263 24.4384 39.1507C24.2145 40.2349 24.1025 41.3459 24.1025 42.4794C24.1025 43.6128 24.219 44.7239 24.4384 45.808C27.2463 46.9325 29.902 48.2855 32.3785 49.8445C31.0261 47.6 30.2648 45.1047 30.2648 42.4794Z" fill="#BFBFFD"/>
<path d="M11.7513 30.7951C10.981 32.3317 10.3585 33.9177 9.89722 35.5484C12.2663 35.2034 14.5547 34.6882 16.7446 34.0252C17.6627 31.7404 18.9435 29.5721 20.5333 27.5605C17.8776 28.9673 14.9219 30.0693 11.7513 30.7951Z" fill="#BFBFFD"/>
<path d="M16.6594 44.8447C16.852 46.5337 17.2461 48.1778 17.8283 49.7638C20.8959 50.7449 23.7531 52.0262 26.3551 53.5449C24.8996 51.493 23.8382 49.2575 23.2426 46.901C21.1423 46.0902 18.9434 45.4002 16.6639 44.8447H16.6594Z" fill="#BFBFFD"/>
<path d="M2.75867 26.1098C1.85404 26.1098 0.958367 26.0606 0.0806103 25.9844C0.0313485 26.6519 0 27.3239 0 28.0049C0 28.771 0.0403052 29.5281 0.0985238 30.2762C0.976281 30.3345 1.85852 30.3748 2.75867 30.3748C5.53524 30.3748 8.21778 30.0836 10.766 29.5505C11.8676 27.4583 13.2425 25.4513 14.8771 23.5518C11.3392 25.1735 7.19223 26.1098 2.75867 26.1098Z" fill="#BFBFFD"/>
<path d="M18.5493 51.5156C19.1046 52.7163 19.7808 53.8811 20.5421 55.0011C22.7948 55.6238 25.1593 55.9687 27.6 56.0001C24.9041 54.1947 21.8633 52.6759 18.5448 51.5156H18.5493Z" fill="#BFBFFD"/>
<path d="M17.2238 8.31455C17.2238 6.39263 16.5296 4.59167 15.325 3.03711C13.6232 3.90175 12.0244 4.93663 10.5466 6.11487C10.8735 6.80031 11.0616 7.54399 11.0616 8.31455C11.0616 10.0662 10.1704 11.7014 8.55369 12.911C7.14301 13.9683 5.31136 14.591 3.35432 14.6986C2.62435 16.0515 2.00634 17.4717 1.50476 18.9456C1.91677 18.9725 2.33326 18.9904 2.7587 18.9904C10.7346 18.9904 17.2238 14.2013 17.2238 8.31903V8.31455Z" fill="#BFBFFD"/>
<path d="M9.95532 49.4141C12.4453 51.5197 15.307 53.1952 18.4328 54.3331C17.7835 53.231 17.2147 52.0976 16.7445 50.9283C14.5725 50.2697 12.3065 49.759 9.95532 49.4141Z" fill="#BFBFFD"/>
<path d="M4.50073 43.2271C5.51732 44.7951 6.68617 46.2556 7.98937 47.5862C7.72515 46.2019 7.57288 44.7996 7.5281 43.3795C6.52943 43.2988 5.51732 43.254 4.50521 43.2227L4.50073 43.2271Z" fill="#BFBFFD"/>
<path d="M4.25 13.176C5.5532 12.9654 6.74444 12.4905 7.69833 11.7737C8.94779 10.8374 9.63298 9.6099 9.63298 8.31966C9.63298 7.88958 9.54789 7.47294 9.40906 7.07422C7.41172 8.8483 5.67412 10.9046 4.25448 13.176H4.25Z" fill="#BFBFFD"/>
<path d="M16.543 41.6234C16.5295 41.9101 16.5161 42.1923 16.5161 42.4791C16.5161 42.7658 16.534 43.048 16.543 43.3347C18.7239 43.8455 20.8422 44.4771 22.8933 45.2253C22.7545 44.3248 22.6738 43.4109 22.6738 42.4835C22.6738 41.5562 22.7545 40.6378 22.8933 39.7373C20.8422 40.4855 18.7195 41.1171 16.543 41.6279V41.6234Z" fill="#BFBFFD"/>
<path d="M12.1229 42.4796C13.1261 42.6364 14.1203 42.8201 15.1055 43.0217C15.1055 42.8425 15.0876 42.6588 15.0876 42.4796C15.0876 42.3004 15.101 42.1167 15.1055 41.9375C14.1203 42.1436 13.1261 42.3273 12.1229 42.4796Z" fill="#BFBFFD"/>
<path d="M9.52542 37.0409C9.20745 38.4789 9.01936 39.9439 8.95667 41.4357C11.0839 41.2162 13.1663 40.8802 15.1861 40.4457C15.3338 38.8194 15.6608 37.2335 16.1489 35.6924C14.0217 36.2882 11.8049 36.7362 9.52094 37.0453L9.52542 37.0409Z" fill="#BFBFFD"/>
<path d="M1.64807 37.4845C2.181 38.9673 2.83931 40.392 3.60511 41.7494C4.92622 41.7315 6.23838 41.6777 7.52815 41.5747C7.57741 40.1053 7.73415 38.6537 8.01629 37.2246C6.2966 37.4038 4.54109 37.5024 2.7587 37.5024C2.387 37.5024 2.0153 37.4979 1.64807 37.4889V37.4845Z" fill="#BFBFFD"/>
<path d="M15.1906 44.5086C13.1664 44.0741 11.0884 43.7381 8.96118 43.5186C9.02388 45.0104 9.21197 46.4798 9.52545 47.9134C11.8094 48.2181 14.0262 48.6706 16.1534 49.2664C15.6653 47.7253 15.3384 46.1349 15.1906 44.5086Z" fill="#BFBFFD"/>
<path d="M30.1527 19.3851C32.7546 17.8664 35.6118 16.5896 38.675 15.6085C39.2572 14.0181 39.6513 12.3784 39.8439 10.6895C37.5644 11.245 35.37 11.9349 33.2652 12.7458C32.6695 15.1023 31.6082 17.3378 30.1527 19.3896V19.3851Z" fill="#BFBFFD"/>
<path d="M27.9942 0C26.5432 0 25.1191 0.112 23.7263 0.32256C25.3296 2.72832 26.2387 5.4432 26.2387 8.31488C26.2387 10.9402 25.4774 13.4355 24.1249 15.68C26.6014 14.121 29.2571 12.768 32.065 11.6435C32.2889 10.5594 32.4009 9.44384 32.4009 8.31488C32.4009 5.41184 31.6351 2.63872 30.2602 0.09856C29.5123 0.04032 28.76 0 27.9942 0Z" fill="#BFBFFD"/>
<path d="M46.5211 19.6355C48.8409 19.2144 51.2547 18.9859 53.7447 18.9859C54 18.9859 54.2508 18.9949 54.5015 18.9993C54 17.5209 53.382 16.0918 52.652 14.7344C51.1293 14.7657 49.6246 14.8688 48.1512 15.0345C47.7482 16.6025 47.2018 18.1347 46.5211 19.6355Z" fill="#BFBFFD"/>
<path d="M45.7375 21.2394C44.6358 23.3315 43.2609 25.3386 41.6263 27.2381C45.1642 25.6163 49.3157 24.68 53.7448 24.68C54.4344 24.68 55.1196 24.7069 55.7958 24.7517C55.6257 23.2733 55.3391 21.8352 54.9494 20.4374C54.5509 20.424 54.1523 20.415 53.7492 20.415C50.9727 20.415 48.2901 20.7062 45.7419 21.2394H45.7375Z" fill="#BFBFFD"/>
<path d="M39.7588 16.7638C38.8407 19.0486 37.5599 21.217 35.9701 23.233C38.6258 21.8262 41.5815 20.7242 44.7521 19.9984C45.5224 18.4618 46.1449 16.8758 46.6062 15.2451C44.2371 15.5901 41.9487 16.1053 39.7588 16.7683V16.7638Z" fill="#BFBFFD"/>
<path d="M40.35 15.1023C42.4772 14.5065 44.694 14.0585 46.9779 13.7494C47.2959 12.3113 47.484 10.8463 47.5422 9.35449C45.415 9.57401 43.3326 9.91001 41.3128 10.3446C41.165 11.9708 40.8381 13.5567 40.35 15.0979V15.1023Z" fill="#BFBFFD"/>
<path d="M41.4158 8.3145C41.4158 8.49818 41.4023 8.67738 41.3978 8.85658C43.3907 8.44442 45.4284 8.13082 47.4974 7.92026C45.5179 5.99834 43.2608 4.36762 40.7843 3.09082C41.1918 4.78426 41.4158 6.52698 41.4158 8.31002V8.3145Z" fill="#BFBFFD"/>
<path d="M33.8295 8.31527C33.8295 9.24263 33.7489 10.161 33.61 11.0615C35.6611 10.3134 37.7839 9.68167 39.9603 9.17095C39.9738 8.88423 39.9872 8.60199 39.9872 8.31527C39.9872 6.24551 39.6737 4.23399 39.096 2.29415C36.8524 1.32199 34.4564 0.641029 31.9575 0.287109C33.1667 2.79591 33.8295 5.49735 33.8295 8.31975V8.31527Z" fill="#BFBFFD"/>
<path d="M48.4871 13.5746C49.5932 13.4626 50.7128 13.3819 51.8413 13.3371C50.9949 11.9618 50.0276 10.667 48.9618 9.46191C48.9035 10.8462 48.7558 12.2216 48.4871 13.5746Z" fill="#BFBFFD"/>
<path d="M18.5493 33.4427C27.5956 30.2709 34.6579 24.4603 37.9495 17.3506C28.9033 20.5224 21.8409 26.333 18.5493 33.4427Z" fill="#BFBFFD"/>
<path d="M22.2037 0.604492C20.2601 1.01217 18.3971 1.62593 16.6282 2.41441C17.9135 4.16161 18.6524 6.17313 18.6524 8.31457C18.6524 14.9898 11.5228 20.4151 2.75871 20.4151C2.18996 20.4151 1.62568 20.3927 1.07037 20.3479C0.680753 21.7143 0.394138 23.1255 0.219482 24.5725C1.05246 24.6442 1.89886 24.6845 2.75871 24.6845C14.9174 24.6845 24.8101 17.3418 24.8101 8.31457C24.8101 5.52801 23.8652 2.90273 22.2037 0.604492Z" fill="#BFBFFD"/>
<path d="M12.6782 29.1019C22.0514 26.6155 29.2571 20.7153 31.5903 13.4219C23.2427 16.9835 16.5654 22.4849 12.6782 29.1019Z" fill="#BFBFFD"/>
<path d="M43.8252 21.6924C34.452 24.1788 27.2418 30.0789 24.9131 37.3769C33.2652 33.8153 39.9424 28.3138 43.8252 21.6924Z" fill="#BFBFFD"/>
<path d="M24.9131 47.582C25.8983 50.6598 27.7568 53.4822 30.2692 55.9104C32.4322 55.7356 34.5236 55.319 36.521 54.6828C33.2204 51.8604 29.3019 49.4502 24.9176 47.582H24.9131Z" fill="#BFBFFD"/>
<path d="M53.7448 37.498C49.9516 37.498 46.8705 39.7336 46.8705 42.4798C46.8705 43.9761 47.793 45.3201 49.2395 46.234C51.425 43.6849 53.167 40.7416 54.3314 37.5204C54.1388 37.507 53.9463 37.498 53.7448 37.498Z" fill="#BFBFFD"/>
<path d="M39.2797 42.479C39.2797 45.7583 41.2949 48.6927 44.4566 50.6505C45.8315 49.647 47.1123 48.5225 48.2811 47.2905C46.5435 46.1167 45.4419 44.3964 45.4419 42.479C45.4419 38.9443 49.1679 36.0726 53.7447 36.0726C54.0985 36.0726 54.4478 36.095 54.7882 36.1308C55.2002 34.7644 55.5092 33.3532 55.7107 31.9107C55.0659 31.8435 54.412 31.8076 53.7447 31.8076C45.7688 31.8076 39.2797 36.5967 39.2797 42.479Z" fill="#BFBFFD"/>
<path d="M37.8556 42.4797C37.8556 35.8045 44.9851 30.3792 53.7448 30.3792C54.4658 30.3792 55.1778 30.4195 55.872 30.4912C55.9436 29.6714 55.9884 28.8471 55.9884 28.0093C55.9884 27.4 55.9615 26.7952 55.9257 26.1949C55.2092 26.1411 54.4837 26.1143 53.7448 26.1143C41.586 26.1143 31.6934 33.457 31.6934 42.4797C31.6934 47.009 34.1878 51.1127 38.2094 54.0829C39.9649 53.393 41.6353 52.5328 43.1982 51.5203C39.9246 49.3027 37.8556 46.0727 37.8556 42.4797Z" fill="#BFBFFD"/>
</g>
<defs>
<clipPath id="clip0_161_4498">
<rect width="280" height="56" fill="white"/>
</clipPath>
</defs>
</svg>
