<?xml version="1.0" encoding="UTF-8"?>
<svg id="Calque_2" data-name="Calque 2" xmlns="http://www.w3.org/2000/svg" viewBox="0 0 280 56">
  <g>
    <path fill="currentColor" d="M69.93,38.96c.38-.38.83-.67,1.35-.88.52-.21,1.07-.32,1.67-.32.53,0,1.04.08,1.52.24.46.16.9.43,1.3.81l.15.14.4-.47-.12-.12c-.41-.41-.9-.72-1.47-.92-.56-.2-1.15-.3-1.77-.3-.69,0-1.34.12-1.93.36-.59.24-1.11.58-1.55,1.01s-.78.95-1.03,1.52c-.25.58-.37,1.22-.37,1.9s.12,1.32.37,1.9c.25.58.59,1.09,1.03,1.52.44.43.96.77,1.55,1.01s1.24.36,1.93.36c.62,0,1.21-.1,1.77-.3.57-.21,1.06-.52,1.47-.92l.12-.12-.4-.47-.15.14c-.4.38-.83.65-1.3.81-.48.16-.99.25-1.52.25-.6,0-1.16-.11-1.67-.32-.52-.21-.97-.51-1.35-.88s-.68-.82-.89-1.32c-.21-.5-.32-1.05-.32-1.64s.11-1.14.32-1.64.51-.95.89-1.32v-.02Z"/>
    <path fill="currentColor" d="M87.74,38.5c-.44-.43-.96-.77-1.55-1.01s-1.24-.36-1.93-.36-1.34.12-1.93.36c-.59.24-1.11.58-1.55,1.01s-.78.95-1.03,1.52-.37,1.22-.37,1.9.12,1.32.37,1.9c.25.58.59,1.09,1.03,1.52.44.43.96.77,1.55,1.01s1.24.36,1.93.36,1.34-.12,1.93-.36c.59-.24,1.11-.58,1.55-1.01.44-.44.78-.95,1.03-1.52s.37-1.21.37-1.9-.12-1.33-.37-1.9c-.24-.58-.59-1.09-1.03-1.52ZM88.49,41.92c0,.6-.11,1.15-.32,1.66s-.51.95-.89,1.32-.83.67-1.34.88c-.52.21-1.08.31-1.68.31s-1.16-.11-1.68-.31c-.52-.21-.97-.5-1.35-.88-.38-.38-.68-.82-.89-1.32-.21-.5-.32-1.06-.32-1.66s.11-1.15.32-1.66c.21-.5.51-.95.89-1.32s.83-.67,1.35-.88,1.08-.31,1.68-.31,1.16.11,1.68.31c.52.21.97.5,1.35.88.38.38.68.82.89,1.32.21.5.32,1.06.32,1.66h0Z"/>
    <polygon fill="currentColor" points="100.79 45.44 94.43 37.24 94.38 37.16 93.87 37.16 93.87 46.68 94.51 46.68 94.51 38.4 100.87 46.61 100.93 46.68 101.43 46.68 101.43 37.16 100.79 37.16 100.79 45.44"/>
    <path fill="currentColor" d="M111.61,42.25c-.36-.17-.75-.32-1.17-.43-.4-.11-.82-.21-1.24-.31-.4-.1-.77-.22-1.11-.37-.32-.14-.57-.33-.76-.57-.18-.23-.27-.55-.27-.95,0-.34.09-.66.27-.93.18-.27.46-.5.85-.67.39-.17.9-.26,1.5-.26.39,0,.8.06,1.23.19.42.12.81.31,1.15.57l.16.12.36-.52-.15-.11c-.35-.26-.77-.48-1.27-.64-.49-.16-1-.24-1.5-.24-.74,0-1.35.12-1.82.35-.48.24-.84.54-1.07.92s-.35.79-.35,1.23c0,.52.12.95.35,1.27.22.32.53.58.91.76.36.17.76.32,1.18.43.41.11.83.21,1.24.31.4.1.77.22,1.1.37.32.14.58.33.76.57.18.23.27.54.27.93,0,.34-.1.64-.27.92-.18.27-.47.5-.86.67-.4.17-.92.26-1.55.26s-1.18-.11-1.69-.34-.91-.49-1.18-.81l-.13-.15-.46.43.11.14c.32.4.8.73,1.41.98.61.25,1.27.38,1.95.38.74,0,1.37-.11,1.86-.34.49-.23.86-.54,1.1-.91.24-.38.35-.79.35-1.23,0-.51-.12-.93-.35-1.25-.22-.31-.53-.56-.91-.74h-.01Z"/>
    <polygon fill="currentColor" points="118.24 42.16 123.28 42.16 123.28 41.53 118.24 41.53 118.24 37.79 123.86 37.79 123.86 37.16 117.59 37.16 117.59 46.68 124.06 46.68 124.06 46.05 118.24 46.05 118.24 42.16"/>
    <path fill="currentColor" d="M134.21,43.17c.57-.25,1.01-.63,1.32-1.1s.46-1.05.46-1.72c0-1-.34-1.8-1.02-2.36-.67-.55-1.6-.83-2.76-.83h-3.29v9.52h.64v-3.13h2.64c.35,0,.68-.03.99-.08l2.31,3.21h.8l-2.43-3.38c.12-.04.24-.08.34-.13h0ZM135.35,40.36c0,.81-.26,1.44-.78,1.88-.53.45-1.31.68-2.33.68h-2.66v-5.13h2.66c1.02,0,1.8.22,2.33.67.52.44.78,1.07.78,1.89h0Z"/>
    <polygon fill="currentColor" points="143.71 45.67 139.89 37.16 139.17 37.16 143.46 46.68 143.97 46.68 148.25 37.16 147.53 37.16 143.71 45.67"/>
    <path fill="currentColor" d="M154.98,37.16h-.5l-4.42,9.52h.72l1.28-2.75h5.35l1.28,2.75h.72l-4.37-9.41-.05-.11h0ZM157.11,43.29h-4.76l2.38-5.14,2.38,5.14h0Z"/>
    <polygon fill="currentColor" points="161.23 37.79 164.63 37.79 164.63 46.68 165.27 46.68 165.27 37.79 168.67 37.79 168.67 37.16 161.23 37.16 161.23 37.79"/>
    <rect fill="currentColor" x="172.68" y="37.16" width=".64" height="9.52"/>
    <path fill="currentColor" d="M186.42,38.5c-.44-.43-.96-.77-1.55-1.01s-1.24-.36-1.93-.36-1.34.12-1.93.36c-.59.24-1.11.58-1.55,1.01s-.78.95-1.03,1.52-.37,1.22-.37,1.9.12,1.32.37,1.9c.25.58.59,1.09,1.03,1.52.44.43.96.77,1.55,1.01s1.24.36,1.93.36,1.34-.12,1.93-.36c.59-.24,1.11-.58,1.55-1.01.44-.44.78-.95,1.03-1.52s.37-1.21.37-1.9-.12-1.33-.37-1.9-.59-1.09-1.03-1.52ZM187.17,41.92c0,.6-.11,1.15-.32,1.66s-.51.95-.89,1.32-.83.67-1.34.88c-.52.21-1.08.31-1.68.31s-1.16-.11-1.68-.31-.97-.5-1.35-.88-.68-.82-.89-1.32c-.21-.5-.32-1.06-.32-1.66s.11-1.15.32-1.66c.21-.5.51-.95.89-1.32s.83-.67,1.35-.88,1.08-.31,1.68-.31,1.16.11,1.68.31c.52.21.97.5,1.35.88s.68.82.89,1.32c.21.5.32,1.06.32,1.66h0Z"/>
    <polygon fill="currentColor" points="199.47 45.44 193.12 37.24 193.06 37.16 192.55 37.16 192.55 46.68 193.2 46.68 193.2 38.4 199.55 46.61 199.61 46.68 200.12 46.68 200.12 37.16 199.47 37.16 199.47 45.44"/>
    <path fill="currentColor" d="M94.97,27.13l-1.01-1.17v-2.66l6.25-12.61,1-1.16c.04-.05,0-.13-.06-.13h-2.81c-.07,0-.11.08-.06.13l1.01,1.17-5.37,10.96c-.15.3-.57.3-.72,0l-5.68-11.63.42-.54s0-.08-.03-.08h-2.94c-.07,0-.11.08-.06.13l1.41,1.53,6.04,12.23h0v2.68l-1.01,1.17c-.04.05,0,.13.06.13h3.5c.07,0,.11-.08.06-.13h0Z"/>
    <path fill="currentColor" d="M80.84,26.48l-.56.65c-.04.05,0,.13.06.13h2.47c.07,0,.11-.08.06-.13l-1.01-1.16-3.33-4.61c-.16-.22-.06-.52.2-.61.36-.12.69-.27,1.02-.46,1.86-1.04,2.77-2.78,2.77-4.97,0-4.09-3.07-5.94-7.1-5.92h-6.12s-.08.03-.08.08v16.49l-1.01,1.17c-.04.05,0,.13.06.13h3.5c.07,0,.11-.08.06-.13l-1.01-1.17v-1.61c0-.21.07-.4.22-.55,1.61-1.65,4-2.69,6.33-2.7l3.5,4.89c.11.15.1.35-.02.49h-.02ZM81.3,26.58h.01s-.01.02-.01.02v-.02ZM76.98,20.31c-1.99.09-3.96.83-5.53,2.04-.26.2-.65.02-.65-.31v-11.85h4.66c2.01,0,3.54.45,4.61,1.34,2.38,1.88,2.08,6.73-.73,8.09-.64.32-1.59.67-2.37.69h0Z"/>
    <path fill="currentColor" d="M192.64,10.94c0,.06.07.1.12.07l1.42-.82h4.23c.22,0,.4.18.4.4v15.37l-1.01,1.17c-.04.05,0,.13.06.13h3.5c.07,0,.11-.08.06-.13l-1.01-1.17v-15.37c0-.22.18-.4.4-.4h4.23l1.42.82c.05.03.12,0,.12-.07l.02-1.55h-13.96l.02,1.55h0Z"/>
    <path fill="currentColor" d="M123.79,25.96v-15.8l.54-.63c.04-.05,0-.13-.06-.13h-1.96l-7.38,15.09c-.15.3-.57.3-.72,0l-7.38-15.09h-2.51c-.07,0-.11.08-.06.13l.93,1.07v15.46l-.93,1.07c-.04.05,0,.13.06.13h2.56c.07,0,.11-.08.06-.13l-.91-1.06v-14.44c0-.08.11-.11.15-.03l7.71,15.66h.46l7.69-15.71c.04-.08.15-.05.15.03.01,3.09,0,11.19,0,14.38l-1.01,1.17c-.04.05,0,.13.06.13h3.5c.07,0,.11-.08.06-.13l-1.01-1.17h0Z"/>
    <path fill="currentColor" d="M130.32,27.13l-1.01-1.17,1.81-3.93h10.69l1.81,3.93-1.01,1.17c-.04.05,0,.13.06.13h3.66c.07,0,.11-.08.06-.13l-1.01-1.17-7.67-16.56h-2.74c-.06,0-.1.07-.07.12l.63,1-7.15,15.45-1.01,1.16c-.04.05,0,.13.06.13h2.84c.07,0,.11-.08.06-.13h0ZM136.1,11.18c.14-.31.58-.31.72,0l4.64,10.1h-10l4.64-10.1h0Z"/>
    <path fill="currentColor" d="M170.63,25.96v-15.81l.54-.62c.04-.06,0-.13-.06-.13h-2.56c-.07,0-.11.08-.06.13l.55.64v6.04c-4.38-.32-8.83,1.47-11.83,4.67-.11.12-.31.06-.34-.1v-10.64l.54-.62c.04-.06.01-.13-.06-.13h-2.56c-.07,0-.11.08-.06.13l.55.64v15.79l-1.01,1.17c-.04.06-.01.13.06.13h3.5c.07,0,.11-.08.06-.13l-1.02-1.17v-.82c.06-2.09,1.04-4.07,2.72-5.33,2.68-2.01,6.09-3.06,9.44-2.8v8.95l-1.02,1.17c-.04.06,0,.13.06.13h3.5c.07,0,.11-.08.06-.13l-1.02-1.17h.01Z"/>
    <path fill="currentColor" d="M192.92,27.13l-1.01-1.17-7.67-16.56h-2.74c-.06,0-.1.07-.07.12l.63,1-7.15,15.45-1.01,1.16c-.04.05,0,.13.06.13h2.84c.07,0,.11-.08.06-.13l-1.01-1.17,1.81-3.93h10.69l1.81,3.93-1.01,1.17c-.04.05,0,.13.06.13h3.66c.07,0,.11-.08.06-.13h0ZM178,21.29l4.64-10.1c.14-.31.58-.31.72,0l4.64,10.1h-10Z"/>
    <path fill="currentColor" d="M224.71,25.96l-7.67-16.56h-2.74c-.06,0-.1.07-.07.12l.63,1-7.15,15.45-1.01,1.16c-.04.05,0,.13.06.13h2.84c.07,0,.11-.08.06-.13l-1.01-1.17,1.81-3.93h10.69l1.81,3.93-1.01,1.17c-.04.05,0,.13.06.13h3.66c.07,0,.11-.08.06-.13l-1.01-1.17h0ZM210.81,21.29l4.64-10.1c.14-.31.58-.31.72,0l4.64,10.1h-10Z"/>
    <path fill="currentColor" d="M266.05,9.39v.79l.02.76c0,.06.07.1.12.07l1.42-.82h4.23c.22,0,.4.18.4.4v15.37l-1.13,1.3h3.85l-1.13-1.3v-15.37c0-.22.18-.4.4-.4h4.23l1.42.82c.05.03.12,0,.12-.07l.02-1.55h-13.96.01Z"/>
    <path fill="currentColor" d="M244.75,25.96v-15.81l.54-.62c.04-.06,0-.13-.06-.13h-2.56c-.07,0-.11.08-.06.13l.55.64v6.04c-4.38-.32-8.83,1.47-11.83,4.67-.11.12-.31.06-.34-.1v-10.64l.54-.62c.04-.06.01-.13-.06-.13h-2.56c-.07,0-.11.08-.06.13l.55.64v15.79l-1.01,1.17c-.04.06-.01.13.06.13h3.5c.07,0,.11-.08.06-.13l-1.02-1.17v-.82c.06-2.09,1.04-4.07,2.72-5.33,2.68-2.01,6.09-3.06,9.44-2.8v8.95l-1.02,1.17c-.04.06,0,.13.06.13h3.5c.07,0,.11-.08.06-.13l-1.02-1.17h.01Z"/>
    <path fill="currentColor" d="M258.76,9.39h-8.88c-.07,0-.11.08-.06.13l1.27,1.47v14.67l-1.27,1.47c-.04.05,0,.13.06.13h12.2v-.79h0v-.76c0-.06-.07-.1-.13-.07l-1.42.82h-7.45c-.22,0-.4-.18-.4-.4v-7.49h6.72v-.79h-6.72v-7.2c0-.22.18-.4.4-.4h7.45l1.41.82c.05.03.12,0,.12-.07v-.75h.02v-.79h-3.32,0Z"/>
    <path fill="currentColor" d="M1.35,36.62c.48,1.48,1.08,2.92,1.8,4.29,1.69-.14,3.34-.37,4.96-.66.31-1.66.76-3.29,1.35-4.89-2.57.66-5.33,1.09-8.11,1.26h0Z"/>
    <path fill="currentColor" d="M12.1,33c9.53-3.28,16.57-9.94,18.45-17.67-8.4,4.31-14.91,10.52-18.45,17.67Z"/>
    <path fill="currentColor" d="M43.91,23c-9.57,3.28-16.63,9.96-18.5,17.72,7.65-3.86,14.92-10.31,18.5-17.72Z"/>
    <path fill="currentColor" d="M43.88,51.05c1.57-1.09,3.02-2.33,4.33-3.71-3.13-4.28.68-9.3,6.18-10.07.52-1.47.92-2.99,1.19-4.55-11.15.23-19.86,10.61-11.7,18.32Z"/>
    <path fill="currentColor" d="M37.2,54.45c1.9-.66,3.71-1.53,5.4-2.56-8.84-8.77.85-20.61,13.19-20.66.17-1.45.22-2.93.16-4.43-16.78.06-30.59,15.57-18.75,27.66h0Z"/>
    <path fill="currentColor" d="M18.76,1.55c-1.89.65-3.69,1.51-5.39,2.56C22.25,12.92,12.52,24.73.18,24.79c-.16,1.46-.22,2.94-.15,4.44.47-.01.95-.03,1.44-.07,16.6-.95,28.59-16.07,17.3-27.61h0Z"/>
    <path fill="currentColor" d="M18.52,37.07c9.15-3.97,16.06-10.52,18.94-18.14-9.15,3.96-16.06,10.52-18.94,18.14Z"/>
    <path fill="currentColor" d="M54.63,19.4c-.48-1.48-1.07-2.92-1.79-4.3-1.69.15-3.34.37-4.94.66-.3,1.65-.74,3.29-1.34,4.88,2.56-.65,5.31-1.09,8.07-1.24Z"/>
    <path fill="currentColor" d="M26.43,34.43c-2.58,1.76-5.45,3.29-8.54,4.53-.49,1.69-.77,3.43-.84,5.2,2.3-.73,4.53-1.6,6.66-2.6.44-2.49,1.37-4.89,2.72-7.13Z"/>
    <path fill="currentColor" d="M32.27,14.49c-.44,2.48-1.37,4.87-2.72,7.1,2.58-1.77,5.45-3.29,8.54-4.54.48-1.69.77-3.42.84-5.18-2.32.74-4.55,1.62-6.67,2.61h0Z"/>
    <path fill="currentColor" d="M12.08,4.95c-1.55,1.07-3,2.31-4.33,3.71,3.16,4.29-.67,9.33-6.19,10.09-.52,1.48-.91,2.99-1.16,4.55.21-.01.43-.02.65-.03,11.06-.63,18.96-10.8,11.03-18.29h0Z"/>
    <path fill="currentColor" d="M6.72,9.79c-1.9,2.22-3.41,4.67-4.52,7.28,3.85-.92,6.48-4.18,4.52-7.28Z"/>
    <path fill="currentColor" d="M42.06,28.88c3.88-2.14,8.86-3.49,13.79-3.61-.15-1.49-.41-2.96-.78-4.4-3.16.13-6.33.68-9.21,1.5-.98,2.24-2.25,4.42-3.79,6.5h0Z"/>
    <path fill="currentColor" d="M23.49,43.31c-2.07.92-4.23,1.75-6.44,2.43.09,3.08.85,6.08,2.17,8.87,2.52.83,5.16,1.31,7.85,1.39-2.62-3.67-3.98-8.17-3.58-12.68h0Z"/>
    <path fill="currentColor" d="M9.15,46.1c2.18-.38,4.31-.87,6.38-1.48.03-1.7.25-3.37.64-5.01-2.16.77-4.42,1.41-6.77,1.9-.22,1.51-.31,3.05-.26,4.59h0Z"/>
    <path fill="currentColor" d="M32.49,12.74c2.06-.93,4.22-1.74,6.44-2.45-.09-3.11-.87-6.15-2.21-8.9C34.22.56,31.59.09,28.9.02c2.63,3.69,3.99,8.2,3.58,12.73h0Z"/>
    <path fill="currentColor" d="M46.83,9.92c-2.19.38-4.32.88-6.38,1.48-.03,1.7-.25,3.36-.64,4.99,2.16-.78,4.42-1.41,6.76-1.9.22-1.51.31-3.05.26-4.58h0Z"/>
    <path fill="currentColor" d="M47.81,8.23c-2.61-2.63-5.74-4.71-9.1-6.11.99,2.44,1.6,5.05,1.71,7.73,2.37-.68,4.88-1.23,7.38-1.62h0Z"/>
    <path fill="currentColor" d="M52.05,13.67c-1.06-1.79-2.32-3.45-3.77-4.98.13,1.84.1,3.68-.14,5.5,1.28-.23,2.59-.4,3.91-.53Z"/>
    <path fill="currentColor" d="M3.94,42.34c1.06,1.78,2.32,3.44,3.77,4.96-.02-.31-.04-.64-.05-.95-.06-1.53.01-3.04.2-4.53-1.28.22-2.59.4-3.91.53h0Z"/>
    <path fill="currentColor" d="M8.18,47.78c2.6,2.63,5.73,4.7,9.07,6.09-.99-2.45-1.58-5.04-1.69-7.69-2.39.68-4.88,1.21-7.38,1.6h0Z"/>
    <path fill="currentColor" d="M22.97,18.26h0c2.42-1.79,5.08-3.39,7.93-4.78.66-4.8-.83-9.66-3.86-13.47-2.27.07-4.54.43-6.7,1.04,4.47,4.57,5.64,11.6,2.61,17.21h0Z"/>
    <path fill="currentColor" d="M32.97,37.82s-.01,0-.01.01h0c-2.44,1.78-5.08,3.38-7.89,4.74-.65,4.79.84,9.61,3.85,13.41,2.27-.07,4.57-.43,6.71-1.04-4.44-4.54-5.63-11.52-2.65-17.12h0Z"/>
    <path fill="currentColor" d="M35.9,25.13s0,0-.01.01c2.65-1.65,5.63-3.01,8.86-3.99.68-1.66,1.2-3.35,1.55-5.06-2.43.53-4.77,1.23-6.98,2.08-.77,2.42-1.93,4.76-3.41,6.95Z"/>
    <path fill="currentColor" d="M49.25,46.2c1.85-2.17,3.38-4.61,4.51-7.26-3.83.91-6.44,4.16-4.51,7.26Z"/>
    <path fill="currentColor" d="M14.01,27.08c-4.15,2.28-9.02,3.52-13.87,3.65.15,1.49.41,2.97.78,4.39,3.17-.14,6.36-.69,9.25-1.52,1-2.27,2.3-4.45,3.83-6.53Z"/>
    <path fill="currentColor" d="M20.09,30.88s0-.01.01-.02c-2.64,1.65-5.61,3-8.83,3.99-.69,1.65-1.21,3.34-1.57,5.06,2.42-.53,4.76-1.23,6.98-2.08.77-2.42,1.93-4.76,3.41-6.95h0Z"/>
  </g>
</svg>