<svg xmlns="http://www.w3.org/2000/svg" xml:space="preserve" viewBox="0 0 460 190">
    <g fill="#727271" opacity=".3">
        <path d="M133 79.52c15-4.35 28.19-8.91 39.15-18.24 4.04-3.45 7.95-7.07 9.9-12.24 1.59-4.24.85-7.29-3.01-9.67-2.9-1.79-6.01-3.59-9.27-4.39-6.65-1.61-13.43-3.22-20.22-3.65-24.9-1.58-49.24 2.04-72.97 9.58-5.62 1.78-10.98 4.5-16.27 7.15-4.28 2.14-7.56 5.53-9.55 9.98-1.38 3.08-.09 5.63 3.31 6.31 8.63 1.73 17.31 2.52 26.12 1.36 5.88-.78 11.8-1.32 17.72-1.7 1.97-.13 3.99.55 6.59.95-1.07 1.38-1.53 2.59-2.14 2.67-12.39 1.61-24.77 3.63-37.32 2.96-4.04-.22-8.14-.73-12.03-1.78-8.17-2.21-10.48-8.86-5.81-15.95 3-4.55 7.17-7.8 11.86-10.44 7.98-4.48 16.69-7.02 25.41-9.49 16.02-4.53 32.51-6.09 49.04-7.08 11.27-.68 22.44.77 33.54 2.96 5.09 1.01 9.5 3.2 13.63 5.94 8.07 5.35 9.55 13.95 3.91 22.02-4.37 6.26-10.29 10.93-16.96 14.53-8.24 4.45-16.56 8.72-25.89 10.64-3.92.81-7.67 2.49-11.92 3.91-3.37 9.68-6.76 19.39-10.1 29.13-.61 1.8-1.02 3.7-3.46 3.67-1.92-.01-2.9-2.38-1.9-5.29 2.13-6.2 4.45-12.34 6.66-18.51.74-2.05 1.39-4.12 2.32-6.88-6.27.27-12.12.65-17.67 1.87-15.77 3.45-31.68 3.13-47.62 2.67-6.39-.18-12.2-2.23-17.64-5.44-.49-.29-.49-1.42-.9-2.79 5.06 1.28 9.44 2.64 13.9 3.44 3.96.72 8.03 1.03 12.06 1.14 12.18.35 24.26-.5 36.23-3.14 6.37-1.4 12.91-2.08 19.39-2.81 2.87-.32 4.65-1.8 5.66-4.18 1.46-3.45 2.67-7.01 3.87-10.56 2.2-6.51 4.31-13.04 6.47-19.55.19-.58.43-1.31.88-1.59.7-.45 1.69-.91 2.4-.73.76.2 1.85 1.13 1.86 1.76.02 1.8-.16 3.71-.74 5.41-2.42 7.09-5.03 14.11-7.51 21.17-.37 1.07-.46 2.26-.98 4.88m22.81 26.29c7.23-1.13 10.12-6.45 13.55-11.04 2.44-3.25 3.89-6.81 1.78-11.54-6.91 4.18-11.3 10.35-14.97 17.08-.74 1.36-.26 3.38-.36 5.5m21.9-3.62c7.73-4.87 12.42-10.36 15.27-17.47.58-1.44.74-3.13 1.62-4.31.55-.76 2.21-1.28 3.12-1.02.93.27 2.32 1.73 2.2 2.46-.5 3.05-1.53 6.01-2.29 9.03-.42 1.7-.68 3.44-1.25 6.36 2.07-1.19 3.2-1.58 3.98-2.34 3.91-3.81 5.93-8.73 7.74-13.76.4-1.13.73-2.53 1.58-3.19.81-.63 2.43-.87 3.35-.48.91.38 2.07 1.88 1.94 2.7-.39 2.42-1.32 4.77-2.11 7.12-.57 1.67-1.94 3.18-.73 5.83 1.94-1.7 4.08-3 5.41-4.87 2.71-3.77 5.77-7.59 7.26-11.87 3.79-10.85 8.42-21.44 10.24-32.97.92-5.8 3.22-11.39 5.07-17.01.47-1.41 1.38-2.88 2.52-3.79.72-.57 2.73-.65 3.29-.09 1.51 1.5 2.54 3.47 3.9 5.45-1.06 3.26-2.14 6.47-3.15 9.7-1.3 4.15-2.43 8.36-3.84 12.48-3.54 10.33-6.82 20.78-10.98 30.85-1.78 4.33-2.91 8.82-4.63 13.11-.77 1.92-1.75 3.77-2.81 6.05-2.41-1.45-4.2-2.52-6.22-3.75-3.89 2.69-7.86 5.1-12.93 4.02-1.02-.22-2.49.4-3.39 1.11-4.02 3.15-7.91 3.49-11.72-.49-4.33 2.98-8.38 5.78-11.81 8.15-4.55.18-5.9-2.92-7.38-5.18-3.95 2.4-7.2 4.87-10.83 6.45-4.93 2.16-10.44-1.97-10.08-7.35.14-2.12.71-4.37 1.69-6.25 3.5-6.73 8.22-12.53 14.27-17.16 4.52-3.46 7.74-2.86 11.08 1.62 2.61 3.48 3.56 7.13 2.29 11.42-.75 2.61-.97 5.38-1.67 9.44m192.88-43.36c1.23-1.51 2.46-3 4.6-5.6-4.09.95-4.65 3.01-4.6 5.6m18.68 5.26c-2.02 6.19-6.14 10.83-11.31 14.47-7.28 5.12-13.09 3.91-18.37-3.45-.55-.76-1.05-1.55-1.47-2.38-.28-.55-.36-1.19-.65-2.21 2.27-5.07 4.46-10.56 7.16-15.78 1.4-2.72 3.59-5.07 5.64-7.4 1.54-1.75 3.72-2.15 6.03-1.86 4.25.52 6.66 4.18 5.04 8.09-.95 2.29-2.19 4.52-3.68 6.49-2.26 2.98-4.91 5.66-7.28 8.56-1.51 1.86-2.81 3.91-4.18 5.84 2.56 2.07 4.64 1.59 6.6.47 5.92-3.38 9.87-8.5 12.74-14.58.92-1.95.21-3.58-.46-5.35-1.11-2.92-.39-5.67 1.64-7.84.94-1.01 2.61-1.78 3.96-1.82 1.57-.03 2.8 1.21 3 3.03.14 1.21.31 2.42.46 3.57 2.34.57 4.4 1.07 7.04 1.71-.26 1.94-.2 3.75-.76 5.33-1.05 2.93-2.57 5.69-3.7 8.6-.41 1.05-.28 2.32-.47 4.18 6.12-1.25 9.8-4.88 13.23-8.77.73-.82.78-2.32.95-3.54 1.28-9.39 4.43-18.2 8.34-26.75 4.39-9.63 10.29-18.58 13.36-28.83.17-.57.57-1.27 1.06-1.5 1.02-.47 2.35-1.18 3.21-.86.96.36 1.94 1.65 2.17 2.7.23 1.1-.27 2.46-.74 3.58-1.57 3.73-3.26 7.41-5.1 11.54.94 1.65 1.97 3.48 3.14 5.55 3.32-.73 6.34-1.38 9.35-2.05.9-.2 1.8-.55 2.72-.59 1.81-.09 3.13.96 3.26 2.63.08 1.01-.67 2.73-1.48 3.04-3.19 1.23-6.49 2.3-9.84 2.9-3.86.7-7.03 2.37-9.79 5.06-.88.86-1.83 2.31-2.79 2.35-6.23.25-7.15 5.3-8.55 9.52-1.47 4.43-2.42 9.08-3.07 13.71-.34 2.37.22 4.96.8 7.34.66 2.71 2.77 3.5 5.8 2.56.88-.27 1.67-.88 2.55-1.05.51-.1 1.4.21 1.62.61.4.73.83 1.86.54 2.48-1.88 4.06-6.69 5.75-10.12 3.37-2.26-1.57-4.08-3.77-6.59-6.17-1.58 1.17-3.16 2.54-4.93 3.58-2.14 1.26-4.34 2.57-6.7 3.24-4.45 1.27-8.09-1.47-8.59-6.03-.27-2.43-.61-4.85-.89-7.27.71-.17 1.39-.34 2.08-.51-.69.2-1.33.34-1.98.49M304.77 9.1c-4.68.43-8.05 2.64-10.49 6.02-3.82 5.31-7.94 10.52-10.88 16.31-4.8 9.43-9.09 19.17-12.95 29.02-3.31 8.41-6.07 17.1-4.02 26.47.2.88-.68 2.27-1.46 3.02-.8.78-3.25-.56-3.71-1.94-.38-1.18-.85-2.42-.83-3.63.07-3.73-.24-7.61.67-11.16 1.76-6.93 3.98-13.78 6.49-20.48 4.41-11.7 10.56-22.58 16.93-33.3 2.2-3.71 5.18-7.05 8.24-10.13 1.91-1.92 4.47-3.44 7.01-4.45 5.3-2.09 10.04.34 11.7 5.94.96 3.24 1.47 6.52 1.09 10.1-1.16 10.94-3.94 21.48-7.35 31.85-7.01 21.3-14.36 42.49-21.59 63.72-1.6 4.71-3.08 9.48-4.99 14.07-2.88 6.94-5.76 13.79-4.85 21.6.08.69-1.41 2.13-2.27 2.21-.98.09-2.64-.72-2.98-1.55-.67-1.66-1.14-3.71-.78-5.41 1.02-4.87 2.17-9.75 3.85-14.42 6.24-17.31 12.87-34.48 19.05-51.81 4.91-13.78 9.87-27.59 13.81-41.67 2.08-7.39 3.98-15.13 3.23-23.06-.14-1.54-.34-3.13-.88-4.55-.39-1.08-1.38-1.93-2.04-2.77m24.66 67.81c1.77.99 3.49 2.42 5.45 2.92 2.67.67 4.66-1.27 6.61-2.88 2.81-2.32 4.08-5.5 4.84-8.9.82-3.67-.36-7.51-2.63-8.37-3.1-1.17-5.53.58-7.54 2.55-3.95 3.86-5.84 8.78-6.73 14.68m7.66-24.6c1.69.76 2.24 1.24 2.77 1.22 4.12-.13 7.42 1.67 9.67 4.84 2.45 3.44 2.8 7.45 1.96 11.66-2.05 10.18-9.3 16.42-19.84 16.23-2.59-.05-4.71-.26-6.74 1.71-.94.91-3.69-.34-3.72-1.61-.05-2.75-.24-5.64.48-8.24 1.34-4.81 3.13-9.51 5-14.14 5.29-13.03 10.43-26.09 13.87-39.77.36-1.46 1.18-2.81 1.78-4.17 4.5 1.43 5.46 2.46 4.5 5.56-1.38 4.47-3.09 8.84-4.7 13.23-1.59 4.37-3.25 8.71-5.03 13.48m-5.43-35.45c-.61 2.69-1.13 6.74-2.46 10.5-4.86 13.74-10.07 27.34-14.98 41.06-2.18 6.1-3.89 12.37-5.95 18.51-.57 1.71-1.5 3.36-2.57 4.81-.41.55-1.79.8-2.53.57-.76-.23-1.61-1.13-1.82-1.91-.32-1.13-.36-2.48-.05-3.61.83-2.98 1.63-6.04 2.94-8.83 7.17-15.2 11.91-31.32 17.91-46.97 2.09-5.47 4.05-11.11 3.35-17.23-.19-1.62.73-3.39 2.58-2.96 1.21.27 2.2 1.81 3.13 2.92.33.4.2 1.19.45 3.14" class="st1"/>
        <path d="M279.12 67.27c1.59.15 4.38.24 7.08.77.95.19 1.95 1.34 2.45 2.29.55 1.05-1.21 3.35-2.52 3.35-4.29-.03-8.59-.07-12.85-.43-1-.08-2.34-1.27-2.69-2.24-.3-.83.39-2.86.99-3.02 2.03-.53 4.22-.47 7.54-.72m122.28 43.38c-12.06.87-24.1 1.73-36.16 2.61-24.06 1.76-48.15 3.28-72.18 5.41-16.89 1.49-33.76 3.5-50.56 5.87-20.16 2.85-40.33 5.8-60.32 9.67-21.46 4.14-42.71 9.38-64.04 14.22-2.19.49-4.27 1.49-6.33 2.42-8.63 3.86-17.64 6.38-26.9 8.17-1.82.35-3.69.88-5.33 1.74-14.44 7.54-30.51 10.58-45.53 16.52-7.7 3.04-15.61 5.6-23.48 8.19-2.09.69-4.41.88-6.64.88-.76 0-1.97-1.21-2.15-2.04-.19-.87.32-2.45 1.03-2.86 2.25-1.33 4.69-2.38 7.13-3.32 45.49-17.5 92.01-31.59 139.51-42.52 22.04-5.07 44.18-9.27 66.57-12.36 23.51-3.23 46.92-7.24 70.51-9.69 9.6-.99 19.41-2.52 29.23-1.16 1.44.2 3.13.14 4.44-.42 6.14-2.64 12.61-1.88 18.99-2.26 8.28-.49 16.53-1.38 24.8-2.12 11.65-1.04 23.29-2.3 34.96-3.08 6.76-.45 13.58-.25 20.36-.01 1 .03 2.7 1.85 2.71 2.85 0 1.09-1.53 3.03-2.52 3.12-6 .54-12.03.66-18.06.92 0-.25-.02-.5-.04-.75" class="st1"/>
    </g>
</svg>