<svg width="214" height="88" viewBox="0 0 214 88" fill="none" xmlns="http://www.w3.org/2000/svg">
<path d="M62.2238 37.0112C69.3342 34.9504 75.5901 32.7872 80.7837 28.3616C82.7005 26.7264 84.5534 25.0112 85.4781 22.5568C86.2334 20.5472 85.8813 19.1008 84.0509 17.9744C82.6749 17.1264 81.2029 16.272 79.6574 15.8944C76.5054 15.1296 73.2925 14.368 70.0702 14.1632C58.2654 13.4144 46.7262 15.1296 35.4782 18.704C32.8158 19.5488 30.275 20.8384 27.763 22.096C25.7342 23.1104 24.179 24.72 23.235 26.8256C22.579 28.288 23.1902 29.4944 24.803 29.8176C28.8958 30.6368 33.0078 31.0144 37.187 30.4608C39.9742 30.0928 42.7806 29.8368 45.587 29.6544C46.5214 29.5936 47.4782 29.9136 48.7134 30.1056C48.2078 30.7584 47.987 31.3344 47.699 31.3696C41.8238 32.1312 35.9582 33.0912 30.0062 32.7744C28.0926 32.6688 26.147 32.4288 24.3038 31.9296C20.4318 30.8832 19.3374 27.728 21.5486 24.368C22.9694 22.2112 24.947 20.6688 27.171 19.4208C30.9534 17.296 35.0846 16.0928 39.219 14.9216C46.8158 12.7744 54.6334 12.0352 62.467 11.5648C67.8078 11.2416 73.1038 11.9296 78.3678 12.9696C80.7806 13.4464 82.8734 14.4864 84.8317 15.7856C88.659 18.3232 89.3597 22.3968 86.6878 26.224C84.6142 29.1904 81.8109 31.4048 78.6493 33.1104C74.7421 35.2192 70.7998 37.2448 66.3742 38.1568C64.515 38.5408 62.739 39.3376 60.723 40.0128C59.1262 44.6016 57.5166 49.2064 55.9326 53.8208C55.6414 54.6752 55.4494 55.5744 54.2942 55.5616C53.3822 55.5552 52.9214 54.4352 53.395 53.0528C54.403 50.112 55.5037 47.2032 56.5534 44.2784C56.9022 43.3088 57.2126 42.3264 57.6542 41.0144C54.6814 41.1424 51.9102 41.3248 49.2766 41.9008C41.7982 43.536 34.259 43.3856 26.7006 43.168C23.6734 43.0816 20.915 42.1088 18.339 40.5888C18.1086 40.4512 18.1086 39.9168 17.9102 39.264C20.307 39.872 22.3838 40.5152 24.5022 40.896C26.3806 41.2352 28.307 41.3824 30.2174 41.4368C35.9934 41.6032 41.7182 41.2 47.3918 39.9488C50.4094 39.2832 53.5102 38.9632 56.5854 38.6144C57.9454 38.4608 58.7902 37.76 59.267 36.6304C59.9614 34.9952 60.5342 33.3056 61.1038 31.6224C62.1469 28.5376 63.1454 25.44 64.1726 22.352C64.2622 22.0768 64.3742 21.7312 64.5886 21.5968C64.9182 21.3856 65.3918 21.1648 65.7246 21.2512C66.083 21.3472 66.6013 21.7888 66.6045 22.0864C66.6142 22.9408 66.531 23.8432 66.2558 24.6496C65.1102 28.0096 63.8718 31.3376 62.6942 34.688C62.5118 35.2064 62.467 35.7696 62.2238 37.0112Z" fill="#727478"/>
<path d="M83.4171 47.7602C87.0811 45.453 89.3051 42.8482 90.6587 39.4786C90.9339 38.797 91.0107 37.997 91.4267 37.4338C91.6891 37.0754 92.4731 36.829 92.9051 36.9506C93.3467 37.0786 94.0059 37.773 93.9483 38.1186C93.7115 39.565 93.2219 40.9698 92.8635 42.4002C92.6651 43.2066 92.5403 44.0322 92.2715 45.4146C93.2539 44.8482 93.7883 44.6658 94.1563 44.3074C96.0123 42.4994 96.9659 40.1698 97.8267 37.7858C98.0187 37.2514 98.1723 36.5858 98.5755 36.2754C98.9595 35.9778 99.7275 35.8626 100.166 36.0482C100.598 36.2274 101.148 36.9378 101.087 37.3282C100.902 38.477 100.46 39.5906 100.086 40.7042C99.8171 41.4978 99.1675 42.2114 99.7403 43.4658C100.662 42.6594 101.673 42.045 102.307 41.1586C103.59 39.3698 105.043 37.5618 105.75 35.5298C107.545 30.3842 109.74 25.3634 110.604 19.8978C111.043 17.149 112.131 14.4994 113.007 11.8338C113.228 11.165 113.663 10.4674 114.204 10.0386C114.547 9.76661 115.497 9.72821 115.763 9.99701C116.476 10.7074 116.969 11.6418 117.612 12.5794C117.11 14.125 116.598 15.645 116.118 17.1778C115.5 19.1458 114.966 21.1426 114.297 23.0946C112.62 27.9938 111.062 32.9442 109.094 37.7218C108.249 39.7762 107.715 41.901 106.899 43.9394C106.534 44.8514 106.07 45.725 105.564 46.8066L102.614 45.0306C100.767 46.3074 98.8891 47.4466 96.4859 46.9346C96.0027 46.8322 95.3051 47.1266 94.8795 47.4594C92.9723 48.9538 91.1291 49.1138 89.3211 47.2258L83.7211 51.0882C81.5643 51.1746 80.9243 49.7058 80.2203 48.6306C78.3483 49.7698 76.8059 50.9378 75.0843 51.6898C72.7451 52.7138 70.1371 50.7554 70.3067 48.205C70.3739 47.2002 70.6427 46.1314 71.1067 45.2418C72.7675 42.0514 75.0043 39.2994 77.8715 37.1042C80.0155 35.4626 81.5387 35.7506 83.1259 37.8722C84.3611 39.5234 84.8155 41.2514 84.2139 43.2866C83.8523 44.5218 83.7499 45.8338 83.4171 47.7602ZM73.0363 49.4754C76.4635 48.9378 77.8331 46.4162 79.4587 44.2434C80.6171 42.701 81.3019 41.0146 80.3035 38.7746C77.0267 40.7554 74.9467 43.6834 73.2059 46.8706C72.8571 47.5106 73.0843 48.4706 73.0363 49.4754Z" fill="#727478"/>
<path d="M183.715 29.6965C182.755 32.6309 180.803 34.8325 178.355 36.5573C174.902 38.9861 172.147 38.4101 169.644 34.9221C169.382 34.5637 169.15 34.1882 168.947 33.7957C168.816 33.5365 168.777 33.2325 168.64 32.7493C169.715 30.3461 170.755 27.7445 172.035 25.2677C172.7 23.9781 173.737 22.8645 174.707 21.7573C175.436 20.9285 176.47 20.7397 177.564 20.8741C179.577 21.1205 180.72 22.8549 179.952 24.7109C179.504 25.7957 178.915 26.8549 178.208 27.7893C177.136 29.2005 175.878 30.4709 174.755 31.8469C174.038 32.7301 173.424 33.6997 172.771 34.6149C173.984 35.5973 174.969 35.3669 175.9 34.8357C178.707 33.2325 180.579 30.8069 181.942 27.9237C182.38 26.9989 182.041 26.2277 181.724 25.3893C181.2 24.0069 181.539 22.7013 182.502 21.6741C182.947 21.1973 183.737 20.8293 184.377 20.8133C185.123 20.7973 185.705 21.3861 185.798 22.2501C185.862 22.8261 185.945 23.3957 186.016 23.9429L189.353 24.7557C189.232 25.6773 189.26 26.5349 188.992 27.2837C188.492 28.6725 187.776 29.9813 187.238 31.3605C187.043 31.8597 187.107 32.4613 187.017 33.3413C189.916 32.7493 191.664 31.0277 193.289 29.1813C193.635 28.7909 193.657 28.0805 193.737 27.5045C194.342 23.0533 195.84 18.8773 197.692 14.8229C199.776 10.2565 202.569 6.0165 204.025 1.1557C204.105 0.886898 204.297 0.554096 204.528 0.445297C205.011 0.221298 205.641 -0.114704 206.048 0.0388985C206.502 0.208496 206.969 0.822895 207.075 1.3189C207.184 1.8405 206.947 2.4837 206.723 3.0149C205.98 4.7845 205.177 6.52849 204.307 8.48689L205.795 11.1173L210.227 10.1477C210.656 10.0517 211.081 9.88849 211.516 9.8693C212.374 9.8245 213.001 10.3237 213.062 11.1141C213.1 11.5941 212.742 12.4101 212.361 12.5541C210.851 13.1365 209.286 13.6453 207.696 13.9301C205.865 14.2597 204.361 15.0533 203.056 16.3269C202.636 16.7365 202.188 17.4213 201.731 17.4405C198.777 17.5589 198.342 19.9525 197.68 21.9557C196.982 24.0549 196.534 26.2597 196.224 28.4549C196.064 29.5781 196.326 30.8069 196.604 31.9365C196.918 33.2197 197.92 33.5973 199.353 33.1493C199.769 33.0213 200.144 32.7333 200.563 32.6533C200.803 32.6053 201.228 32.7525 201.331 32.9445C201.52 33.2901 201.724 33.8245 201.587 34.1221C200.694 36.0453 198.416 36.8485 196.787 35.7221C195.715 34.9797 194.854 33.9333 193.664 32.7973C192.915 33.3509 192.166 34.0037 191.324 34.4965C190.31 35.0917 189.267 35.7157 188.15 36.0325C186.041 36.6341 184.316 35.3349 184.076 33.1749C183.948 32.0229 183.785 30.8773 183.654 29.7285L184.64 29.4853L183.715 29.6965ZM174.86 27.2005L177.04 24.5445C175.1 24.9957 174.835 25.9749 174.86 27.2005Z" fill="#727478"/>
<path d="M143.654 3.62541C141.433 3.83022 139.836 4.87661 138.681 6.47981C136.87 8.99501 134.918 11.4686 133.523 14.2142C131.248 18.6846 129.216 23.3022 127.382 27.9742C125.814 31.9614 124.502 36.083 125.475 40.5214C125.568 40.9406 125.152 41.5998 124.784 41.955C124.403 42.323 123.241 41.6894 123.027 41.0334C122.844 40.4734 122.624 39.8846 122.633 39.3118C122.665 37.5422 122.521 35.7022 122.95 34.019C123.785 30.7326 124.835 27.4846 126.028 24.3102C128.118 18.7646 131.036 13.6062 134.054 8.52461C135.097 6.76461 136.512 5.18061 137.961 3.72141C138.867 2.80941 140.08 2.08942 141.286 1.61261C143.798 0.62381 146.048 1.77581 146.832 4.42861C147.286 5.96461 147.529 7.51981 147.35 9.21901C146.8 14.4062 145.481 19.4046 143.865 24.3166C140.54 34.4158 137.059 44.4606 133.628 54.5246C132.87 56.7582 132.169 59.0206 131.264 61.1966C129.897 64.4862 128.531 67.7342 128.966 71.4366C129.004 71.763 128.297 72.4478 127.891 72.483C127.427 72.5278 126.64 72.1438 126.48 71.747C126.163 70.9598 125.939 69.987 126.108 69.1806C126.592 66.8734 127.139 64.5566 127.936 62.3422C130.892 54.1342 134.038 45.9966 136.966 37.779C139.292 31.2446 141.644 24.6974 143.513 18.0222C144.499 14.5182 145.401 10.851 145.043 7.09101C144.976 6.36141 144.883 5.60941 144.627 4.93421C144.435 4.42861 143.964 4.02541 143.654 3.62541Z" fill="#727478"/>
<path d="M158.979 24.1123C159.779 24.4739 160.041 24.6979 160.294 24.6915C162.246 24.6307 163.811 25.4819 164.88 26.9859C166.041 28.6147 166.208 30.5187 165.808 32.5155C164.838 37.3411 161.398 40.3011 156.403 40.2083C155.174 40.1859 154.169 40.0867 153.206 41.0211C152.761 41.4531 151.456 40.8611 151.443 40.2595C151.417 38.9539 151.331 37.5843 151.67 36.3523C152.304 34.0739 153.152 31.8435 154.041 29.6483C156.547 23.4723 158.985 17.2771 160.617 10.7939C160.79 10.1027 161.177 9.46267 161.462 8.81627C163.597 9.49467 164.051 9.98427 163.597 11.4499C162.941 13.5683 162.131 15.6387 161.369 17.7219C160.608 19.7923 159.824 21.8531 158.979 24.1123ZM155.347 35.7763C156.185 36.2435 157.001 36.9251 157.929 37.1587C159.197 37.4787 160.141 36.5571 161.062 35.7955C162.393 34.6947 162.998 33.1875 163.357 31.5779C163.744 29.8403 163.184 28.0195 162.109 27.6099C160.64 27.0531 159.488 27.8851 158.534 28.8195C156.665 30.6467 155.769 32.9763 155.347 35.7763Z" fill="#727478"/>
<path d="M156.406 7.30296C156.115 8.57976 155.868 10.4998 155.238 12.2822C152.934 18.7942 150.464 25.2454 148.137 31.7478C147.104 34.6406 146.294 37.6134 145.318 40.5254C145.046 41.3382 144.608 42.119 144.099 42.807C143.904 43.0694 143.251 43.1878 142.899 43.0758C142.54 42.967 142.134 42.5382 142.035 42.1702C141.884 41.6326 141.862 40.9926 142.009 40.4582C142.403 39.0438 142.78 37.5942 143.404 36.2726C146.803 29.0662 149.052 21.4246 151.894 14.007C152.886 11.4118 153.814 8.73976 153.481 5.83736C153.392 5.06936 153.827 4.23096 154.704 4.43256C155.28 4.56056 155.747 5.29016 156.188 5.81496C156.348 6.00376 156.284 6.38136 156.406 7.30296Z" fill="#727478"/>
<path d="M189.468 51.7665C183.753 52.1761 178.039 52.5889 172.326 53.0049C160.918 53.8401 149.5 54.5601 138.105 55.5681C130.096 56.2753 122.099 57.2257 114.137 58.3489C104.579 59.6993 95.0171 61.1009 85.5419 62.9345C75.3691 64.8993 65.2923 67.3793 55.1835 69.6769C54.1467 69.9105 53.1579 70.3841 52.1819 70.8225C48.0923 72.6529 43.8171 73.8465 39.4267 74.6945C38.5627 74.8609 37.6763 75.1137 36.8987 75.5201C30.0507 79.0945 22.4347 80.5377 15.3115 83.3505C11.6603 84.7905 7.91313 86.0065 4.18193 87.2353C3.18993 87.5617 2.08914 87.6545 1.03634 87.6545C0.677937 87.6545 0.101934 87.0817 0.0187341 86.6881C-0.0708659 86.2753 0.172335 85.5265 0.505135 85.3313C1.57394 84.7009 2.72913 84.2017 3.88753 83.7569C25.4555 75.4625 47.5067 68.7809 70.0283 63.6001C80.4763 61.1969 90.9755 59.2033 101.587 57.7409C112.732 56.2081 123.833 54.3073 135.014 53.1489C139.564 52.6785 144.217 51.9553 148.87 52.5985C149.555 52.6913 150.355 52.6657 150.976 52.4001C153.888 51.1489 156.953 51.5073 159.98 51.3281C163.904 51.0945 167.817 50.6753 171.737 50.3233C177.26 49.8305 182.777 49.2321 188.31 48.8641C191.516 48.6497 194.748 48.7457 197.964 48.8577C198.438 48.8737 199.244 49.7345 199.248 50.2081C199.248 50.7233 198.524 51.6449 198.054 51.6865C195.209 51.9425 192.348 52.0001 189.491 52.1249L189.468 51.7665Z" fill="#727478"/>
</svg>
