<svg width="309" height="280" viewBox="0 0 309 280" fill="none" xmlns="http://www.w3.org/2000/svg">
<path d="M250.857 41.5301C250.156 42.6053 250.07 42.3781 249.699 42.8357C249.327 43.2965 248.508 44.1221 248.211 44.5445C247.958 44.9061 247.939 45.2869 247.459 45.7669C246.985 46.1573 246.515 46.3333 246.278 46.1701C246.019 46.0453 245.785 46.0229 245.545 45.8629C245.308 45.7061 245.273 45.3317 245.311 44.9125C245.391 44.0869 244.812 43.9205 245.331 42.6757C245.526 42.1829 245.215 42.0613 245.343 41.4437C245.612 40.2053 244.857 40.2789 245.295 39.1589C245.465 38.7013 245.014 38.3525 244.985 37.8917C244.844 36.7365 243.58 37.2677 242.47 36.7109C241.855 36.3845 241.363 36.2373 240.719 37.0053C240.067 37.8053 239.459 38.4613 238.835 39.8597C237.417 42.8933 237.279 41.8789 235.814 44.2597C235.206 45.2709 234.38 45.9621 234.035 46.8869C233.276 48.1925 233.795 48.6629 231.641 50.6821C231.081 51.1909 231.148 51.2389 231.087 51.5493C230.969 52.1349 230.518 53.0725 230.886 53.7605C231.043 54.0389 231.177 54.7013 231.465 54.8517C231.775 55.0565 232.342 55.1717 233.382 55.6805C234.281 56.1029 234.348 56.1509 234.412 56.6277C234.777 58.4613 234.351 58.7141 233.062 58.7781C231.452 58.7269 230.908 57.2261 229.158 56.2373C228.867 56.0837 227.926 55.8565 227.366 55.3093C226.739 54.7141 226.39 54.5701 225.974 54.1637C224.969 53.3189 225.635 53.0117 224.31 52.4837C223.142 52.0133 222.812 52.6309 221.596 51.8757C221.123 51.5557 220.694 51.4533 220.188 51.1173C219.724 50.8517 219.609 50.5957 219.27 50.1509C218.911 49.7381 218.614 49.4501 218.46 49.1653C218.291 48.8357 218.268 48.5125 218.147 48.2565C217.772 47.2997 218.211 46.1765 219.647 47.1781C220.06 47.4469 220.982 47.6197 222.14 48.3877C222.646 48.7269 222.847 48.9477 223.196 48.8709C223.561 48.8485 223.622 48.9733 223.964 48.9829C225.116 49.0405 225.644 47.7125 226.127 47.0213C226.422 46.5989 226.857 46.2629 227.209 45.6133C227.91 44.1765 229.075 43.7157 229.523 43.2197C229.823 42.9317 229.612 42.6629 229.977 42.2821C230.649 41.6741 230.662 41.9429 230.975 41.1397C231.238 39.7637 231.718 39.8597 232.556 38.6533C233.065 37.9237 233.311 37.0725 234.031 35.6101C234.383 34.8197 235.017 34.0517 234.982 33.6773C234.879 32.6789 234.678 31.3957 233.907 30.7973C232.499 29.8149 231.843 29.8277 231.222 29.7157C230.23 29.6389 228.342 30.0613 227.209 31.1173C226.671 31.6037 226.207 32.1317 225.827 32.1061C225.439 32.1573 225.043 32.3749 224.595 32.3013C223.689 32.3173 222.601 31.3733 224.185 29.8149C224.537 29.5237 225.081 28.5989 225.228 28.3909C225.414 28.2053 225.769 28.0421 226.041 27.6517C226.374 27.2517 226.633 26.4485 227.305 25.4821C227.935 24.5765 229.017 24.0997 229.324 24.0805C229.622 24.0165 230.55 24.1893 231.023 24.5029C231.843 25.0469 230.412 24.4517 233.862 26.7877C236.243 28.3717 236.393 28.2949 237.539 29.0085C238.713 29.7477 239.151 30.1221 239.571 30.4453C239.977 30.7205 239.983 30.5029 241.257 31.3893C243.142 32.6885 242.636 32.6181 243.113 32.9317C243.721 33.3445 245.295 33.5877 246.841 34.6597C247.894 35.3605 248.943 36.6309 249.446 36.7013C249.923 36.7973 250.351 36.9029 250.927 37.2901C251.468 37.6517 251.913 38.1605 252.022 38.8581C252.054 39.6741 252.214 39.8661 252.121 40.0709C251.417 41.3733 251.308 40.8133 250.857 41.5301Z" fill="#BC6E44"/>
<path d="M237.219 74.6981C236.339 74.0005 236.723 74.2181 235.801 73.1365C234.601 71.7637 235.231 71.4149 235.052 70.5189C235.017 70.1253 235.203 69.7189 235.516 69.1077C235.801 68.4645 236.182 68.0581 236.822 67.6005C237.391 67.2485 238.969 67.3317 239.67 67.5973C240.307 67.7669 240.787 68.5733 240.94 68.9221C241.065 69.1813 241.727 70.8325 241.241 71.6389C240.774 72.5253 240.771 72.6917 241.219 73.1621C241.66 73.6869 241.663 73.5781 242.044 73.7445C242.86 74.0741 243.017 74.2053 243.926 73.8437C244.323 73.6869 244.534 73.8789 244.694 74.0677C244.876 74.2277 245.059 74.3877 245.167 74.5157C245.247 74.6053 244.783 75.0341 244.415 75.1205C243.18 75.3765 239.507 76.5541 237.219 74.6981ZM265.692 71.0597C263.689 70.1221 264.118 70.3429 263.084 70.5573C262.547 70.7237 262.07 70.3269 261.449 70.5669C260.569 70.9061 260.121 70.4357 259.071 70.8581C258.531 71.0853 257.446 72.2117 256.524 72.8421C255.577 73.5013 255.654 73.0213 254.518 73.5173C253.075 73.9973 253.391 73.3253 252.035 73.7925C251.721 73.8885 250.886 73.5173 250.223 73.3733C248.927 73.1077 247.974 75.0149 246.796 74.6629C246.604 74.5541 246.479 74.4005 246.271 74.0933C246.07 73.7925 246.518 73.1749 246.79 72.7525C247.084 72.3557 247.535 72.1989 247.929 71.6293C248.316 71.1109 247.862 71.3189 248.364 70.1925C249.052 68.6501 248.239 67.2805 250.687 64.4901C251.574 63.4693 251.158 63.5973 251.699 62.7461C253.241 60.3749 251.923 60.1317 253.443 58.1925C253.827 57.6741 253.548 57.2261 253.705 56.3717C253.923 55.8341 253.577 55.5909 254.057 54.3781C254.537 53.2165 255.782 53.7797 256.07 54.1125C257.561 55.7733 257.785 55.2837 259.385 57.0149C259.727 57.3669 260.143 58.4837 260.457 58.8581C260.764 59.2293 261.625 59.8405 261.606 60.7397C261.11 63.3189 259.385 60.2341 256.729 63.7605C255.711 65.0885 256.163 64.9317 255.603 65.5365C255.046 66.1413 254.137 67.0213 254.201 67.4917C254.425 68.5125 253.862 68.6469 254.086 69.1429C254.479 70.0165 254.975 70.1445 255.372 69.9269C256.15 69.4085 256.409 70.2917 257.775 69.6133C257.977 69.5045 258.361 69.6133 258.55 69.7221C259.324 69.7221 259.465 69.2517 261.011 68.2725C262.617 67.2389 261.718 66.4613 262.553 65.3765C262.703 65.1493 262.467 64.4581 262.975 64.2085C263.436 63.8917 263.731 64.0709 263.977 64.1317C265.801 64.8485 265.82 64.4197 266.863 65.7637C269.145 68.7109 268.297 68.0421 268.803 68.9861C269.308 69.9365 268.582 70.5093 267.865 70.9317C267.148 71.2933 266.559 71.5077 265.692 71.0597Z" fill="#BC6E44"/>
<path d="M254.265 98.5731C253.507 96.2179 253.126 97.0051 252.131 94.4995C251.942 94.0035 251.571 93.5523 251.468 92.9827C251.42 92.4291 251.302 92.3523 251.097 91.7347C250.691 90.3267 250.591 89.6643 251.174 89.3251C252.147 88.7651 252.191 90.8163 254.444 91.1427C255.212 91.1971 255.516 91.3283 256.265 91.0851C257.769 90.6019 256.934 90.4835 259.891 89.3123C260.761 88.9731 261.052 89.0659 261.699 88.7779C262.316 88.5027 262.415 88.1059 263.219 87.7987C265.596 86.8835 264.355 86.8611 265.99 85.9619C267.321 85.2803 267.321 86.2531 268.723 85.3731C269.711 84.9347 270.46 85.1331 271.561 83.7667C271.852 83.4211 271.987 83.5363 272.396 83.0915C272.806 82.6467 272.451 82.7619 272.671 81.7379C273.155 79.7603 272.204 79.3923 272.873 77.9939C273.145 77.4307 273.987 77.6355 274.582 77.7699C275.193 77.9427 275.107 78.3779 275.174 78.6979C275.26 78.9699 275.551 79.1459 275.715 79.7795C276.239 81.7955 276.345 80.7811 277.023 82.1571C277.561 83.2355 277.017 83.2099 277.187 84.2787C277.587 86.8355 276.758 85.4819 277.017 87.8371C277.135 88.4419 277.167 88.7811 276.78 89.0851C276.329 89.3699 275.801 89.3827 275.382 89.2611C273.673 88.7811 274.147 89.7123 272.377 89.0915C271.987 88.9507 271.385 89.0819 270.412 89.6451C269.372 90.1475 269.881 90.5411 268.668 91.1203C267.401 91.8563 267.545 90.9987 266.329 92.2819C265.881 92.7427 265.507 93.0883 264.684 93.5363C263.865 93.9843 263.779 94.5059 263.452 94.9603C263.107 95.3731 262.905 95.0243 262.7 94.6723C262.499 94.3235 262.294 94.4163 261.798 94.1507C260.713 93.5715 258.575 94.6403 258.297 95.4723C258.127 95.9011 258.06 95.9299 257.43 96.4259C256.124 97.4403 257.468 99.2707 255.593 99.3955C255.113 99.4307 254.617 99.6931 254.265 98.5731ZM273.737 104.468C271.763 104.548 272.051 103.847 271.164 103.888C270.211 103.949 269.919 103.424 269.359 103.629C268.777 103.792 268.348 103.677 267.161 103.498C265.961 103.316 266.07 102.74 265.065 102.349C264.006 101.933 264.009 101.674 263.756 101.12C263.5 100.573 263.401 100.09 262.995 99.4755C262.601 98.8131 262.364 97.9459 262.691 97.5843C263.017 97.2195 263.343 97.3859 263.599 97.4947C264.06 97.6835 263.59 98.9923 265.804 100.48C266.569 100.976 266.739 100.906 267.404 100.919C268.121 100.96 268.223 101.178 268.7 101.05C269.161 100.98 272.489 99.7347 273.583 99.2515C274.649 98.6947 274.831 99.0115 275.497 98.0547C276.15 97.1491 276.083 97.6259 276.579 97.0979C277.503 95.9843 278.182 96.7395 278.803 95.1459C278.972 94.8067 279.177 94.7171 279.199 93.9587C279.151 92.3523 278.454 92.6115 278.508 91.3155C278.527 90.9123 278.393 90.5283 278.307 89.9907C278.14 89.4531 277.798 89.0723 278.057 88.8291C278.281 88.5987 278.652 88.8739 278.857 88.9603C279.062 89.0435 279.129 88.8387 279.606 88.9827C280.851 89.3571 280.969 89.6995 281.241 90.0227C281.497 90.3011 281.257 90.2371 281.494 90.7459C281.731 91.2579 281.679 90.9731 281.971 91.5939C282.444 92.6115 281.385 92.4643 282.217 94.7843C282.521 95.6163 281.958 95.7379 281.971 96.3043C282.003 96.9059 281.507 97.6931 281.35 98.1635C280.643 100.103 280.268 99.6483 280.012 100.336C279.599 101.485 279.222 101.559 279.139 101.914C278.982 102.548 278.431 103.146 277.548 103.357C276.713 103.594 275.702 104.349 273.737 104.468Z" fill="#BC6E44"/>
<path d="M270.62 123.738C269.689 122.775 269.817 122.096 269.9 121.383C269.951 121.085 269.852 120.778 269.715 120.317C269.571 119.805 269.731 119.284 269.481 119.005C268.889 118.388 268.825 117.703 268.748 117.146C268.639 116.634 268.396 116.029 268.659 115.607C268.982 115.13 268.783 114.925 269.299 114.66C269.83 114.436 270.217 115.008 270.691 115.45C271.548 116.263 272.774 116.266 273.43 116.298C274.982 116.032 274.758 116.615 276.316 116.384C276.684 116.314 276.63 116.036 278.601 115.77C279.443 115.6 279.798 115.287 280.169 115.21C281.087 115.031 282.742 115.808 284.998 113.232C285.487 112.644 285.599 113.197 285.846 112C286.086 110.765 286.204 110.573 286.534 110.512C286.867 110.445 287.612 110.912 287.769 111.29C287.884 111.677 287.894 112.82 288.009 113.376C288.188 113.869 288.806 114.98 288.876 115.332C289.027 115.876 288.899 115.984 289.014 116.532C289.321 118.397 288.025 118.244 286.7 118.669C285.91 118.909 285.852 119.37 284.943 119.588C284.095 119.764 283.59 119.533 282.665 119.671C281.772 119.805 281.996 120.138 280.777 120.336C279.519 120.541 279.801 120.08 278.547 120.282C277.331 120.525 277.622 121.165 275.785 121.527C274.047 121.831 273.692 121.978 273.398 122.781C273.132 123.485 272.767 124.333 271.951 124.455C271.183 124.608 271.148 124.247 270.62 123.738ZM294.14 117.444C292.87 117.037 293.35 117.149 292.374 116.525C291.468 115.844 291.439 115.152 291.513 114.196C291.539 113.248 292.083 113.101 292.825 112.42C293.599 111.735 294.537 111.834 295.321 111.76C296.15 111.677 296.927 112.304 297.19 113.194C297.436 114.007 297.75 114.026 297.83 114.586C297.887 115.06 297.795 116.068 297.452 116.298C296.963 116.682 296.985 117.328 296.249 117.479C295.542 117.578 295.487 117.872 294.14 117.444Z" fill="#BC6E44"/>
<path d="M275.315 149.444C274.873 148.836 274.646 149.319 273.897 148.189C273.712 147.908 273.411 147.946 273.04 147.418C272.822 147.057 272.566 145.729 272.345 145.169C272.16 144.605 271.197 143.076 271.2 141.911C271.245 140.746 271.51 140.906 271.965 139.543C272.425 138.18 272.921 136.737 273.299 136.295C273.981 135.498 274.061 134.458 275.184 134.145C275.555 134.02 275.901 133.383 276.352 133.261C276.803 133.105 276.88 132.503 277.705 132.308C278.979 132.033 278.384 131.546 279.017 131.549C279.283 131.549 279.805 131.636 280.291 131.642C280.966 131.642 281.193 131.041 283.408 131.377C284.64 131.543 285.014 131.946 285.497 132.273C286.397 132.877 285.945 132.839 286.691 133.482C287.881 134.615 289.488 135.306 289.939 135.796C290.198 136.036 290.045 136.477 290.224 136.957C290.342 137.322 290.563 137.607 290.672 137.802C290.816 139.207 291.19 139.012 291.11 139.857C290.992 141.181 291.629 141.261 291.549 141.869C291.392 143.153 291.766 142.474 291.757 144.682C291.753 145.197 291.379 146.122 290.771 146.439C289.949 146.874 290.208 147.085 289.827 147.281C289.453 147.521 289.68 147.636 289.075 148.119C288.624 148.516 288.515 148.439 287.945 148.673C287.312 148.951 286.07 149.665 284.573 149.175C284.121 149.018 283.862 148.452 283.449 148.209C283.04 147.962 282.969 147.719 282.822 147.437C282.675 147.197 282.336 147.076 282.192 146.634C282.08 146.231 282.461 144.785 282.838 144.266C283.142 143.828 283.817 143.831 284.192 143.671C284.605 143.514 284.755 143.591 285.168 143.597C285.881 143.601 285.725 144.401 287.491 144.093C288.125 143.975 288.317 143.175 288.848 142.052C289.001 141.773 288.851 141.569 288.777 141.332C288.707 141.124 288.451 139.642 288.342 139.194C288.195 138.717 288.121 138.596 287.709 138.471C286.813 138.103 287.267 137.706 285.766 137.498C284.496 137.329 284.649 136.765 283.257 137.117C282.96 137.197 281.984 137.188 281.494 137.188C281.049 137.188 280.525 137.021 280.073 137.3C279.734 137.498 279.248 137.457 278.758 137.697C278.233 137.933 278.045 137.853 277.446 137.889C276.768 138.007 277.222 138.09 276.509 138.167C275.798 138.202 275.417 138.759 275.302 139.082C275.149 139.684 274.697 139.882 274.358 140.679C274.051 141.524 274.649 142.09 274.528 143.293C274.489 143.693 274.749 144.058 274.822 144.375C275.155 144.903 275.606 144.951 276.201 145.674C276.349 145.879 276.534 145.834 276.758 146.077C277.357 146.724 277.504 146.845 277.99 147.089C279.443 148.186 279.296 148.301 279.216 149.105C279.216 149.505 279.213 149.348 278.608 150.183C278.006 151.025 277.037 150.413 276.589 150.215C276.102 150.049 275.504 149.684 275.315 149.444Z" fill="#BC6E44"/>
<path d="M268.432 166.954C267.984 165.703 268.377 165.133 268.749 164.512C268.918 164.26 268.953 163.94 269.021 163.463C269.097 162.944 269.465 162.532 269.347 162.173C269.065 161.376 269.289 160.724 269.449 160.18C269.561 159.674 269.593 159.021 270.003 158.74C270.493 158.432 270.397 158.167 270.982 158.125C271.558 158.125 271.677 158.804 271.926 159.392C272.377 160.477 273.494 160.96 274.083 161.245C275.613 161.613 275.168 162.052 276.694 162.461C277.059 162.535 277.123 162.26 279.033 162.791C279.878 162.967 280.329 162.823 280.701 162.9C281.616 163.092 282.806 164.452 285.933 162.983C286.63 162.634 286.505 163.184 287.229 162.186C287.958 161.149 288.141 161.024 288.47 161.095C288.8 161.168 289.293 161.885 289.273 162.292C289.222 162.692 288.755 163.744 288.637 164.295C288.595 164.816 288.697 166.074 288.617 166.426C288.531 166.98 288.371 167.028 288.246 167.581C287.76 169.408 286.64 168.762 285.248 168.624C284.429 168.535 284.182 168.935 283.257 168.781C282.416 168.599 282.045 168.196 281.139 167.959C280.265 167.738 280.333 168.122 279.136 167.824C277.897 167.52 278.355 167.207 277.117 166.903C275.907 166.65 275.907 167.344 274.07 166.954C272.358 166.554 271.974 166.554 271.376 167.162C270.835 167.706 270.157 168.343 269.357 168.138C268.589 167.972 268.704 167.629 268.432 166.954ZM292.56 170.429C291.561 169.559 291.961 169.844 291.331 168.887C290.781 167.908 291.04 167.268 291.501 166.423C291.92 165.565 292.477 165.645 293.433 165.312C294.425 164.986 295.245 165.447 296 165.687C296.784 165.94 297.245 166.813 297.117 167.732C297.005 168.573 297.277 168.714 297.12 169.258C296.976 169.719 296.473 170.599 296.073 170.676C295.459 170.839 295.206 171.437 294.48 171.287C293.792 171.098 293.619 171.351 292.56 170.429Z" fill="#BC6E44"/>
<path d="M262.8 187.997C261.184 186.756 260.889 185.85 261.28 184.01C261.561 182.989 262.051 183.105 262.057 181.585C262.057 180.186 262.617 180.026 263.161 179.335C264.425 177.85 264.464 178.871 265.66 178.103C266.06 177.831 266.476 178.09 266.822 178.058C267.161 178.023 267.459 177.709 267.961 177.965C268.48 178.266 269.126 178.189 269.814 178.471C271.609 179.21 271.801 178.593 272.284 178.884C272.704 179.233 274.368 179.53 276.48 181.319C277.196 181.924 277.728 182.01 278.457 182.397C278.78 182.577 278.563 182.621 279.238 182.378C280.579 182.017 280.432 182.916 281.414 182.055C281.6 181.921 281.923 181.921 282.208 181.553C282.486 181.188 282.576 181.271 282.889 181.575C283.168 181.863 283.027 182.199 283.379 182.695C283.782 183.169 283.942 183.453 284.211 183.956C284.72 185.037 285.049 185.965 285.878 186.305C286.294 186.477 287.168 186.708 287.5 186.973C287.83 187.245 288.556 188.375 288.585 188.781C288.713 189.14 288.688 189.479 288.428 189.978C288.236 190.423 287.993 190.5 287.248 190.535C287.062 190.5 286.832 190.372 286.544 190.378C285.158 190.372 285.532 190.173 284.998 189.908C284.515 189.709 284.576 189.473 284.214 189.37C283.872 189.226 283.488 189.063 283.049 189.233C281.814 189.639 282.326 190.244 281.35 190.97C280.851 191.284 280.844 191.377 280.336 192.173C279.76 192.935 280.006 193.21 279.446 193.549C278.912 193.937 278.192 194.375 277.59 194.081C276.62 193.597 276.579 192.753 276.899 191.921C277.168 191.117 276.953 191.332 277.097 190.823C277.42 189.607 277.257 189.799 277.481 189.108C277.696 188.417 278.16 188.298 277.945 187.946C277.766 187.613 277.094 186.068 276.025 185.626C274.988 185.197 272.035 183.754 271.28 183.7C269.267 183.652 268.966 182.573 268.281 182.548C266.502 182.506 266.652 182.177 266.294 182.161C264.963 182.301 264.627 182.602 264.332 183.092C263.676 184.129 263.804 185.796 264.864 186.538C265.28 186.714 265.833 187.028 266.236 187.415C266.588 187.825 266.844 187.796 267.468 188.314C268.153 188.903 268.067 189.655 267.68 189.889C267.26 190.106 266.499 189.703 265.091 189.473C263.702 189.204 264.163 189.085 263.747 188.913C263.344 188.708 263.497 188.548 262.8 187.997Z" fill="#BC6E44"/>
<path d="M248.924 211.556C248.854 210.964 248.358 210.567 248.278 210.116C248.249 209.655 248.076 209.389 247.82 207.725C247.561 206.013 247.875 206.279 248.07 205.629C248.272 204.977 248.07 205.133 248.905 203.492C249.603 202.109 250.252 203.297 251.417 201.591C252.387 200.145 252.624 200.013 253.494 199.335C254.329 198.634 253.625 199.031 254.72 198.365C255.782 197.671 255.692 198.103 256.726 197.885C257.817 197.658 257.641 197.837 257.9 197.863C258.972 197.972 258.54 197.869 259.696 197.738C261.177 197.677 261.555 198.292 262.832 198.938C264.409 199.741 264.182 198.791 265.244 199.482C266.46 200.279 266.163 200.81 267.158 201.905C267.577 202.391 267.529 202.9 268.252 204.045C268.71 204.807 268.31 204.781 268.729 205.469C269.152 206.157 269.008 207.092 269.02 207.642C268.972 208.209 269.177 208.935 269.142 209.607C269.088 210.311 268.62 210.82 268.489 211.124C268.409 211.421 268.425 212.023 268.163 212.385C267.641 213.153 267.542 213.037 267.072 213.549C266.192 214.554 266.233 214.247 265.734 214.935C264.592 216.41 264.364 216.346 263.651 216.692C262.937 217.034 261.913 217.799 261.42 217.898C260.979 217.94 259.804 217.463 259.219 217.7C258.63 217.93 258.963 217.665 258 217.786C256.073 218.02 254.246 215.863 253.865 214.999C253.648 214.602 253.593 213.924 253.862 213.569C254.147 213.175 255.104 212.506 255.328 212.266C255.542 211.975 255.462 211.77 255.84 211.444C257.36 210.129 257.232 209.053 257.616 208.532C257.776 208.247 258.048 208.189 258.646 207.127C259.244 206.061 259.862 205.604 259.939 205.313C259.984 204.996 259.798 204.625 259.705 204.311C259.606 203.946 259.702 203.565 259.324 203.258C257.017 201.197 256.729 201.642 255.782 201.677C255.308 201.69 254.924 201.521 254.55 201.604C253.603 201.882 253.571 201.607 253.206 202.049C252.8 202.599 251.36 204.362 250.95 205.169C250.028 207.738 250.707 208.007 250.784 208.65C250.816 209.613 251.18 209.623 251.36 210.193C251.644 211.181 251.808 212.279 251.587 212.58C251.475 212.791 251.548 213.137 251.305 213.271C251.084 213.453 250.512 213.85 249.849 213.437C249.184 213.021 249.027 212.17 248.924 211.556ZM261.824 213.594C262.512 213.725 263.062 214.106 264.316 213.153C265.184 212.477 264.988 213.124 265.648 212.157C266.572 210.778 265.996 210.625 266.041 209.623C266.096 209.114 265.712 208.695 265.542 208.231C265.385 207.821 265.318 207.284 264.217 206.519C263.129 205.805 263.062 205.956 262.441 206.365C261.849 206.794 261.324 207.066 261.11 207.361C260.224 208.621 260.71 208.714 260.086 209.562C259.465 210.407 258.755 211.994 259.728 212.871C260.256 213.284 260.62 213.345 261.824 213.594ZM270.281 218.845C270.393 218.378 269.907 218.285 269.974 217.885C270.035 217.485 269.584 216.973 269.865 216.337C270.099 215.457 269.516 215.057 269.628 214.343C269.606 213.933 269.241 213.425 269.321 213.188C269.404 212.948 269.235 212.682 269.257 212.401C269.267 212.013 269.456 211.009 270.179 211.021C271.062 210.948 270.86 212.039 271.344 212.324C271.564 212.525 271.715 212.884 271.827 213.105C272.681 213.706 272.083 213.828 272.976 214.753C273.228 215.025 273.052 215.396 272.979 215.745C272.956 216.023 273.203 216.193 273.475 216.577C273.651 217.095 273.875 217.796 273.833 218.161C273.708 219.457 274.128 219.946 273.43 220.893C272.931 221.578 271.411 222.202 270.707 220.964C270.256 220.26 270.256 219.319 270.281 218.845Z" fill="#BC6E44"/>
<path d="M192.742 242.909C193.305 242.573 193.6 242.237 194.39 241.799C195.196 241.395 195.862 241.456 197.03 240.483C197.651 239.879 197.593 240.144 198.451 240.035C199.257 239.914 199.382 239.415 199.904 239.463C201.312 239.543 200.819 238.237 202.16 238.762C202.79 239.034 202.563 239.216 202.585 239.648C202.633 240.519 201.257 240.576 201.206 241.808C201.129 242.41 200.71 242.477 200.86 243.376C201.056 244.739 201.446 244.797 201.571 245.347C201.808 246.41 202.825 247.315 203.488 249.274C203.622 249.651 203.683 250.067 204.435 250.698C205.481 251.552 205.164 251.655 205.532 252.048C206.243 252.775 206.627 253.69 207.478 253.744C208.3 253.859 208.342 254.039 208.844 253.853C209.328 253.632 209.622 253.581 210.291 253.552C210.963 253.533 210.764 253.303 211.312 252.65C211.846 251.962 212.307 252.157 212.518 250.976C212.723 249.792 212.992 249.875 212.364 248.467C211.83 247.053 212.048 246.759 211.926 246.208C211.676 245.114 210.803 245.187 209.174 241.376C208.409 239.584 207.692 239.507 206.944 239.088C206.195 238.656 206.195 238.938 205.699 239.325C205.203 239.712 204.896 239.45 204.64 239.482C203.657 239.61 203.142 238.915 203.558 238.647C203.92 238.359 203.644 238.445 204.112 237.994C204.601 237.488 205.068 237.235 206.467 236.643C207.897 236.029 207.932 236.301 208.454 236.061C208.979 235.821 208.505 235.677 209.475 235.239C210.15 234.928 209.836 235.434 211.11 234.858C212.025 234.397 211.881 234.103 212.614 234.013C213.382 233.904 213.5 233.776 213.99 233.949C214.835 234.295 214.348 234.797 214.019 235.146C212.624 236.509 213.651 237.248 213.785 238.762C213.875 239.805 214.688 239.802 214.832 240.864C214.931 241.463 215.398 242.538 216.051 243.05C216.684 243.523 216.592 243.607 217.062 244.403C217.475 245.178 217.142 245.335 217.481 245.859C217.808 246.359 217.811 246.557 217.92 246.871C218.352 248.17 218.377 247.751 219.436 248.154C220.441 248.547 220.089 248.103 220.79 248.429C221.561 248.803 221.507 248.791 222.665 248.263C223.696 247.754 223.542 247.623 223.696 247.271C223.846 246.922 224.214 246.835 224.217 245.706C224.188 244.589 224.518 245.29 224.528 244.355C224.518 243.475 224.473 243.091 224.358 242.179C223.798 238.525 222.723 238.65 222.153 236.41C221.894 235.482 221.091 234.077 220.694 233.527C220.08 232.72 218.857 233.68 217.833 233.335C217.18 233.111 216.931 232.496 216.988 232.231C217.084 231.946 217.449 231.859 217.74 231.325C217.92 231.04 218.147 230.938 218.7 231.05C219.238 231.127 219.584 230.81 220.46 230.371C223.331 228.951 222.387 229.738 223.1 229.335C223.776 228.947 224.281 227.994 225.222 227.69C226.208 227.363 226.166 227.664 227.136 227.984C228.108 228.311 227.814 229.213 227.267 229.501C226.208 230.141 225.974 230.691 226.003 231.319C226.172 232.535 225.747 232.887 225.939 233.485C226.147 234.115 226.912 235.904 227.216 236.448C227.539 237.031 228.105 236.893 228.374 237.453C228.515 237.754 228.297 238.256 228.499 238.768C228.972 239.76 229.513 239.757 229.952 241.818C230.048 242.211 230.707 242.643 231.318 242.682C232.844 242.839 232.131 242.96 232.963 242.989C234.24 243.015 234.675 243.053 234.892 243.517C235.116 243.981 234.713 244.285 234.083 244.771C233.452 245.261 233.302 246.096 232.131 246.589C231.532 246.858 230.483 247.415 230.144 247.373C228.918 247.28 228.841 247.114 228.003 247.171C227.078 247.229 226.972 246.915 226.435 247.114C225.948 247.338 225.244 248.061 224.86 248.394C224.438 248.746 224.588 249.245 223.475 249.869C222.966 250.141 222.995 250.573 222.329 250.995C221.104 251.751 220.62 251.69 219.817 252.013C219.152 252.234 217.868 252.013 217.491 251.981C216.556 251.837 215.913 251.53 215.824 251.53C215.139 251.715 214.048 253.056 213.715 253.491C213.356 253.895 212.848 255.011 212.633 255.235C212.284 255.635 211.785 255.539 210.953 256.557C210.659 256.816 210.403 256.365 209.926 256.704C208.502 257.712 208.944 257.111 207.536 257.584C205.574 258.234 205.532 257.485 204.355 257.299C203.228 257.123 203.766 257.207 203.046 256.845C202.313 256.531 202.284 257.149 201.084 256.243C200.515 255.821 199.721 253.962 199.302 253.267C198.595 251.978 197.318 248.81 196.736 247.786C195.132 244.89 194.272 246.407 192.496 245.642C191.76 245.331 191.488 244.567 191.625 243.818C191.715 243.053 192.176 243.248 192.742 242.909Z" fill="#BC6E44"/>
<path d="M167.74 249.482C168.143 249.031 168.102 248.407 168.387 248.042C168.719 247.706 168.809 247.402 169.884 246.09C171.001 244.746 171.011 245.146 171.638 244.848C172.262 244.554 172.006 244.516 173.811 244C175.337 243.556 174.87 244.832 176.943 244.506C178.691 244.221 178.953 244.301 180.054 244.461C181.145 244.589 180.371 244.349 181.612 244.679C182.854 244.973 182.467 245.204 183.334 245.799C184.236 246.426 183.99 246.416 184.14 246.621C184.787 247.463 184.572 247.082 185.452 247.824C186.495 248.839 186.291 249.527 186.665 250.874C187.132 252.551 187.695 251.744 187.887 252.973C188.105 254.381 187.503 254.528 187.353 255.981C187.27 256.618 186.854 256.928 186.479 258.221C186.211 259.066 185.964 258.765 185.727 259.527C185.491 260.292 184.691 260.832 184.281 261.21C183.823 261.559 183.414 262.199 182.886 262.631C182.319 263.066 181.612 263.079 181.295 263.188C181.02 263.332 180.575 263.754 180.131 263.812C179.193 263.959 179.212 263.805 178.511 263.818C177.148 263.872 177.417 263.693 176.559 263.796C174.675 263.988 174.566 263.783 173.827 263.501C173.084 263.223 171.814 263.008 171.404 262.727C171.078 262.436 170.639 261.271 170.07 261.012C169.497 260.749 169.916 260.807 169.177 260.196C167.695 258.976 168.092 256.208 168.483 255.351C168.639 254.928 169.113 254.429 169.564 254.375C170.054 254.314 171.203 254.544 171.532 254.538C171.9 254.496 172.003 254.301 172.502 254.349C174.521 254.551 175.247 253.722 175.903 253.648C176.223 253.572 176.454 253.728 177.66 253.434C178.867 253.14 179.628 253.271 179.903 253.127C180.169 252.948 180.326 252.56 180.502 252.282C180.707 251.965 181.055 251.773 181.036 251.296C181.027 248.247 180.502 248.346 179.836 247.69C179.503 247.36 179.375 246.973 179.052 246.756C178.204 246.269 178.387 246.064 177.811 246.096C177.113 246.176 174.812 246.343 173.932 246.596C171.372 247.68 171.622 248.349 171.183 248.845C170.483 249.517 170.726 249.783 170.415 250.295C169.862 251.175 169.142 252.032 168.774 252.08C168.531 252.148 168.319 252.426 168.063 252.346C167.766 252.308 167.084 252.17 166.95 251.415C166.809 250.656 167.343 249.968 167.74 249.482ZM174.931 260.093C175.292 260.676 175.375 261.328 176.943 261.581C178.044 261.741 177.417 262.039 178.598 261.86C180.265 261.581 179.987 261.063 180.777 260.42C181.196 260.112 181.251 259.552 181.487 259.117C181.686 258.724 182.047 258.311 181.881 257.008C181.679 255.748 181.523 255.799 180.796 255.632C180.076 255.498 179.513 255.306 179.142 255.354C177.596 255.578 177.855 255.991 176.793 256.116C175.727 256.244 174.063 256.81 174.057 258.096C174.099 258.759 174.303 259.066 174.931 260.093ZM176.684 269.706C177.11 269.469 176.851 269.06 177.199 268.832C177.542 268.608 177.622 267.936 178.297 267.706C179.116 267.274 179.03 266.586 179.641 266.186C179.939 265.892 180.067 265.287 180.303 265.184C180.537 265.082 180.627 264.781 180.854 264.602C181.148 264.349 182.038 263.796 182.521 264.333C183.174 264.912 182.211 265.504 182.319 266.042C182.313 266.34 182.153 266.692 182.054 266.922C182.185 267.936 181.686 267.597 181.596 268.855C181.561 269.229 181.161 269.348 180.854 269.536C180.627 269.709 180.662 269.997 180.553 270.455C180.281 270.928 179.907 271.565 179.603 271.783C178.54 272.573 178.454 273.21 177.27 273.348C176.409 273.456 174.915 272.791 175.366 271.447C175.599 270.647 176.31 270.004 176.684 269.706Z" fill="#BC6E44"/>
<path d="M137.136 242.551C137.754 242.336 138.058 241.936 138.746 242.029C140.301 242.234 141.837 243.14 143.018 243.328C144.237 243.495 144.362 243.808 144.822 244.052C145.206 244.288 145.229 244.733 146.096 244.775C147.824 244.893 146.886 244.18 149.325 244.544C149.856 244.612 150.157 244.541 149.811 244.941C149.603 245.242 148.707 245.716 147.99 246.096C147.136 246.535 146.451 245.783 145.997 246.672C145.43 247.744 145.782 248.199 145.488 248.82C145.21 249.335 145.133 249.879 145.05 250.493C144.957 251.773 144.368 251.764 144.186 253.693C143.904 255.68 144.307 254 144.282 256.58C144.15 257.52 144.554 257.866 144.758 258.228C145.638 259.344 144.938 260.205 146.189 260.775C147.248 261.21 146.842 262.077 147.949 262.151C148.605 262.202 149.011 262.256 149.446 262.128C149.958 262.016 150.275 262.128 150.49 262.087C150.848 261.911 150.611 261.511 151.584 260.794C151.882 260.468 151.994 260.554 152.525 259.405C153.059 258.263 153.283 258.442 153.392 257.975C153.587 257.152 153.494 256.96 153.504 256.592C153.587 255.975 153.846 256.196 154.138 253.543C154.256 252.381 153.994 252.461 154.051 251.767C154.07 251.066 154.317 251.357 154.323 250.698C154.304 250.253 154.042 250.327 154.109 248.967C154.106 248.09 154.08 248.01 153.651 246.919C153.408 246.522 153.478 245.424 154.243 245.306C155.594 245.188 155.552 245.482 155.968 245.754C156.429 246.039 156.941 246.804 157.616 247.341C159.485 248.839 159.475 249.54 159.414 250.858C159.395 251.296 159.126 251.997 159.206 252.599C159.28 253.012 159.114 252.992 159.475 253.405C160.022 253.959 159.891 253.978 159.712 255.578C159.574 256.845 159.392 256.669 159.059 257.549C158.832 257.997 158.314 258.41 158.224 259.095C157.949 259.876 157.61 259.604 157.053 260.602C156.714 261.255 156.509 261.524 156.192 261.738C155.83 261.946 155.696 262.298 155.19 262.637C154.723 263.018 153.99 263.213 153.283 263.524C152.528 263.866 151.952 263.828 151.171 263.764C149.706 263.565 149.661 264.151 147.901 263.693C147.462 263.562 147.43 262.89 147.146 262.855C146.867 262.746 146.131 263.565 145.466 262.372C145.088 261.808 144.621 261.597 144.141 261.719C142.685 262.368 142.662 262.81 142.592 264.496C142.566 265.008 142.534 265.226 142.48 265.62C142.47 265.956 142.944 266.164 143.491 266.679C144.051 267.124 144.288 267.815 145.389 268.26C146.842 268.89 146.768 269.104 146.778 269.952C146.746 270.759 145.414 271.063 144.803 270.98C144.23 270.903 143.482 270.653 143.037 270.522C142.195 270.34 142.672 270.772 140.835 270.528C140.019 270.413 140.054 270.202 139.242 270.058C138.397 269.869 138.803 269.924 138.042 269.418C137.37 268.887 137.053 268.474 137.171 267.316C137.29 266.221 136.992 265.927 137.098 265.168C137.29 264.384 137.61 264.464 137.734 263.591C137.843 262.797 137.6 262.765 137.674 262.256C137.779 261.754 138.25 260.784 138.486 259.972C138.733 259.12 138.806 257.693 138.704 256.647C138.838 255.674 139.203 254.836 139.005 253.892C138.806 252.944 138.928 252.66 139.066 251.946C139.584 249.469 139.174 250.004 139.258 249.396C139.344 249.072 139.811 248.397 139.795 247.325C139.773 246.295 138.79 245.312 138.029 245.101C137.235 244.848 136.979 245.476 136.682 244.372C136.326 243.29 136.778 242.724 137.136 242.551Z" fill="#BC6E44"/>
<path d="M114.707 259.901C115.734 259.066 115.376 259.409 116.441 258.938C117.517 258.548 118.134 258.897 118.925 259.463C119.734 259.988 119.577 260.519 119.773 261.492C119.955 262.497 119.373 263.213 119.017 263.908C118.653 264.631 117.693 264.938 116.781 264.685C115.945 264.455 115.76 264.705 115.235 264.468C114.787 264.263 113.965 263.655 113.942 263.255C113.872 262.641 113.289 262.314 113.558 261.629C113.843 260.989 113.613 260.794 114.707 259.901ZM121.721 237.137C123.053 236.881 123.574 237.345 124.15 237.789C124.384 237.994 124.707 238.071 125.181 238.209C125.693 238.356 126.064 238.765 126.438 238.708C127.293 238.551 127.923 238.861 128.451 239.092C128.95 239.274 129.606 239.405 129.837 239.834C130.077 240.353 130.361 240.301 130.313 240.877C130.233 241.428 129.523 241.441 128.893 241.597C127.725 241.879 127.075 242.884 126.697 243.409C126.099 244.833 125.721 244.343 125.091 245.748C124.957 246.09 125.225 246.193 124.409 247.959C124.112 248.753 124.198 249.21 124.067 249.553C123.737 250.407 122.176 251.364 123.222 254.589C123.472 255.309 122.937 255.108 123.843 255.953C124.787 256.807 124.889 257.002 124.774 257.313C124.656 257.617 123.853 257.985 123.437 257.917C123.04 257.809 122.038 257.207 121.497 257.002C120.969 256.89 119.683 256.81 119.334 256.679C118.781 256.519 118.758 256.349 118.217 256.157C116.432 255.421 117.254 254.433 117.584 253.111C117.798 252.33 117.427 252.039 117.718 251.169C118.022 250.385 118.489 250.084 118.857 249.242C119.209 248.439 118.813 248.449 119.286 247.332C119.773 246.18 120.029 246.666 120.515 245.517C120.953 244.391 120.24 244.285 120.899 242.573C121.555 240.977 121.613 240.612 121.078 239.943C120.605 239.345 120.061 238.596 120.384 237.853C120.662 237.13 120.998 237.297 121.721 237.137Z" fill="#BC6E44"/>
<path d="M101.203 228.74C102.688 227.354 103.651 227.197 105.465 227.844C106.457 228.26 106.278 228.704 107.82 228.935C109.235 229.13 109.321 229.693 109.945 230.32C111.273 231.744 110.233 231.645 110.844 232.903C111.065 233.328 110.742 233.693 110.729 234.026C110.71 234.359 110.988 234.692 110.662 235.14C110.281 235.597 110.272 236.237 109.884 236.858C108.88 238.484 109.478 238.752 109.116 239.181C108.71 239.533 108.169 241.098 106.051 242.877C105.34 243.482 105.174 243.981 104.675 244.628C104.448 244.919 104.438 244.701 104.588 245.389C104.768 246.73 103.875 246.458 104.608 247.533C104.723 247.732 104.678 248.045 105.004 248.362C105.337 248.688 105.241 248.759 104.889 249.024C104.553 249.248 104.236 249.063 103.683 249.332C103.142 249.658 102.835 249.776 102.284 249.959C101.113 250.295 100.131 250.48 99.6668 251.229C99.4332 251.604 99.0684 252.413 98.7548 252.698C98.4316 252.976 97.1804 253.524 96.7708 253.488C96.3868 253.565 96.0476 253.488 95.574 253.168C95.1548 252.916 95.1068 252.676 95.1708 251.949C95.2348 251.77 95.4044 251.575 95.4364 251.293C95.6348 249.959 95.782 250.346 96.1276 249.869C96.3996 249.428 96.6332 249.52 96.79 249.188C96.982 248.874 97.1964 248.535 97.094 248.084C96.8508 246.839 96.1692 247.242 95.5644 246.202C95.3148 245.671 95.2252 245.661 94.4924 245.056C93.7948 244.391 93.4812 244.586 93.2188 244.004C92.902 243.428 92.5532 242.672 92.9372 242.128C93.5708 241.264 94.4348 241.348 95.2284 241.773C96.006 242.148 95.814 241.914 96.3164 242.119C97.5036 242.612 97.334 242.42 98.0028 242.733C98.678 243.047 98.7292 243.504 99.1164 243.351C99.478 243.22 101.139 242.797 101.744 241.828C102.323 240.89 104.211 238.244 104.368 237.527C104.7 235.588 105.846 235.453 105.961 234.797C106.252 233.088 106.572 233.277 106.64 232.938C106.675 231.629 106.422 231.268 105.964 230.912C105.004 230.132 103.292 230.02 102.39 230.935C102.16 231.312 101.763 231.799 101.305 232.135C100.844 232.413 100.835 232.666 100.214 233.197C99.5228 233.767 98.7708 233.581 98.5948 233.175C98.4316 232.736 98.95 232.058 99.3788 230.736C99.8524 229.437 99.9068 229.895 100.14 229.52C100.406 229.165 100.547 229.332 101.203 228.74Z" fill="#BC6E44"/>
<path d="M79.2094 211.843C79.8174 211.866 80.291 211.447 80.7646 211.431C81.2382 211.472 81.5358 211.347 83.251 211.347C85.0302 211.347 84.7166 211.613 85.3438 211.901C85.971 212.192 85.8494 211.968 87.3822 213.018C88.691 213.895 87.3854 214.343 88.9438 215.719C90.2686 216.864 90.3646 217.111 90.9246 218.048C91.5102 218.957 91.2094 218.218 91.7278 219.367C92.275 220.493 91.8494 220.343 91.9102 221.373C91.9838 222.455 91.8302 222.256 91.7598 222.503C91.491 223.52 91.667 223.12 91.6254 224.25C91.4654 225.68 90.7902 225.952 89.9454 227.088C88.899 228.487 89.891 228.41 89.0334 229.328C88.0478 230.378 87.5518 230.01 86.3006 230.807C85.7374 231.143 85.2286 231.018 83.9582 231.543C83.1198 231.869 83.2094 231.495 82.4478 231.795C81.6894 232.096 80.755 231.821 80.1982 231.754C79.635 231.626 78.8606 231.709 78.1854 231.578C77.4878 231.421 77.0334 230.896 76.7486 230.723C76.4606 230.608 75.843 230.535 75.523 230.224C74.8158 229.607 74.9502 229.533 74.499 229.005C73.603 228.003 73.9134 228.096 73.2926 227.511C71.9614 226.199 72.0606 225.984 71.8142 225.248C71.5774 224.512 70.947 223.411 70.9214 222.928C70.947 222.496 71.5998 221.434 71.4526 220.832C71.3054 220.237 71.5198 220.595 71.5422 219.648C71.5902 217.763 74.0478 216.327 74.9822 216.083C75.4142 215.936 76.1118 215.987 76.435 216.291C76.7934 216.627 77.3278 217.642 77.539 217.895C77.8014 218.144 78.0222 218.099 78.2974 218.512C79.4046 220.167 80.5182 220.202 80.9886 220.65C81.251 220.848 81.2702 221.117 82.2558 221.853C83.251 222.583 83.6222 223.245 83.9038 223.363C84.2174 223.45 84.6302 223.331 84.9598 223.283C85.3438 223.242 85.715 223.389 86.0862 223.075C88.515 221.159 88.1054 220.819 88.211 219.907C88.2654 219.45 88.4926 219.101 88.4702 218.723C88.3294 217.776 88.6046 217.786 88.2174 217.363C87.715 216.89 86.1406 215.248 85.3822 214.739C82.9214 213.472 82.5374 214.08 81.875 214.058C80.8926 213.946 80.8318 214.295 80.227 214.391C79.1838 214.515 78.0414 214.509 77.779 214.256C77.5742 214.112 77.2126 214.135 77.1166 213.882C76.963 213.635 76.643 213.031 77.1646 212.451C77.6862 211.872 78.5694 211.847 79.2094 211.843ZM75.2318 223.952C74.995 224.589 74.5278 225.059 75.3086 226.41C75.8622 227.347 75.2382 227.059 76.1182 227.843C77.3822 228.935 77.6222 228.403 78.6366 228.595C79.1422 228.723 79.6254 228.413 80.115 228.323C80.5598 228.221 81.107 228.243 82.0446 227.303C82.9342 226.355 82.787 226.272 82.467 225.613C82.1278 224.979 81.9262 224.435 81.6574 224.183C80.5086 223.146 80.3422 223.603 79.5774 222.871C78.8062 222.147 77.3054 221.235 76.275 222.039C75.779 222.483 75.6606 222.826 75.2318 223.952Z" fill="#BC6E44"/>
<path d="M55.1483 197.585C55.7467 197.405 56.3515 197.316 56.9659 197.505C57.9003 197.78 57.9771 198.298 58.2971 199.533C58.4987 200.311 58.1243 201.498 58.2715 201.93C58.3931 202.381 58.1339 202.73 58.2043 202.973C58.2683 203.409 58.9691 204.212 59.1739 204.321C59.9739 204.724 59.6027 204.769 60.2011 204.868C60.8379 204.954 62.3291 204.593 62.8347 204.138C63.4715 203.693 64.3451 202.909 64.9371 202.538C67.3371 201.041 67.1419 202.164 68.0507 201.316C68.5883 200.986 69.1323 200.733 69.8555 200.285C70.8091 199.697 71.2155 199.773 71.1579 197.86C71.1611 197.188 70.8219 196.257 71.3851 195.901C71.7947 195.649 72.2043 196.061 72.6011 196.337C73.1067 196.689 72.9659 196.679 73.5163 197.527C74.1723 198.452 73.8971 197.767 75.2731 199.866C75.9835 200.945 75.9227 201.46 76.3355 202.017C76.7099 202.586 76.7675 202.41 77.0939 202.967C77.3179 203.444 77.7339 203.805 76.9659 204.333C75.9547 204.964 75.2571 204.301 74.9787 204.481C74.3195 204.839 74.9691 204.532 72.6907 204.663C71.7499 204.724 71.6635 204.445 71.3051 204.577C69.9067 205.021 70.5499 206.138 68.8123 206.269C68.1947 206.276 67.2443 206.724 66.7067 207.201C66.1339 207.607 64.3163 208.836 63.7499 209.188C63.1451 209.562 62.6427 210.545 62.3867 211.511C62.1883 212.301 62.6651 213.149 62.0155 213.46C61.3243 213.751 61.2699 213.54 60.3323 212.983C60.1531 212.852 60.2107 212.535 60.0091 212.231C59.7851 211.895 59.3403 211.553 59.2091 211.351C58.7323 210.074 58.7739 210.954 57.9643 209.649C57.6059 209.108 57.4171 206.794 57.1099 206.324C56.7739 205.818 54.2459 204.532 53.3339 203.143C52.7131 202.199 53.3403 202.333 53.0523 201.229C52.9243 200.689 53.0939 200.202 52.7451 199.61C52.4891 199.146 52.5915 199.034 52.7707 198.637C52.9691 198.18 54.5947 197.885 55.1483 197.585Z" fill="#BC6E44"/>
<path d="M45.0621 173.482C45.6829 173.431 46.2941 173.469 46.8541 173.783C47.7085 174.244 47.6669 174.772 47.7085 176.039C47.7341 176.842 47.1037 177.927 47.1549 178.381C47.1709 178.842 46.8445 179.133 46.8573 179.386C46.8221 179.824 47.3309 180.756 47.5101 180.906C48.2077 181.472 47.8333 181.437 48.3965 181.658C48.9949 181.872 50.5405 181.831 51.1293 181.492C51.8525 181.188 52.8733 180.608 53.5421 180.368C56.2109 179.412 55.7725 180.464 56.8477 179.824C57.4461 179.613 58.0381 179.485 58.8445 179.197C59.9005 178.82 60.2813 178.98 60.6461 177.095C60.7965 176.442 60.6685 175.463 61.2989 175.236C61.7597 175.069 62.0637 175.562 62.3965 175.911C62.8029 176.365 62.6749 176.324 63.0333 177.271C63.4621 178.311 63.3437 177.584 64.2333 179.917C64.6909 181.124 64.5149 181.613 64.7869 182.247C65.0333 182.88 65.1325 182.72 65.3245 183.335C65.4397 183.853 65.7629 184.292 64.8989 184.644C63.7725 185.05 63.2317 184.256 62.9149 184.372C62.2013 184.583 62.8989 184.42 60.6493 184.071C59.7181 183.93 59.6893 183.642 59.3053 183.696C57.8461 183.834 58.2301 185.066 56.5053 184.826C55.8973 184.701 54.8701 184.944 54.2493 185.293C53.5933 185.578 51.5453 186.391 50.9149 186.618C50.2461 186.858 49.5293 187.716 49.0653 188.612C48.7037 189.338 48.9757 190.266 48.2781 190.429C47.5357 190.57 47.5325 190.352 46.7325 189.616C46.5949 189.45 46.7165 189.149 46.5917 188.81C46.4477 188.432 46.0861 188.007 45.9997 187.783C45.8141 186.436 45.6605 187.306 45.1549 185.86C44.9245 185.255 45.2509 182.954 45.0525 182.429C44.8381 181.863 42.6493 180.08 42.0637 178.538C41.6637 177.482 42.2429 177.741 42.2109 176.599C42.2013 176.045 42.4765 175.607 42.2653 174.954C42.1149 174.452 42.2429 174.362 42.5117 174.01C42.7965 173.607 44.4541 173.655 45.0621 173.482Z" fill="#BC6E44"/>
<path d="M52.8158 141.978C53.7374 142.113 53.5294 142.301 53.8334 142.583C54.4958 143.076 55.1294 142.676 55.699 143.297C55.8718 143.479 55.9166 144.481 56.0286 145.079C56.1406 145.665 56.2526 145.373 56.3454 145.844C56.4894 146.359 56.3934 147.133 56.307 147.348C55.8142 148.573 55.1358 148.573 54.8894 149.975C54.7582 150.116 54.643 150.407 54.6782 151.012C54.835 152.289 55.8238 152.01 56.963 154.5C57.1198 154.849 57.2926 155.348 57.5262 155.729C57.763 156.1 57.7118 156.916 58.003 157.447C58.2654 158.065 58.4894 158.644 58.5694 158.957C58.5982 159.197 58.0894 159.985 57.9486 160.689C57.811 161.393 57.6446 161.613 57.1934 162.231C56.9662 162.541 55.6702 163.338 55.3982 163.29C54.4862 163.233 53.6638 163.012 52.915 162.449C52.5758 162.125 52.2846 162.241 51.6094 161.956C50.8958 161.677 50.5534 161.069 50.163 160.634C49.4398 159.949 49.299 160.372 48.4318 158.852C48.2846 158.593 48.3614 157.978 48.035 157.77C47.6958 157.485 47.5742 157.098 47.3374 156.721C47.0718 156.388 47.0046 156.154 46.8926 154.951C46.7518 153.802 46.4638 153.873 46.323 153.69C46.051 153.316 46.1854 153.181 44.6302 152.231C43.8622 151.796 42.7646 152.369 42.3198 152.461C41.923 152.631 41.6638 152.945 41.0334 153.341C40.4414 153.732 40.4126 153.853 40.2654 154.199C40.1278 154.577 39.9294 154.842 39.9838 155.245C40.1406 156.836 40.3774 157.217 40.8254 157.809C41.2766 158.401 41.8302 158.301 42.467 158.26C43.1038 158.225 43.475 158.465 44.0222 158.605C46.2878 159.226 46.5438 160.977 46.4222 161.236C46.4318 161.313 46.0062 162.132 45.5678 162.583C44.9982 163.175 43.875 163.268 43.4238 163.281C43.1294 163.316 42.1822 163.908 41.235 163.297C40.579 162.845 40.0126 161.623 39.8142 161.242C39.6542 160.855 39.363 160.647 39.1134 160.471C38.227 158.801 37.2894 157.94 37.2062 157.22C37.043 156.554 37.315 155.393 37.0526 154.452C36.9342 154.103 37.4366 153.604 37.5102 153.268C37.6606 152.967 37.299 151.556 37.3246 151.153C37.3118 150.746 38.867 149.597 39.171 149.274C39.5166 148.993 39.7246 148.564 39.987 148.535C40.211 148.503 41.1806 148.113 41.427 147.959C41.6734 147.809 41.8014 147.633 42.771 147.559C43.7054 147.453 43.5774 147.629 44.211 147.556C44.8798 147.517 44.7102 147.05 46.323 146.941C47.5678 146.919 47.4622 147.293 48.4414 147.255C49.4558 147.223 49.3502 146.666 50.0542 146.583C51.0302 146.471 50.8382 147.098 52.2366 146.167C52.5118 145.975 53.0302 145.876 53.2094 145.53C53.3438 145.351 53.2798 144.829 53.1198 144.49C52.931 144.148 51.859 144.033 51.5102 143.988C51.1358 143.994 50.051 143.476 49.6446 143.242C49.267 142.961 49.3726 142.545 49.331 142.183C49.3086 141.421 50.3838 141.293 51.4206 141.7C52.019 141.946 51.8878 141.805 52.8158 141.978ZM48.7998 151.7C48.339 151.956 47.891 153.22 47.9806 153.978C48.0254 154.337 48.3134 154.506 48.4094 154.695C48.5438 154.884 48.979 155.601 49.251 156.292C49.7182 157.655 50.1438 157.121 50.9438 157.789C51.155 157.93 51.9102 157.965 52.2558 158.001C52.8606 158.013 54.451 158.026 54.8798 156.602C55.171 155.601 53.8878 152.884 53.299 152.388C53.0046 152.097 52.467 151.757 51.9902 151.53C51.4398 151.351 51.2926 151.409 50.9118 151.373C50.5246 151.3 49.7278 151.268 48.7998 151.7Z" fill="#BC6E44"/>
<path d="M56.6875 127.277C56.8763 127.546 56.8251 128.109 56.7547 128.583C56.6459 129.296 56.1371 128.903 55.9451 129.933C55.7083 131.031 56.2491 131.475 56.6075 132.618C56.7931 133.133 56.5499 133.507 56.4763 133.981C56.3259 135.015 56.3131 136.112 55.5707 136.49C55.2443 136.647 55.0107 136.938 54.5787 136.8C53.3083 136.41 53.3595 135.322 53.2955 134.743C53.2635 134.173 52.3579 133.155 51.0715 132.883C49.7787 132.663 49.6827 133.053 49.0875 132.973C47.4171 132.733 47.7115 132.045 45.3979 132.074C44.4827 132.115 44.6267 131.36 43.3819 131.344C41.5323 131.287 41.0587 130.896 40.5211 130.976C39.1099 131.264 38.4059 132.461 38.2299 132.842C38.0571 133.264 37.8523 134.125 36.9019 133.869C35.9547 133.616 36.3771 132.579 36.3931 131.975C36.4123 131.082 35.8139 130.263 36.5051 128.944C36.7067 128.608 36.5947 128.349 36.8987 127.827C37.2027 127.299 37.3371 127.437 37.9323 127.002C38.5211 126.592 38.8507 125.667 39.5835 125.328C40.1147 125.079 42.3451 125.879 43.4075 126.115C44.4571 126.429 44.9627 126.621 45.8299 127.146C46.6619 127.674 47.6635 127.811 47.8939 128.051C48.1563 128.291 48.6971 128.493 49.0459 128.423C51.3627 127.901 51.8203 128.896 53.8107 128.493C55.4555 128.157 54.6107 127.219 56.0251 126.858C56.3035 126.778 56.4635 126.96 56.6875 127.277ZM59.1611 112.736C59.5547 113.159 59.7691 113.514 59.6763 113.869C59.3307 115.155 58.1979 115.395 58.2427 117.354C58.2779 118.131 57.8363 118.835 57.9387 119.418C58.0091 119.959 57.9643 120.237 57.7403 120.73C57.5195 121.226 57.5899 121.479 57.4331 121.783C56.8123 122.871 56.4955 121.975 55.7947 121.066C54.7867 119.703 53.4523 118.983 52.4795 119.171C50.8379 119.507 49.5195 118.183 47.9163 118.519C46.3579 118.787 46.5179 117.994 44.5307 118.362C44.0603 118.458 43.4491 118.247 43.0651 118.272C42.6395 118.336 42.5723 118.288 41.7051 118.243C40.8091 118.157 40.6107 118.451 40.2907 119.341C39.9771 120.186 39.6251 120.259 39.8075 120.813C39.9067 121.395 39.7371 121.533 40.0027 122.256C40.2363 122.986 39.9867 123.149 39.7019 123.517C39.4331 123.843 39.4235 124.125 38.9723 124.103C38.4923 124.035 38.1595 123.463 37.8139 122.967C37.4811 122.426 37.6571 122.25 37.7915 121.338C38.1851 118.717 36.8571 119.258 38.7387 116.275C38.9403 115.939 39.0395 115.549 39.4491 115.082C39.8971 114.621 40.2587 114.992 41.1387 114.183C42.0155 113.376 41.4683 113.991 42.5915 113.338C43.7115 112.688 44.1819 113.079 45.0747 113.207C45.9643 113.331 46.9371 113.917 47.8939 114.093C49.9899 114.515 48.8955 113.991 51.3339 114.666C52.2811 114.922 52.1435 114.576 53.2027 114.851C54.2555 115.162 54.1051 114.896 54.6459 114.57C55.2219 114.243 55.7979 114.208 56.2139 113.699C56.5979 113.184 57.0139 112.675 57.7467 112.336C58.5211 111.997 58.8091 112.323 59.1611 112.736Z" fill="#BC6E44"/>
<path d="M42.5945 86.0322C42.5849 86.5122 43.0809 86.493 43.1129 86.8994C43.1385 87.3026 43.6953 87.7122 43.5545 88.397C43.5257 89.3026 44.1817 89.5714 44.2297 90.2946C44.3417 90.6914 44.8121 91.1042 44.7833 91.357C44.7577 91.6066 44.9849 91.8306 45.0265 92.1058C45.1001 92.4898 45.1417 93.5106 44.4313 93.6514C43.5833 93.9074 43.5417 92.797 43.0073 92.621C42.7481 92.4706 42.5177 92.1538 42.3577 91.9586C41.3945 91.5586 41.9513 91.3058 40.8761 90.5954C40.5625 90.381 40.6553 89.981 40.6457 89.629C40.6073 89.3538 40.3353 89.2354 39.9865 88.9154C39.6985 88.4482 39.3241 87.8146 39.2793 87.4466C39.1193 86.1538 38.5945 85.7634 39.0649 84.6914C39.4041 83.917 40.7449 82.9922 41.7113 84.0482C42.3097 84.6434 42.5145 85.5618 42.5945 86.0322ZM65.0553 88.6626C65.2569 89.229 65.8265 89.5074 66.0057 89.9362C66.1369 90.381 66.3641 90.6082 66.9817 92.1762C67.6153 93.7922 67.2537 93.5938 67.1993 94.2754C67.1513 94.9474 67.3145 94.7586 66.8601 96.5346C66.4857 98.0386 65.5929 97.005 64.8345 98.9186C64.2073 100.535 64.0057 100.714 63.3081 101.559C62.6457 102.416 63.2441 101.885 62.3289 102.765C61.4489 103.664 61.4361 103.226 60.4697 103.658C59.4585 104.106 59.5897 103.895 59.3305 103.92C58.2649 104.039 58.7065 104.051 57.6057 104.423C56.1785 104.787 55.6729 104.269 54.2841 103.914C52.5625 103.459 52.9945 104.336 51.8073 103.882C50.4409 103.36 50.6201 102.778 49.4041 101.92C48.8825 101.533 48.8185 101.027 47.8585 100.055C47.2473 99.4082 47.6377 99.3506 47.0745 98.7714C46.5177 98.1826 46.4409 97.2386 46.3129 96.7042C46.2329 96.1474 45.8745 95.4754 45.7593 94.813C45.6505 94.1186 45.9993 93.517 46.0569 93.1938C46.0665 92.893 45.9161 92.3074 46.0985 91.8978C46.4313 91.0402 46.5529 91.1298 46.9017 90.5346C47.5353 89.357 47.5641 89.6706 47.9033 88.8962C48.6809 87.213 48.9209 87.229 49.5417 86.7426C50.1625 86.2594 50.9945 85.2962 51.4489 85.0914C51.8745 84.9602 53.1257 85.1778 53.6441 84.8322C54.1657 84.477 53.9033 84.8066 54.8185 84.4866C56.6457 83.8498 58.9081 85.581 59.4713 86.333C59.7689 86.6754 59.9705 87.3314 59.7945 87.7346C59.5961 88.1826 58.8121 89.037 58.6521 89.3154C58.5049 89.6514 58.6297 89.8274 58.3289 90.2306C57.1385 91.8274 57.5033 92.8546 57.2441 93.4466C57.1513 93.7506 56.8953 93.8658 56.5497 95.0306C56.1977 96.1986 55.6985 96.7714 55.6889 97.0786C55.7113 97.3922 55.9801 97.7186 56.1401 98.0066C56.3193 98.3394 56.3097 98.733 56.7449 98.9538C59.4585 100.483 59.6345 99.981 60.5529 99.7538C61.0105 99.6418 61.4233 99.725 61.7753 99.5682C62.6361 99.0946 62.7289 99.3538 62.9849 98.845C63.2633 98.221 64.2745 96.1986 64.4921 95.3314C64.8217 92.6274 64.1017 92.5026 63.8841 91.8914C63.6377 90.957 63.2857 91.0274 62.9817 90.509C62.4825 89.6034 62.0793 88.5602 62.2265 88.2306C62.2905 87.997 62.1465 87.6738 62.3481 87.4946C62.5305 87.2642 62.9945 86.7586 63.7369 87.021C64.4793 87.2898 64.8185 88.0866 65.0553 88.6626ZM52.0121 89.3858C51.3113 89.4018 50.6905 89.1458 49.6825 90.333C48.9849 91.1778 49.0329 90.5026 48.6009 91.5906C47.9993 93.1298 48.6009 93.165 48.7769 94.1506C48.8409 94.6562 49.3113 94.9826 49.5737 95.4018C49.8233 95.7666 50.0057 96.2754 51.2441 96.8002C52.4697 97.261 52.4985 97.101 53.0137 96.573C53.4969 96.0322 53.9513 95.6482 54.0985 95.3186C54.6745 93.9042 54.1849 93.9138 54.6041 92.9602C55.0233 91.997 55.3625 90.3042 54.2201 89.6514C53.6185 89.357 53.2409 89.3762 52.0121 89.3858Z" fill="#BC6E44"/>
<path d="M80.7198 66.9092C80.7742 67.5044 81.2606 67.9076 81.331 68.362C81.3438 68.826 81.5102 69.098 81.7246 70.762C81.939 72.4868 81.6414 72.2084 81.4206 72.8516C81.203 73.4948 81.411 73.3476 80.5374 74.9636C79.8046 76.3364 79.187 75.13 77.9806 76.8004C76.9758 78.2244 76.739 78.3492 75.8526 79.0052C74.995 79.6772 75.7118 79.3028 74.6046 79.9428C73.5294 80.6052 73.6286 80.1764 72.5886 80.3652C71.4942 80.5668 71.6734 80.3972 71.4174 80.362C70.3486 80.2212 70.7742 80.3396 69.6158 80.4356C68.147 80.458 67.7822 79.834 66.5214 79.162C64.9662 78.3172 65.1678 79.2708 64.1246 78.5476C62.9374 77.7252 63.2446 77.1972 62.2814 76.0836C61.8686 75.5812 61.9326 75.0724 61.2382 73.9108C60.8062 73.1364 61.1998 73.1748 60.7966 72.474C60.3998 71.7764 60.5598 70.8452 60.5662 70.2916C60.6238 69.7348 60.4446 68.9956 60.4926 68.33C60.5662 67.626 61.043 67.13 61.187 66.826C61.267 66.538 61.267 65.9332 61.539 65.5844C62.0798 64.8228 62.1726 64.9444 62.6558 64.4452C63.5614 63.4564 63.5102 63.7668 64.0318 63.0948C65.203 61.6484 65.4302 61.7156 66.1502 61.3924C66.8734 61.066 67.9134 60.33 68.4062 60.2404C68.8478 60.218 70.0094 60.7172 70.5982 60.4996C71.1934 60.282 70.8542 60.5412 71.8206 60.4452C73.7502 60.2564 75.5134 62.4676 75.8782 63.3348C76.083 63.7412 76.1182 64.4196 75.8462 64.7716C75.5454 65.1556 74.5758 65.7988 74.3518 66.0292C74.1278 66.3204 74.2014 66.5252 73.8174 66.8452C72.2654 68.1092 72.3678 69.194 71.9678 69.7092C71.8014 69.9844 71.5294 70.0356 70.9022 71.0788C70.2782 72.1284 69.6574 72.5732 69.571 72.8612C69.5198 73.1748 69.6894 73.5588 69.779 73.866C69.8686 74.2372 69.763 74.6116 70.131 74.9316C72.387 77.05 72.6814 76.6084 73.6254 76.6052C74.099 76.5988 74.4766 76.778 74.8606 76.7076C75.8046 76.458 75.8366 76.7236 76.211 76.3012C76.6302 75.7572 78.1118 74.0324 78.5342 73.2388C79.5166 70.698 78.851 70.4068 78.7902 69.7572C78.787 68.7972 78.419 68.7812 78.259 68.2052C77.9934 67.21 77.859 66.1092 78.083 65.8212C78.2046 65.6036 78.147 65.258 78.3838 65.1332C78.6142 64.954 79.1902 64.5764 79.8494 65.0052C80.4958 65.4372 80.6334 66.2916 80.7198 66.9092ZM67.891 64.538C67.2126 64.3876 66.6782 63.994 65.395 64.9124C64.515 65.5684 64.7326 64.9188 64.0414 65.8692C63.0846 67.2228 63.6574 67.3956 63.587 68.3972C63.523 68.9028 63.8942 69.3284 64.051 69.7988C64.2014 70.2084 64.2558 70.7492 65.3278 71.546C66.403 72.282 66.4702 72.1348 67.0974 71.7476C67.699 71.3316 68.2302 71.0724 68.4542 70.7844C69.3662 69.5428 68.883 69.4436 69.5326 68.6116C70.1694 67.7796 70.9182 66.2116 69.9742 65.3156C69.4558 64.8836 69.0878 64.8164 67.891 64.538Z" fill="#BC6E44"/>
<path d="M95.7532 58.5315C95.6956 58.8547 95.2668 59.2227 94.8764 59.5139C94.2908 59.9587 94.2076 59.3315 93.3404 59.9459C92.3836 60.5731 92.4604 61.2611 91.9004 62.3267C91.6732 62.8227 91.2348 62.9251 90.8476 63.2259C89.9996 63.8659 89.2124 64.6403 88.4092 64.4163C88.0668 64.3139 87.6924 64.3651 87.478 63.9683C86.8412 62.8387 87.6476 62.0835 88.0092 61.6227C88.3996 61.1907 88.4668 59.8467 87.7276 58.7875C86.9564 57.7507 86.6108 57.9651 86.2396 57.5075C85.2092 56.2051 85.9068 55.9107 84.214 54.3747C83.5292 53.7763 84.1692 53.3379 83.2796 52.4899C81.9932 51.1971 81.9324 50.5955 81.4844 50.2915C80.2684 49.5459 78.9052 49.9299 78.5116 50.0899C78.086 50.2723 77.3212 50.7587 76.822 49.9363C76.3228 49.1107 77.3628 48.6499 77.8012 48.2211C78.4508 47.5939 78.5948 46.6019 80.0316 46.1155C80.4156 46.0067 80.518 45.7443 81.1132 45.5747C81.7052 45.4019 81.6956 45.5875 82.4444 45.6739C83.1548 45.7827 84.0476 45.3347 84.8188 45.5843C85.3788 45.7667 86.4156 47.8467 87.014 48.7299C87.5516 49.6675 87.7724 50.1411 88.022 51.1139C88.246 52.0547 88.8732 52.8291 88.8668 53.1555C88.8892 53.5075 89.1356 54.0163 89.4396 54.1987C91.4812 55.3827 91.1036 56.4099 92.8252 57.4659C94.2428 58.3299 94.2972 57.0915 95.5804 57.7859C95.8396 57.9139 95.8204 58.1571 95.7532 58.5315ZM107.862 49.7251C107.849 50.2915 107.744 50.6915 107.433 50.8835C106.265 51.5779 105.273 50.9923 103.92 52.4323C103.392 53.0211 102.572 53.2195 102.23 53.7123C101.9 54.1475 101.676 54.3203 101.158 54.5219C100.646 54.7299 100.521 54.9603 100.188 55.0755C98.9756 55.4403 99.382 54.5795 99.5228 53.4499C99.766 51.7923 99.3148 50.3715 98.4796 49.8499C97.0588 48.9827 97.0492 47.1395 95.654 46.3011C94.342 45.4435 95.0172 44.9827 93.3276 43.9043C92.9212 43.6547 92.6268 43.0947 92.3292 42.8483C91.9836 42.6115 91.9676 42.5283 91.3756 41.9107C90.7932 41.2419 90.4412 41.3251 89.5772 41.7475C88.7484 42.1443 88.4444 41.9555 88.1788 42.4803C87.846 42.9667 87.622 42.9507 87.2988 43.6579C86.9532 44.3395 86.6524 44.2851 86.1884 44.3587C85.7596 44.4067 85.5516 44.6083 85.2444 44.2915C84.95 43.9171 85.1196 43.2771 85.222 42.6883C85.3596 42.0739 85.6124 42.0643 86.3612 41.5043C88.5052 39.8755 87.1612 39.3667 90.6332 38.4963C91.0172 38.3875 91.366 38.1731 91.9964 38.1123C92.6492 38.0771 92.6396 38.5923 93.846 38.6051C95.0556 38.6147 94.2236 38.6883 95.494 38.9699C96.7612 39.2611 96.8252 39.8627 97.3788 40.5507C97.9292 41.2419 98.214 42.3235 98.7836 43.0979C99.9932 44.8163 99.574 43.6995 100.854 45.8275C101.353 46.6499 101.497 46.3139 102.07 47.2195C102.601 48.1571 102.684 47.8659 103.305 47.9939C103.952 48.1539 104.393 48.5091 105.056 48.4259C105.699 48.3075 106.355 48.2275 107.129 48.4739C107.923 48.7491 107.9 49.1875 107.862 49.7251Z" fill="#BC6E44"/>
<path d="M121.139 43.5784C120.991 43.876 120.47 44.1192 120.012 44.2952C119.324 44.5704 119.417 43.9432 118.412 44.3016C117.315 44.6568 117.199 45.332 116.367 46.212C116.009 46.6312 115.555 46.612 115.097 46.7912C114.105 47.1848 113.132 47.732 112.415 47.3C112.115 47.1048 111.737 47.0568 111.644 46.6216C111.343 45.3576 112.329 44.8552 112.806 44.5064C113.299 44.1928 113.743 42.9128 113.327 41.7032C112.87 40.5064 112.47 40.6184 112.246 40.0808C111.609 38.5544 112.367 38.4552 111.161 36.5256C110.671 35.7736 111.407 35.5208 110.79 34.4648C109.907 32.8872 110.012 32.2856 109.667 31.876C108.697 30.8392 107.279 30.8488 106.851 30.9C106.39 30.9608 105.519 31.2264 105.27 30.3048C105.017 29.3768 106.143 29.2072 106.691 28.916C107.484 28.4744 107.903 27.5656 109.423 27.4728C109.827 27.4728 109.999 27.252 110.611 27.2424C111.238 27.236 111.18 27.412 111.871 27.6904C112.527 27.9848 113.516 27.7928 114.185 28.2376C114.678 28.5512 115.097 30.8296 115.43 31.844C115.689 32.8872 115.772 33.3992 115.74 34.3976C115.702 35.364 116.079 36.2728 115.993 36.5864C115.91 36.9352 116.009 37.4824 116.249 37.7448C117.884 39.4248 117.235 40.3144 118.604 41.78C119.737 42.9896 120.127 41.8056 121.174 42.8168C121.388 43.0024 121.305 43.236 121.139 43.5784ZM135.254 38.3144C135.081 38.8552 134.873 39.2104 134.515 39.316C133.203 39.6776 132.406 38.8456 130.703 39.8728C130.035 40.2952 129.18 40.2792 128.716 40.6632C128.278 40.9928 128.009 41.0984 127.462 41.1592C126.905 41.22 126.723 41.412 126.371 41.4312C125.097 41.4568 125.727 40.74 126.182 39.6904C126.876 38.1576 126.831 36.6792 126.172 35.9496C125.043 34.74 125.548 32.964 124.435 31.7896C123.407 30.6184 124.185 30.3528 122.854 28.868C122.537 28.5192 122.406 27.9016 122.188 27.5912C121.919 27.2648 121.935 27.1816 121.532 26.4328C121.151 25.6424 120.79 25.6232 119.843 25.8024C118.931 25.9624 118.691 25.7032 118.294 26.1416C117.833 26.5192 117.619 26.4424 117.113 27.0344C116.591 27.6008 116.316 27.4728 115.849 27.4216C115.42 27.3512 115.171 27.492 114.959 27.1048C114.777 26.6632 115.116 26.0936 115.385 25.5528C115.683 25.0056 115.932 25.0632 116.809 24.7144C119.331 23.716 118.175 22.8712 121.763 22.9512C122.166 22.9512 122.559 22.8328 123.183 22.9416C123.82 23.0856 123.667 23.5784 124.828 23.908C125.99 24.2408 125.174 24.0872 126.323 24.6952C127.465 25.3096 127.356 25.908 127.692 26.7208C128.038 27.5304 128.009 28.6408 128.342 29.5368C129.03 31.5048 128.94 30.3272 129.577 32.7112C129.833 33.6392 130.067 33.348 130.361 34.3752C130.62 35.4152 130.774 35.1528 131.343 35.4408C131.919 35.7672 132.246 36.2248 132.911 36.3272C133.558 36.3816 134.22 36.4744 134.892 36.916C135.577 37.396 135.446 37.8024 135.254 38.3144Z" fill="#BC6E44"/>
<path d="M159.654 31.0246C159.26 31.4726 159.296 32.0998 159.011 32.4646C158.684 32.7974 158.598 33.1046 157.523 34.4102C156.409 35.7606 156.4 35.3606 155.776 35.6582C155.152 35.9558 155.404 36.0006 153.603 36.5158C152.086 36.9542 152.547 35.687 150.467 36.0166C148.726 36.3046 148.467 36.2214 147.366 36.0646C146.272 35.9398 147.049 36.1798 145.804 35.8566C144.566 35.5654 144.95 35.335 144.086 34.7398C143.177 34.1158 143.427 34.1254 143.273 33.9206C142.627 33.079 142.841 33.4598 141.961 32.7238C140.915 31.7126 141.12 31.0214 140.736 29.671C140.272 27.9974 139.715 28.8038 139.513 27.575C139.289 26.1702 139.891 26.023 140.041 24.567C140.121 23.9334 140.537 23.623 140.905 22.3302C141.174 21.4886 141.42 21.7894 141.654 21.0246C141.888 20.2566 142.688 19.719 143.094 19.3382C143.548 18.9862 143.961 18.3494 144.489 17.9206C145.052 17.479 145.76 17.4662 146.07 17.3542C146.348 17.2102 146.79 16.791 147.241 16.7302C148.176 16.5798 148.15 16.7302 148.854 16.7174C150.217 16.663 149.948 16.839 150.806 16.7366C152.694 16.5446 152.8 16.7494 153.539 17.0246C154.284 17.303 155.552 17.5142 155.964 17.7926C156.284 18.0838 156.726 19.2486 157.305 19.5046C157.875 19.7702 157.456 19.7062 158.198 20.3142C159.676 21.5334 159.286 24.3014 158.902 25.159C158.752 25.5814 158.275 26.0774 157.827 26.135C157.334 26.1958 156.188 25.9686 155.856 25.975C155.491 26.0166 155.388 26.215 154.883 26.1702C152.867 25.975 152.144 26.7974 151.494 26.8742C151.171 26.9542 150.94 26.8006 149.734 27.0918C148.528 27.3894 147.766 27.2614 147.491 27.4054C147.228 27.5846 147.068 27.9782 146.899 28.2502C146.691 28.5734 146.345 28.7622 146.361 29.239C146.384 32.2918 146.908 32.1862 147.574 32.839C147.904 33.1718 148.041 33.5526 148.358 33.7766C149.209 34.2598 149.024 34.4646 149.6 34.4326C150.297 34.343 152.595 34.1734 153.475 33.9206C156.035 32.8326 155.779 32.1638 156.214 31.6678C156.921 30.9926 156.675 30.727 156.982 30.215C157.532 29.335 158.252 28.4742 158.617 28.4294C158.857 28.359 159.072 28.0774 159.331 28.1606C159.625 28.1958 160.307 28.3334 160.444 29.0886C160.582 29.8406 160.048 30.5382 159.654 31.0246ZM152.441 20.4358C152.08 19.8534 151.996 19.2038 150.432 18.951C149.328 18.7942 149.955 18.4998 148.78 18.6758C147.113 18.9574 147.385 19.4758 146.598 20.1222C146.179 20.4326 146.131 20.9894 145.894 21.4246C145.696 21.8118 145.334 22.231 145.5 23.5334C145.705 24.7942 145.865 24.7334 146.595 24.903C147.315 25.0374 147.878 25.2262 148.246 25.1814C149.792 24.951 149.529 24.5478 150.592 24.4102C151.657 24.2854 153.328 23.7094 153.321 22.423C153.28 21.767 153.072 21.4598 152.441 20.4358Z" fill="#BC6E44"/>
<path d="M204.105 30.4418C203.308 31.0434 203.251 32.5922 201.52 32.7586C200.646 32.9186 199.772 33.229 198.598 32.877C198.195 32.6402 197.404 32.5538 196.62 31.7474C195.705 30.9762 195.577 31.2418 194.915 30.4738C194.259 29.7026 194.601 29.8402 194.521 29.5554C194.326 28.5346 193.449 28.1602 193.548 27.0466C193.619 26.2658 194.073 25.7922 194.339 25.4882C195.187 24.7138 194.348 24.381 196.038 23.6674C196.694 23.3666 197.094 23.1842 197.555 23.0978C198.678 23.0882 198.774 22.5058 200.508 23.0242C201.052 23.1938 201.734 23.0882 202.515 23.6258C204.182 24.8898 203.859 25.901 204.092 26.3938C204.211 26.6978 204.62 27.0498 204.556 27.7922C204.384 28.4642 204.819 28.8674 204.739 29.2578C204.707 29.7506 204.582 30.1634 204.105 30.4418Z" fill="#BC6E44"/>
<path d="M124.617 186.749C125.033 186.778 125.049 186.388 125.081 185.984L124.278 185.93L124.22 186.736L124.617 186.749Z" fill="#BC6E44"/>
<path d="M172.829 198.544C170.88 197.223 168.361 198.263 166.928 195.383L164.8 196.845C164.304 198.004 166.659 199.344 167.529 198.602C169.232 197.514 171.59 198.861 172.761 199.732L172.829 198.544Z" fill="#BC6E44"/>
<path d="M264.848 211.62C263.763 209.309 263.948 207.175 263.209 205.05C261.219 205.402 259.216 206.644 259.753 208.247C258.486 210.73 257.209 210.541 254.294 210.013C252.457 211.786 255.017 213.028 254.284 214.455C254.464 218.541 260.291 216.948 262.476 218.896L261.196 221.373L263.02 221.376C267.945 221.556 264.857 216.055 266.31 214.103C264.486 214.096 265.398 212.324 264.848 211.62Z" fill="#BC6E44"/>
<path d="M272.553 201.348C272.982 199.725 273.692 199.021 274.143 197.7C273.526 196.532 272.623 195.712 272.268 196.688C271.174 196.816 270.899 195.911 270.31 193.789C269.286 193.28 269.577 195.45 268.943 195.524C267.737 197.239 269.734 200.439 269.702 202.64L268.607 202.768L269.078 203.959C270.297 207.264 271.19 203.085 272.169 203.274C271.695 202.08 272.483 201.981 272.553 201.348Z" fill="#BC6E44"/>
<path d="M305.219 173.04L303.405 168.599C299.747 169.479 303.401 165.05 302.307 164.512C303.04 161.325 301.952 156.356 306.512 155.472C309.245 147.479 307.417 140.378 308.713 132.573C305.801 125.818 305.984 118.362 303.987 110.736C303.437 109.13 302.163 110.727 301.257 109.837C298.71 106.823 298.713 101.492 298.713 97.9523C299.987 99.0115 299.446 100.061 300.528 101.498L301.443 101.488C298.55 88.5379 291.449 78.4099 288.541 64.5635C287.449 60.4803 283.261 58.8803 280.531 55.3219C278.345 50.7043 272.336 49.9875 270.883 44.8419C263.6 42.1731 262.515 34.5443 255.59 32.0451C251.769 26.1923 242.835 26.7107 239.565 19.7891C232.099 19.2419 228.461 11.2483 221.545 13.2099C228.269 17.8243 235.008 25.1075 243.75 26.7075C242.845 29.3699 244.47 32.4035 246.653 34.3459C256.125 38.9667 263.046 46.7907 271.424 52.6499C275.795 63.6675 285.427 71.4851 286.893 83.7283C293.987 91.1971 297.075 99.3539 298.518 108.944C303.433 118.004 300.157 127.06 301.427 137.008C298.505 138.24 301.235 140.026 302.141 141.789C302.141 144.458 302.87 148.362 300.502 151.2C301.043 154.576 299.942 158.474 299.03 162.036L298.665 161.85L298.848 168.599C295.747 173.744 298.288 179.428 294.832 184.397C292.633 186.88 294.822 190.615 291.533 191.674C289.715 196.109 290.067 200.73 287.344 205.165C282.051 206.58 283.312 214.746 277.491 215.444C273.104 221.309 272.381 228.938 266.723 232.842C265.081 236.932 262.541 239.226 259.075 240.647C257.981 241.892 257.437 243.84 258.339 244.74C259.798 244.557 259.798 243.668 260.349 242.602C282.768 227.348 297.36 198.96 305.219 173.04Z" fill="#BC6E44"/>
<path d="M28.3007 142.231C28.3007 142.231 26.5087 139.732 25.6543 139.088C24.7999 138.442 26.4223 132.999 26.4223 132.999L30.4895 130.141L29.8367 123.13C29.8367 123.13 30.5023 119.072 30.7807 118.519C31.0687 117.962 34.2943 116.304 34.7679 115.38C35.2351 114.455 38.7135 107.341 38.7135 107.341C37.0847 106.989 35.0783 108.221 33.4367 108.752C31.0751 105.38 36.1727 105.21 36.3519 102.189L40.5599 81.6004C42.5727 74.1476 50.0543 68.4676 53.6959 61.37C56.6175 60.1284 57.5327 58.3524 58.9919 55.514C63.1807 52.6788 64.9951 49.13 68.8351 45.2196L79.0399 36.0036L80.6911 31.914C84.5087 29.7892 87.2479 26.2468 92.1663 27.3124C93.8111 24.122 98.0063 23.0596 101.645 22.1668L104.201 20.7524C115.136 8.33318 132.253 9.58438 147.379 4.97638L151.219 6.40677C159.046 0.90918 168.521 5.53636 176.726 1.99075C186.374 2.71075 194.937 11.77 205.318 7.50755L205.869 9.11397C208.057 10.1732 210.777 9.28357 211.885 11.6004L213.52 12.8388C214.976 12.6692 217.901 12.3172 218.262 10.7236C214.614 9.83076 211.699 8.40677 208.611 6.45477L193.491 1.28677C186.192 0.397186 178.176 1.81158 170.905 0.0419922C156.867 -0.14682 141.203 0.18277 127.177 3.54915C118.054 8.86116 106.4 5.83397 97.8239 12.7556C90.9023 19.1428 81.2543 21.9716 75.0367 28.7268C71.3983 29.6068 69.2127 32.9764 66.4639 35.642C64.6495 37.4084 61.0047 37.4052 60.6431 40.778C52.6143 45.7508 49.3343 56.57 43.8623 64.5508C42.2175 65.9812 41.2991 69.5268 39.4815 68.6404C33.6479 72.8932 32.3679 85.1427 24.5183 86.202C25.6191 86.7364 27.2639 88.874 26.5343 90.282C23.6223 89.7508 20.8735 92.4164 17.7823 91.338C17.0559 92.7684 15.7759 94.3524 17.0495 95.4244C14.1279 97.5588 16.8575 101.108 15.9647 103.764C17.2223 104.839 16.1375 106.96 16.6751 108.567C19.7791 109.629 19.9519 112.829 22.1375 114.788C21.3983 123.296 21.0399 131.108 20.4831 140.164C20.2943 142.301 21.9295 144.436 20.2879 146.733C21.7439 152.781 21.1903 158.269 21.7343 164.304C22.8255 165.735 25.1935 166.445 25.3695 168.756C21.5487 174.436 29.0111 178.522 27.7279 184.551C29.0143 188.288 35.1967 190.42 32.6463 194.496L38.1023 206.039C42.1055 210.66 46.4799 215.46 49.7503 220.612C54.2943 225.053 60.6751 229.495 61.9551 235.888C67.9519 241.034 74.3423 245.485 79.7951 249.93C82.5119 253.476 87.6191 254.183 90.5343 256.496C89.8047 254.372 88.9023 252.592 86.7135 251.527C86.5343 249.223 83.2447 249.389 82.7103 246.912C73.9615 245.303 72.1471 235.543 65.7791 231.984C57.7567 233.399 62.3103 223.636 57.5903 220.452C45.9263 219.194 53.9455 206.224 44.4767 202.5C42.8415 200.356 40.8351 196.272 43.2095 194.333L42.4863 193.978C31.7279 192.727 35.3855 176.746 28.2911 170.173C32.1151 166.276 25.2031 163.789 28.4831 160.058C27.0271 155.796 25.0239 150.82 27.0335 146.032L28.3007 142.231ZM87.6639 198.272C92.9503 201.293 94.5791 206.98 96.0319 212.119L95.2959 212.656L94.2111 210.346C94.0351 211.588 93.4719 211.764 92.5759 211.77L92.9279 212.832C95.1263 215.671 99.1327 213.194 102.048 213.732C103.875 215.501 109.702 216.576 105.872 219.584C106.595 219.94 106.784 220.471 107.325 220.295L108.24 217.632L112.429 219.232C118.435 218.173 120.8 224.208 125.721 227.056C128.63 226.701 131.734 227.776 135.014 229.38C137.379 230.087 141.014 230.98 141.939 229.194L140.112 228.308C136.457 223.879 129.174 224.756 125.721 219.956C117.891 223.68 114.976 214.263 109.328 211.069C106.054 207.693 100.237 205.732 98.5823 200.935C97.5007 200.416 96.5823 201.293 96.0447 202.356C92.9503 201.293 91.1231 198.624 89.4879 196.496C88.3999 189.754 84.7743 181.76 80.0415 176.788C80.7647 171.815 73.2959 171.277 76.0287 165.943C70.7487 160.253 75.4975 152.813 73.3087 146.413C69.4783 142.336 73.6799 136.829 70.0415 132.397C70.0383 129.728 67.3119 127.956 66.2175 124.756C72.5951 122.992 70.5919 131.325 76.9663 131.332C77.3311 127.956 78.6175 121.924 72.2367 121.917L72.7775 119.965L71.3215 119.255C71.8655 117.303 71.5071 114.464 73.5199 114.106C74.0703 111.271 73.5295 107.008 76.8031 105.056C76.8063 99.7284 82.8223 95.1268 83.0143 89.45C85.7375 86.778 87.3823 82.6916 91.7695 81.2836C96.3135 79.5076 93.0335 74.3588 96.8735 71.3476C97.7855 70.4548 99.2319 68.5028 100.877 69.7412C102.144 68.1412 99.9679 66.202 102.163 64.602C95.4175 66.1956 91.2223 71.6932 85.9455 74.0036C84.8351 75.2356 85.0207 79.3252 82.2911 77.546C83.0271 79.6676 79.3727 81.4468 79.9135 83.9364C76.8223 88.1988 74.9951 91.7444 72.2623 96.186C68.7935 101.146 69.8783 107.005 65.6767 110.727C67.1487 114.109 64.9439 117.472 63.8559 120.49C66.0351 124.224 65.1231 128.66 63.4879 131.853C63.4879 131.853 66.8447 134.506 67.2287 135.613C67.6031 136.724 68.7359 138.656 68.7391 139.584C68.7423 140.509 68.8319 144.48 68.8319 144.48C68.8319 144.48 69.4879 148.26 69.6799 150.199C69.8687 152.135 68.8287 161.085 69.4783 162.56C70.1503 164.036 70.4223 167.172 72.1247 168.925C73.8367 170.685 77.6031 178.525 77.1327 179.911C76.6655 181.296 80.5375 188.49 81.6831 189.05C82.8031 189.604 86.5023 193.949 86.2111 194.5C85.9295 195.053 86.9663 198.093 86.9663 198.093L87.6639 198.272ZM21.4175 103.773L20.1439 100.928L20.8735 100.397C20.8767 101.284 23.0623 102.356 21.4175 103.773ZM28.8575 133.607C31.5967 133.607 31.2351 136.976 31.5871 138.932L28.5055 140.525C26.4959 138.215 28.1343 135.914 28.8575 133.607Z" fill="#BC6E44"/>
<path d="M197.827 38.9316L197.104 40.3524C197.283 39.9908 197.83 40.7076 198.009 40.346L198.556 41.9524C198.55 41.0596 199.104 40.8772 199.462 40.1796L197.827 38.9316Z" fill="#BC6E44"/>
<path d="M217.491 55.6323C206.934 49.5907 193.088 44.6083 181.609 42.1187C178.157 40.8643 175.248 41.2195 171.955 40.5155C168.678 38.9123 167.581 41.0339 165.037 40.6755C161.76 42.6371 162.301 38.0163 159.753 37.6611C158.473 43.7027 152.096 39.2483 148.086 41.7411C144.63 41.3827 142.438 43.8595 139.344 43.6835C131.689 44.3843 124.752 48.9955 118.381 51.6515C116.003 53.6003 112.006 56.9763 108.547 56.6115C105.629 58.7427 103.984 60.1635 103.43 62.9987C106.893 65.1363 109.088 61.7635 112.176 61.9395C114.729 60.5219 115.462 56.4451 118.56 55.7411C120.931 54.6755 124.393 56.8067 123.843 52.5475C126.582 50.7683 130.233 50.7747 133.494 51.4851C137.142 48.8323 141.523 50.9667 144.438 48.8259C155.741 47.2419 167.037 44.7651 178.326 46.7235C190.355 51.7027 203.462 53.6675 214.941 62.3747C228.598 69.4883 239.341 79.6163 245.526 92.4035C251.35 95.2483 250.438 102.349 255.165 105.549C256.803 109.463 258.438 114.253 256.256 118.503C258.8 121.524 257.158 125.607 257.885 129.511C258.432 132.887 260.973 138.567 258.976 143.367C260.237 147.984 258.233 153.658 257.491 158.634C251.465 178.333 242.16 201.748 222.835 210.087C220.649 211.69 220.096 214.522 218.099 215.764C217.366 220.74 211.888 219.844 207.904 221.437C202.966 223.914 195.312 229.949 189.12 226.931C182.925 233.674 174.909 226.202 167.078 229.05C163.971 229.751 162.515 234.365 158.691 233.831C164.877 239.511 173.273 233.834 180.557 233.853C188.937 234.391 198.041 229.069 206.611 228.359C217.363 218.957 234.496 217.556 239.053 202.468C249.277 195.024 253.827 183.479 259.664 172.122C261.123 168.388 259.491 163.6 263.501 159.354C260.409 153.84 267.52 147.991 264.432 141.588C268.627 130.772 262.073 118.695 260.445 108.564C254.992 102.359 254.633 92.4131 248.262 87.0851C243.347 75.3571 232.79 65.7635 221.315 58.8323C218.953 57.2355 222.589 55.4531 220.224 53.8627C218.774 53.1523 218.592 55.2771 217.491 55.6323Z" fill="#BC6E44"/>
<path d="M11.2286 81.9299C10.1374 79.6195 10.3294 77.4851 9.59018 75.3635C7.59658 75.7123 5.58698 76.9571 6.13418 78.5603C4.85418 81.0371 3.58378 80.8611 0.674981 80.3203C-1.15542 82.0931 1.39818 83.3475 0.66538 84.7715C0.84138 88.8515 6.67498 87.2579 8.85738 89.2067L7.57418 91.6931L9.40138 91.6867C14.3198 91.8755 11.2286 86.3747 12.691 84.4195C10.867 84.4131 11.7726 82.6371 11.2286 81.9299Z" fill="#BC6E44"/>
<path d="M92.0927 125.844L92.8255 124.416L91.3599 124.589L91.3727 125.488C91.7343 125.661 91.7343 125.661 92.0927 125.844Z" fill="#BC6E44"/>
<path d="M86.806 127.255C86.4412 127.962 89.174 127.968 89.1836 127.079C87.9004 126.016 88.0828 127.44 86.806 127.255Z" fill="#BC6E44"/>
<path d="M254.14 244.004C253.238 243.133 252.694 244.183 252.143 245.261C247.036 247.204 241.935 250.922 237.561 255.009C233.919 256.791 229.356 258.557 226.617 262.1C221.887 260.685 222.243 267.073 217.513 264.765C216.06 266.714 214.041 269.729 211.676 267.239C211.142 267.421 210.95 268.66 210.227 269.194C207.491 267.421 204.751 270.074 202.38 269.367C192.908 272.73 183.971 275.025 173.596 272.183C171.599 273.434 171.228 276.801 168.31 276.263C161.574 273.421 155.007 274.663 148.275 274.471C144.444 269.505 139.718 272.513 135.343 273.044C134.243 268.961 130.415 270.196 127.878 271.617C126.601 272.33 127.139 270.369 125.862 270.189C122.767 270.906 120.582 268.951 119.132 266.461C117.66 266.641 116.761 266.644 115.676 267.882C128.038 276.589 143.532 276.599 157.382 279.812C162.847 279.818 166.854 276.433 171.583 278.749C191.254 278.583 212.223 272.388 229.724 264.058C237.551 259.453 248.671 256.439 253.42 247.213C254.508 246.858 255.603 249.165 256.511 247.396C256.521 245.617 255.606 244.724 254.14 244.004Z" fill="#BC6E44"/>
<path d="M143.593 196.708C142.326 194.765 139.59 194.759 139.408 191.569L136.87 192.093C135.958 192.98 137.584 195.105 138.678 194.753C140.694 194.401 142.32 196.532 143.043 197.777L143.593 196.708Z" fill="#BC6E44"/>
<path d="M147.389 230.973C147.581 231.514 147.581 231.514 147.942 231.69C150.121 230.087 150.681 233.466 151.766 234.89C153.046 234.176 155.222 235.242 155.958 233.827L153.046 232.41L155.235 231.693C152.857 230.096 149.766 230.807 147.389 230.973Z" fill="#BC6E44"/>
<path d="M110.749 265.04C111.302 262.189 106.374 264.682 105.83 262.192C104.745 258.989 98.5502 260.407 98.3678 257.213C96.9118 256.503 94.9054 257.738 94.355 257.92C94.7166 258.995 94.3646 260.586 95.619 260.765C101.289 261.303 105.283 265.92 110.566 268.058L113.126 267.514C113.667 265.571 111.11 266.106 110.749 265.04Z" fill="#BC6E44"/>
<path d="M125.654 97.3155L130.614 90.4707C134.368 89.1139 139.142 91.0051 142.118 89.2003L142.451 90.4227C142.755 92.0323 142.233 93.5811 140.976 94.3043C140.38 97.0531 138.556 99.7219 140.896 101.45C141.708 101.508 142.182 100.749 142.576 100.775C145.836 100.973 144.774 104.487 146.323 105.78C149.356 103.191 149.27 98.4099 150.323 94.8931L156.758 90.1283C153.315 86.7395 159.347 81.9331 155.049 78.8771L155.459 78.9027L153.068 77.9555C144.844 72.6787 147.539 87.5619 141.363 88.3651C141.043 87.1427 142.819 84.8771 143.705 83.7283C145.731 77.8947 142.166 76.0771 139.148 72.3203L138.483 70.2723C135.552 71.2835 135.6 76.8611 131.526 76.6019C131.673 80.5987 129.292 85.6099 126.316 87.4115C127.673 91.4755 120.995 93.8435 125.654 97.3155Z" fill="#BC6E44"/>
<path d="M175.625 88.9316C174.224 85.258 170.384 81.4372 167.261 85.6228C165.129 87.0692 161.35 88.4228 161.181 91.1972C157.536 96.9412 153.805 103.872 156.579 111.194C158.889 113.338 163.376 113.613 167.069 113.044C168.464 110.762 171.046 108.535 171.664 105.392C177.078 103.735 175.142 96.0484 174.995 92.0708C176.269 91.3508 176.387 89.7732 175.625 88.9316ZM170.051 98.9156C167.859 101.165 167.136 105.892 163.453 106.061L161.961 103.984C163.094 99.274 161.725 95.2036 165.225 91.8596C166.899 91.162 169.792 90.5444 171.318 92.2404L170.051 98.9156Z" fill="#BC6E44"/>
<path d="M192.873 99.5621C191.046 96.2597 190.953 91.4821 188.249 89.3221C186.937 90.4357 186.483 91.2037 186.358 93.1845L185.296 90.7333C182.304 98.8997 174.988 104.391 174.368 113.908C174.998 116.733 177.257 119.655 181.424 118.33C189.625 117.655 190.672 108.173 193.878 102.804L192.873 99.5621ZM182.777 110.061L180.752 109.937C181.747 107.207 181.936 104.445 184.889 103.044L185.868 94.3429L189.273 98.5349C188.528 103.661 185.046 106.618 182.777 110.061Z" fill="#BC6E44"/>
<path d="M201.571 103.684L201.59 97.3126C199.02 99.1462 198.377 102.695 195.833 104.122C192.592 109.882 190.595 115.325 192.188 122.183C194.848 125.13 198.739 121.802 201.942 122.797C205.628 116.276 211.424 109.082 209.942 100.637C208.345 100.132 207.427 101.671 206.524 102.807C204.201 107.037 204.281 112.215 199.241 114.285C198.918 113.057 197.667 113.396 197.747 112.209C201.561 110.052 197.052 104.202 201.571 103.684Z" fill="#BC6E44"/>
<path d="M211.491 114.26C210.812 118.193 206.16 120.689 207.884 125.565L210.732 125.741C211.657 124.202 214.188 122.769 213.532 120.349C218.71 116.295 216.502 112.586 219.667 108.013C220.985 106.497 219.468 104.817 218.732 103.578C214.502 105.697 214.934 111.684 211.491 114.26Z" fill="#BC6E44"/>
<path d="M217.804 129.764C218.547 131.012 218.003 132.957 220.035 133.089C223.398 131.725 224.879 127.831 224.71 124.225C227.718 122.042 228.188 114.913 233.772 116.852C235.919 115.012 234.079 112.093 232.95 110.826C231.34 110.333 228.067 110.522 227.004 108.077C225.743 108.794 224.569 107.927 223.401 107.06L223.545 111.031C227.923 118.868 217.494 122.189 217.804 129.764Z" fill="#BC6E44"/>
<path d="M162.509 120.311L161.654 121.05C160.038 120.56 161.021 118.24 159.337 118.928C155.302 124.25 153.667 130.503 150.051 135.844C148.189 139.309 147.571 142.455 150.659 145.037C154.214 146.848 158.035 144.698 161.395 143.325C163.773 138.304 167.36 133.36 167.379 126.999C166.31 124.544 164.873 121.655 162.509 120.311ZM160.448 139.277C158.329 140.34 154.56 141.7 153.507 139.261C155.091 133.783 157.478 128.362 160.675 123.38C164.301 124.016 163.984 128.772 164.595 131.981C164.384 135.156 161.821 136.986 160.448 139.277Z" fill="#BC6E44"/>
<path d="M183.337 132.372C184.463 127.671 178.748 127.709 176.438 125.581C174.201 128.628 173.913 132.98 170.147 134.327C170.214 139.508 166.31 143.239 165.145 148.336C166.892 152.823 173.337 154.026 177.427 153.888C178.153 149.159 170.447 148.272 172.428 143.226C173.939 138.948 177.238 144.324 180.284 141.722C181.327 138.218 177.308 137.168 175.411 135.06C176.467 131.54 181.174 134.228 183.337 132.372Z" fill="#BC6E44"/>
<path d="M114.349 144.746L116.714 146.084C118.365 145.783 121.968 146.8 121.344 143.981C120.739 140.762 117.427 141.348 115.501 139.636L111.21 142.944C109.072 150.372 105.373 156.903 101.29 163.015L102.307 166.256C109.53 168.301 106.294 155.367 113.104 157.38C113.955 157.047 112.397 155.76 114.054 155.46C114.589 153.504 115.171 150.756 112.794 149.818C113.702 148.279 112.23 145.792 114.349 144.746Z" fill="#BC6E44"/>
<path d="M164.336 191.245C164.819 190.087 164.029 189.639 163.68 188.826C165.782 181.796 169.526 174.461 170.051 166.541C168.915 165.277 169.555 161.738 166.669 162.356C167.222 165.972 163.769 168.935 161.99 171.2C159.318 168.253 160.573 161.965 155.302 161.239C153.385 165.492 150.249 169.661 148.774 173.556C148.605 175.933 146.253 174.589 145.491 173.744L146.07 159.076C144.915 157.799 144.288 154.97 142.678 154.877C142.406 158.852 136.925 161.274 135.069 164.736C129.888 162.82 132.313 169.335 129.344 171.133L127.437 169.028C126.265 168.164 127.171 167.021 127.632 165.863C125.369 163.344 129.133 161.981 129.67 160.023C125.712 158.183 131.117 156.532 131.305 153.77C132.326 150.64 130.505 147.332 128.169 145.61L127.584 148.359L123.619 146.509C121.968 146.8 123.517 148.1 123.437 149.29C120.221 154.65 117.373 160.852 114.166 165.808C114.067 167.396 112.672 170.09 114.678 170.615C113.6 174.522 115.443 177.418 113.942 181.7L115.565 181.805C115.849 177.447 120.301 178.138 121.734 175.034C122.787 177.495 127.984 173.047 127.616 178.592C124.774 178.416 127.353 182.544 124.134 181.956C122.32 184.624 126.493 183.293 127.2 184.925C130.099 184.311 126.649 180.922 129.59 179.52C131.222 179.619 132.418 180.086 133.177 180.922C130.921 178.013 136.281 177.149 136.768 175.981C137.072 177.594 137.67 180.813 137.52 183.188C138.173 185.62 141.411 186.218 141.235 188.605C139.584 188.884 141.552 190.215 141.904 191.024C142.144 193.434 139.437 191.264 138.537 192.4C137.568 194.727 142.192 192.637 140.422 194.903L140.822 194.938C140.857 194.548 140.902 193.744 141.296 193.776L142.441 195.037L141.59 195.776C140.793 195.332 139.529 196.055 140.275 196.88C142.153 199.399 146.653 199.28 149.123 199.031C150.013 197.898 148.8 197.828 148.438 197.008C149.721 196.288 151.91 194.045 149.517 193.101C149.971 192.327 150.838 191.584 151.686 191.239L154.39 193.405C154.288 194.989 152.72 194.09 151.878 194.439C150.467 197.13 155.798 197.079 155.977 200.263C157.581 200.762 157.309 198.752 158.179 198.013C164.553 200.413 158.246 190.861 164.336 191.245ZM127.856 171.914C127.629 172.596 127.609 173.52 127.091 174.189C126.381 173.389 127.097 172.538 127.856 171.914C128.003 171.447 128.243 171.063 128.937 171.104C128.777 171.261 128.304 171.543 127.856 171.914ZM140.329 165.469C139.526 165.018 137.507 164.896 138.803 163.783L140.432 163.882L140.329 165.469ZM151.357 190.032C150.598 189.194 149.35 189.501 148.125 189.424C150.998 189.22 154.089 179.472 156.061 186.743C156.745 188.778 154.787 187.466 154.672 189.05L156.243 190.343C154.041 192.589 153.171 187.36 151.357 190.032Z" fill="#BC6E44"/>
<path d="M186.188 169.549C186.323 167.568 184.854 165.098 182.889 164.173C170.108 165.751 170.358 180.49 167.292 189.834C166.102 189.37 166.006 190.547 165.99 190.957C166.726 192.186 167.535 192.234 168.755 192.314C169.091 193.536 171.548 193.283 171.014 195.248C171.769 196.093 172.988 196.176 173.833 195.818C174.78 193.891 179.321 192.973 178.374 188.944C178.502 186.967 176.627 184.455 174.495 185.517L174.956 178.784C175.401 172.048 183.075 173.328 186.188 169.549Z" fill="#BC6E44"/>
<path d="M190.768 198.877C194.109 197.895 193.978 193.508 193.763 190.714C194.714 188.781 197.482 190.148 198.851 187.844C201.507 184.833 197.107 183.357 196.054 180.916C198.237 178.66 201.539 178.074 201.402 174.093C201.136 165.722 193.754 172.41 191.504 175.46C190.611 182.951 184.096 188.503 185.626 196.567C186.736 198.234 188.285 199.511 190.768 198.877Z" fill="#BC6E44"/>
<path d="M129.379 182.679C129.663 184.685 126.191 187.655 129.855 187.885C131.1 187.575 131.18 186.371 131.644 185.613C132.438 186.048 132.3 188.042 133.574 187.315L133.628 186.528C132.476 185.667 134.569 184.595 134.62 183.805C132.191 183.642 131.577 180.432 129.379 182.679Z" fill="#BC6E44"/>
</svg>
